<?xml version="1.0" standalone="no"?>
<!DOCTYPE svg PUBLIC "-//W3C//DTD SVG 20010904//EN"
 "http://www.w3.org/TR/2001/REC-SVG-20010904/DTD/svg10.dtd">
<svg version="1.0" xmlns="http://www.w3.org/2000/svg"
 width="1080.000000pt" height="1080.000000pt" viewBox="0 0 1080.000000 1080.000000"
 preserveAspectRatio="xMidYMid meet">

<g transform="translate(0.000000,1080.000000) scale(0.100000,-0.100000)"
fill="#000000" stroke="none">
<path d="M0 5400 l0 -5400 5400 0 5400 0 0 5400 0 5400 -5400 0 -5400 0 0
-5400z m6018 1592 c9 -3 12 -157 12 -723 0 -518 3 -719 11 -719 6 0 34 12 63
26 221 111 432 164 657 164 262 0 431 -70 603 -250 164 -171 246 -354 286
-633 63 -431 -63 -846 -340 -1127 -41 -41 -86 -83 -100 -93 -190 -129 -305
-169 -575 -198 -93 -10 -134 -9 -265 5 -175 20 -196 23 -335 60 -150 39 -383
127 -397 149 -4 7 -8 757 -8 1668 0 1311 3 1658 13 1668 9 9 56 12 187 10 96
-1 181 -4 188 -7z m-518 -17 c69 -36 80 -146 20 -196 -17 -15 -45 -30 -62 -33
-17 -3 -140 -6 -273 -6 -212 0 -244 -2 -249 -16 -3 -9 -6 -660 -6 -1448 0
-1100 3 -1435 12 -1444 9 -9 81 -12 261 -12 233 0 252 -1 282 -20 20 -12 39
-37 49 -61 22 -54 8 -99 -42 -137 l-35 -27 -671 0 c-499 0 -692 3 -751 13 -44
7 -111 18 -150 24 -38 6 -104 19 -145 30 -41 11 -91 23 -110 28 -48 13 -208
82 -277 120 -32 18 -70 39 -85 47 -45 24 -187 163 -229 224 -55 81 -97 179
-125 288 -20 81 -24 120 -24 251 0 312 78 509 271 685 100 92 253 168 399 200
56 12 53 26 -13 57 -72 34 -184 122 -224 176 -15 20 -31 39 -34 42 -14 11 -79
151 -90 192 -32 130 -37 317 -9 413 7 22 17 58 23 80 25 95 115 227 206 301
68 57 237 146 306 163 22 5 65 16 95 24 30 8 89 20 130 26 41 6 100 15 130 20
30 5 356 9 723 10 579 1 672 -1 697 -14z"/>
<path d="M6490 5383 c-145 -27 -353 -97 -427 -143 l-33 -20 0 -685 c0 -540 3
-686 13 -689 6 -2 32 -9 57 -16 25 -7 56 -17 70 -22 83 -33 352 -49 476 -28
227 39 404 185 514 423 62 135 80 230 80 418 0 141 -3 173 -26 257 -28 109
-51 162 -103 241 -74 114 -175 196 -294 239 -59 21 -92 26 -187 28 -63 1 -126
0 -140 -3z"/>
<path d="M4105 6734 c-34 -5 -125 -20 -200 -35 -60 -12 -190 -62 -246 -93 -22
-13 -63 -42 -90 -66 -61 -52 -122 -172 -140 -274 -23 -137 6 -305 72 -408 98
-153 321 -270 577 -303 152 -20 555 -21 571 -1 8 9 10 174 9 597 l-3 584 -260
1 c-143 1 -273 0 -290 -2z"/>
<path d="M4020 5309 c-311 -16 -481 -62 -626 -170 -163 -120 -224 -259 -224
-509 0 -342 144 -564 448 -689 70 -29 110 -41 252 -76 87 -22 448 -46 629 -43
l146 3 7 40 c4 22 7 353 7 735 1 529 -2 699 -11 708 -14 14 -380 14 -628 1z"/>
</g>
</svg>
