<svg width="99" height="46" viewBox="0 0 99 46" fill="none" xmlns="http://www.w3.org/2000/svg">
<path d="M65.7179 0H59.3389V0.000725584H65.7179V0Z" fill="#FCC907"/>
<path d="M30.5798 37.275V0.00244141H0L4.87023 5.93844H24.6332V11.5516H9.47519L14.3454 17.4876H24.6332V30.0271L30.5798 37.275Z" fill="#FCC907"/>
<path d="M68.4204 37.2725V0H99.0002L90.565 9.78233H82.8792L86.4441 5.93673H74.367V20.6567L78.7379 15.7191H86.4245L68.4204 37.2725Z" fill="#FCC907"/>
<path d="M39.6627 0H33.2837V0.000725584H39.6627V0Z" fill="#FCC907"/>
<path d="M39.6627 9.3262V24.6788L33.2837 30.6576V0.00244141H65.7183V6.43329L59.3392 12.4121V9.3262L49.5013 18.0492L39.6627 9.3262Z" fill="#FCC907"/>
<path d="M33.2837 45.8722V33.8935L39.6627 27.9155V31.0014L49.5006 22.2784L59.3392 31.0014V15.648L65.7183 9.66992V45.8715L49.5006 30.6734L33.2837 45.8722Z" fill="#FCC907"/>
</svg>
