<svg width="599" height="101" viewBox="0 0 599 101" fill="none" xmlns="http://www.w3.org/2000/svg">
<g clip-path="url(#clip0_897_1239)">
<path d="M67.9234 82.0688V0H0.707031L11.4117 13.073H54.8536V25.4286H21.5336L32.2382 38.4984H54.8536V66.1105L67.9234 82.0688Z" fill="white"/>
<path d="M151.101 82.0656V0H218.321L199.778 21.5377H182.883L190.718 13.0698H164.174V45.4813L173.782 34.6107H190.677L151.101 82.0656Z" fill="white"/>
<path d="M87.8885 20.5289V54.3345L73.8694 67.4952V0H145.161V14.1601L131.139 27.3239V20.5289L109.517 39.7359L87.8885 20.5289Z" fill="white"/>
<path d="M73.8694 101V74.6253L87.8885 61.4615V68.2565L109.514 49.0527L131.139 68.2565V34.454L145.161 21.2902V101L109.514 67.5359L73.8694 101Z" fill="white"/>
<path d="M238.11 0V101" stroke="white" stroke-width="3" stroke-miterlimit="10"/>
<path d="M270.55 38.1444V45.4437H283.034V52.6961H270.55V67.2258H263.276V30.8921H285.102V38.1444H270.55Z" fill="white"/>
<path d="M329.361 49.1028C329.361 38.8869 337.961 30.2405 348.154 30.2405C352.869 30.3094 357.045 32.1734 360.842 35.8324L356.644 41.5591C354.176 39.1344 351.209 37.6526 348.089 37.6526C342.274 37.6526 336.726 42.8154 336.726 49.1498C336.726 55.5939 342.475 60.5781 348.067 60.5781C351.391 60.5781 354.263 58.8049 356.666 56.446L360.842 62.3293C357.653 65.4965 353.768 67.8743 348.289 67.8743C337.848 67.8743 329.361 59.2749 329.361 49.1028Z" fill="white"/>
<path d="M429.083 38.1444V45.2182H441.567V52.4705H429.083V59.9484H443.634V67.1788H421.809V30.9798H443.634V38.1413H429.083V38.1444Z" fill="white"/>
<path d="M456.253 38.1444V45.2182H468.737V52.4705H456.253V59.9484H470.805V67.1788H448.979V30.9798H470.805V38.1413H456.253V38.1444Z" fill="white"/>
<path d="M494.404 67.1788L483.402 51.327V67.1788H476.149V30.9798H483.402V46.631L493.574 30.9798H501.973L490.363 48.6955L503.251 67.1756H494.404V67.1788Z" fill="white"/>
<path d="M513.984 38.1444V45.2182H526.468V52.4705H513.984V59.9484H528.535V67.1788H506.709V30.9798H528.535V38.1413H513.984V38.1444Z" fill="white"/>
<path d="M562.98 30.8921V67.8523H562.642L541.151 46.9475V67.2258H533.877V30.3063H534.237L555.681 51.1673V30.8921H562.98Z" fill="white"/>
<path d="M598.64 49.1247C598.64 60.3525 591.501 67.1788 579.8 67.1788H569.267V31.0049L579.8 30.9829C591.497 30.9579 598.64 37.8311 598.64 49.1247ZM591.297 49.1028C591.297 42.3204 586.939 38.1914 579.778 38.1914H576.523V59.9265H579.847C586.961 59.9265 591.297 55.8382 591.297 49.1028Z" fill="white"/>
<path d="M416.138 66.9971L399.359 51.6059L382.577 67.1788L382.574 30.9798H389.983L389.936 51.2425L399.359 42.8905L408.632 51.4336L408.82 30.9798H416.138V66.9971Z" fill="white"/>
<path d="M290.136 31.2649L306.915 46.6561L323.694 31.0832L323.7 67.2822H316.288L316.338 47.0195L306.915 55.3714L297.642 46.8284L297.451 67.2822H290.136V31.2649Z" fill="white"/>
<path d="M266.327 8.68086H267.076V20.3504H266.192V9.65828L263.492 10.501L263.276 9.73347L266.327 8.68086Z" fill="white"/>
<path d="M271.859 8.68086H272.608V20.3504H271.725V9.65828L269.024 10.501L268.808 9.73347L271.859 8.68086Z" fill="white"/>
<path d="M277.298 10.4164H275.85V13.5742C275.85 13.853 275.904 14.0535 276.007 14.1757C276.111 14.2979 276.27 14.3699 276.483 14.3856C276.696 14.4013 276.969 14.395 277.301 14.3605V14.7991C276.646 14.8963 276.157 14.8524 275.838 14.6644C275.518 14.4765 275.356 14.1131 275.356 13.5774V10.4164H274.287V9.94023H275.356V8.72472L275.85 8.57748V9.9371H277.298V10.4164Z" fill="white"/>
<path d="M280.687 9.83372C281.264 9.83372 281.721 10.0092 282.063 10.3632C282.404 10.7172 282.573 11.1871 282.573 11.776V14.7991H282.078V11.776C282.078 11.3218 281.953 10.9615 281.706 10.6984C281.455 10.4321 281.104 10.3005 280.65 10.3005C280.152 10.3005 279.741 10.4665 279.425 10.7955C279.108 11.1244 278.949 11.6069 278.949 12.2334V14.7991H278.463V7.99792H278.949V10.8644C279.3 10.1783 279.879 9.83372 280.687 9.83372Z" fill="white"/>
<path d="M284.647 15.6011V14.8023H290.65V15.6011H284.647Z" fill="white"/>
<path d="M295.415 8.68086H296.163V20.3504H295.28V9.65828L292.579 10.501L292.363 9.73347L295.415 8.68086Z" fill="white"/>
<path d="M302.438 13.5272C303.419 13.6275 304.227 13.9784 304.863 14.5798C305.499 15.1813 305.815 15.9833 305.815 16.9858C305.815 18.076 305.443 18.9406 304.697 19.5766C303.951 20.2157 303.04 20.5352 301.962 20.5352C301.094 20.5352 300.33 20.341 299.663 19.9525C298.995 19.5641 298.522 19.019 298.247 18.3204L298.98 17.888C299.19 18.4676 299.556 18.9093 300.079 19.2226C300.602 19.5327 301.229 19.6894 301.962 19.6894C302.83 19.6894 303.541 19.445 304.095 18.9563C304.65 18.4676 304.929 17.8128 304.929 16.9889C304.929 16.1682 304.647 15.5103 304.086 15.0216C303.525 14.5329 302.802 14.2885 301.924 14.2885V14.2728L301.909 14.2854H301.677L301.298 13.7058L304.249 9.52045H298.547V8.68713H305.264L305.251 9.51105L302.438 13.5272Z" fill="white"/>
<path d="M309.838 10.4164H308.39V13.5742C308.39 13.853 308.441 14.0535 308.547 14.1757C308.65 14.2979 308.81 14.3699 309.023 14.3856C309.236 14.4013 309.509 14.395 309.841 14.3605V14.7991C309.186 14.8963 308.697 14.8524 308.378 14.6644C308.058 14.4765 307.899 14.1131 307.899 13.5774V10.4164H306.83V9.94023H307.899V8.72472L308.394 8.57748V9.9371H309.841V10.4164H309.838Z" fill="white"/>
<path d="M313.227 9.83372C313.804 9.83372 314.261 10.0092 314.603 10.3632C314.944 10.7172 315.113 11.1871 315.113 11.776V14.7991H314.618V11.776C314.618 11.3218 314.493 10.9615 314.246 10.6984C313.995 10.4321 313.644 10.3005 313.19 10.3005C312.692 10.3005 312.281 10.4665 311.965 10.7955C311.649 11.1244 311.489 11.6069 311.489 12.2334V14.7991H311.003V7.99792H311.489V10.8644C311.84 10.1783 312.419 9.83372 313.227 9.83372Z" fill="white"/>
<path d="M328.105 9.51418H322.519V14.182H327.904V15.0153H322.519V20.3504H321.636V8.68086H328.105V9.51418Z" fill="white"/>
<path d="M333.857 11.8324C335.078 11.8324 336.071 12.2647 336.833 13.1325C337.594 14.0003 337.976 15.0278 337.976 16.2151C337.976 16.259 337.973 16.3279 337.967 16.4156C337.961 16.5034 337.957 16.5723 337.957 16.6161H330.404C330.505 17.5497 330.88 18.3016 331.529 18.8748C332.177 19.4481 332.983 19.7332 333.938 19.7332C334.605 19.7332 335.188 19.5954 335.689 19.3166C336.19 19.0377 336.566 18.6712 336.823 18.217L337.556 18.6493C337.212 19.2257 336.723 19.6862 336.09 20.0246C335.457 20.3629 334.734 20.5321 333.922 20.5321C332.644 20.5321 331.595 20.1248 330.771 19.3072C329.947 18.4895 329.536 17.4494 329.536 16.1807C329.536 14.937 329.937 13.9 330.746 13.073C331.554 12.2459 332.588 11.8324 333.857 11.8324ZM333.857 12.6313C332.914 12.6313 332.124 12.9257 331.488 13.5147C330.855 14.1037 330.495 14.8649 330.404 15.7985H337.105C337.018 14.8085 336.664 14.0347 336.046 13.474C335.432 12.9132 334.699 12.6313 333.857 12.6313Z" fill="white"/>
<path d="M344.342 11.8324C345.542 11.8324 346.563 12.2522 347.4 13.0918C348.239 13.9314 348.659 14.962 348.659 16.1838C348.659 17.4056 348.239 18.4363 347.4 19.2758C346.56 20.1154 345.542 20.5352 344.342 20.5352C343.553 20.5352 342.845 20.3472 342.218 19.9682C341.591 19.5891 341.103 19.0722 340.758 18.4175V20.3504H339.925V8.68086H340.758V13.9502C341.103 13.2954 341.588 12.7785 342.218 12.3994C342.845 12.0204 343.553 11.8324 344.342 11.8324ZM341.783 18.6994C342.465 19.3886 343.302 19.7332 344.292 19.7332C345.282 19.7332 346.118 19.3886 346.801 18.6994C347.484 18.0102 347.826 17.1706 347.826 16.1838C347.826 15.1939 347.484 14.3543 346.801 13.6682C346.118 12.979 345.282 12.6344 344.292 12.6344C343.302 12.6344 342.465 12.979 341.783 13.6682C341.1 14.3574 340.758 15.197 340.758 16.1838C340.758 17.1738 341.1 18.0102 341.783 18.6994Z" fill="white"/>
<path d="M351.51 13.6494C352.011 12.484 352.938 11.8982 354.295 11.8982V12.6971C353.505 12.6971 352.844 12.9508 352.312 13.4552C351.779 13.9596 351.513 14.7146 351.513 15.7139V20.3472H350.679V12.0173H351.513V13.6494H351.51Z" fill="white"/>
<path d="M361.979 12.0172H362.813V20.3535H361.979V18.7683C361.378 19.9462 360.385 20.5352 358.994 20.5352C358.004 20.5352 357.218 20.2313 356.635 19.6267C356.052 19.0221 355.761 18.2138 355.761 17.202V12.0172H356.61V17.1988C356.61 17.9757 356.823 18.5929 357.252 19.0503C357.681 19.5077 358.283 19.7332 359.06 19.7332C359.915 19.7332 360.617 19.4513 361.159 18.8842C361.704 18.3172 361.976 17.4964 361.976 16.4156V12.0172H361.979Z" fill="white"/>
<path d="M372.715 12.0172H373.564V20.3535H372.715V18.4707C372.358 19.1161 371.869 19.6204 371.249 19.987C370.626 20.3535 369.921 20.5383 369.131 20.5383C367.941 20.5383 366.926 20.1185 366.08 19.279C365.234 18.4394 364.814 17.4087 364.814 16.1869C364.814 14.9652 365.237 13.9345 366.08 13.0949C366.926 12.2553 367.941 11.8355 369.131 11.8355C369.921 11.8355 370.626 12.0204 371.249 12.3869C371.873 12.7534 372.361 13.2609 372.715 13.9032V12.0172ZM366.688 18.6994C367.371 19.3886 368.207 19.7332 369.197 19.7332C370.187 19.7332 371.02 19.3886 371.697 18.6994C372.374 18.0102 372.715 17.1706 372.715 16.1838C372.715 15.1939 372.377 14.3543 371.697 13.6682C371.02 12.979 370.184 12.6344 369.197 12.6344C368.207 12.6344 367.371 12.979 366.688 13.6682C366.005 14.3574 365.663 15.197 365.663 16.1838C365.663 17.1738 366.005 18.0102 366.688 18.6994Z" fill="white"/>
<path d="M376.963 13.6494C377.464 12.484 378.392 11.8982 379.748 11.8982V12.6971C378.959 12.6971 378.298 12.9508 377.765 13.4552C377.233 13.9596 376.966 14.7146 376.966 15.7139V20.3472H376.133V12.0173H376.966V13.6494H376.963Z" fill="white"/>
<path d="M387.699 12.0172H388.598L384.999 21.1179C384.676 21.9418 384.222 22.5872 383.633 23.0602C383.044 23.5332 382.399 23.74 381.7 23.6867V22.9036C382.233 22.9474 382.715 22.7939 383.141 22.4462C383.57 22.0953 383.918 21.5972 384.184 20.955L384.363 20.4976L380.531 12.0204H381.431L384.789 19.4105L387.699 12.0172Z" fill="white"/>
<path d="M393.984 20.3504V19.5515L398.269 15.15C399.525 13.8499 400.152 12.7503 400.152 11.8481C400.152 11.0712 399.908 10.4603 399.419 10.0154C398.93 9.57056 398.319 9.34814 397.586 9.34814C396.286 9.34814 395.359 9.9371 394.801 11.115L394.052 10.6639C394.397 9.96529 394.876 9.42646 395.493 9.05679C396.111 8.68399 396.806 8.49916 397.586 8.49916C398.529 8.49916 399.344 8.79991 400.03 9.39826C400.713 9.99975 401.054 10.8143 401.054 11.8481C401.054 12.5122 400.86 13.1576 400.475 13.7841C400.089 14.4107 399.547 15.0717 398.855 15.7672L395.246 19.4983H401.324V20.3472H393.984V20.3504Z" fill="white"/>
<path d="M410.355 18.8999C409.588 19.9901 408.516 20.5352 407.138 20.5352C405.76 20.5352 404.688 19.9901 403.921 18.8999C403.153 17.8097 402.771 16.3499 402.771 14.5172C402.771 12.6845 403.153 11.2215 403.921 10.1345C404.688 9.04427 405.76 8.5023 407.138 8.5023C408.516 8.5023 409.588 9.0474 410.355 10.1345C411.123 11.2247 411.505 12.6845 411.505 14.5172C411.505 16.3499 411.123 17.8129 410.355 18.8999ZM404.588 18.3266C405.199 19.232 406.048 19.6862 407.138 19.6862C408.228 19.6862 409.077 19.2351 409.688 18.3266C410.299 17.4213 410.606 16.1525 410.606 14.5172C410.606 12.8819 410.299 11.6131 409.688 10.7078C409.077 9.8024 408.225 9.34815 407.138 9.34815C406.051 9.34815 405.199 9.8024 404.588 10.7078C403.977 11.6131 403.67 12.8819 403.67 14.5172C403.67 16.1525 403.974 17.4213 404.588 18.3266Z" fill="white"/>
<path d="M412.94 20.3504V19.5515L417.225 15.15C418.482 13.8499 419.108 12.7503 419.108 11.8481C419.108 11.0712 418.864 10.4603 418.375 10.0154C417.886 9.57056 417.276 9.34814 416.542 9.34814C415.242 9.34814 414.315 9.9371 413.757 11.115L413.009 10.6639C413.353 9.96529 413.833 9.42646 414.45 9.05679C415.067 8.68399 415.762 8.49916 416.542 8.49916C417.485 8.49916 418.3 8.79991 418.986 9.39826C419.669 9.99975 420.01 10.8143 420.01 11.8481C420.01 12.5122 419.816 13.1576 419.431 13.7841C419.046 14.4107 418.504 15.0717 417.811 15.7672L414.202 19.4983H420.28V20.3472H412.94V20.3504Z" fill="white"/>
<path d="M421.724 20.3504V19.5515L426.01 15.15C427.266 13.8499 427.892 12.7503 427.892 11.8481C427.892 11.0712 427.648 10.4603 427.159 10.0154C426.671 9.57056 426.06 9.34814 425.327 9.34814C424.027 9.34814 423.099 9.9371 422.542 11.115L421.793 10.6639C422.138 9.96529 422.617 9.42646 423.234 9.05679C423.851 8.68399 424.547 8.49916 425.327 8.49916C426.27 8.49916 427.084 8.79991 427.77 9.39826C428.453 9.99975 428.795 10.8143 428.795 11.8481C428.795 12.5122 428.601 13.1576 428.215 13.7841C427.83 14.4107 427.288 15.0717 426.596 15.7672L422.987 19.4983H429.064V20.3472H421.724V20.3504Z" fill="white"/>
<path d="M267.799 92.7045L262.793 79.55H263.73L268.313 91.702L271.521 83.2436L270.155 79.5469H271.073L275.562 91.6613L280.149 79.55H281.076L276.07 92.7045H275.124L271.944 84.4058L268.745 92.7045H267.799Z" fill="white"/>
<path d="M289.782 92.7045V79.55H290.643V85.4239H299.644V79.55H300.515V92.7045H299.644V86.204H290.643V92.7045H289.782Z" fill="white"/>
<path d="M310.981 92.7045V79.55H317.961V80.327H311.852V85.4239H317.56V86.2009H311.852V91.9275H317.961V92.7045H310.981Z" fill="white"/>
<path d="M327.275 92.7045V79.55H331.034C333.55 79.55 335.113 80.6152 335.113 83.1151C335.113 85.2955 333.625 86.3418 331.943 86.6144L337.077 92.7045H335.956L330.949 86.7272H328.143V92.7045H327.275ZM328.146 85.9597H331.028C332.795 85.9597 334.255 85.0699 334.255 83.1151C334.255 81.1603 333.067 80.327 331.028 80.327H328.146V85.9597Z" fill="white"/>
<path d="M345.667 92.7045V79.55H352.647V80.327H346.538V85.4239H352.246V86.2009H346.538V91.9275H352.647V92.7045H345.667Z" fill="white"/>
<path d="M371.447 92.7045L373.141 79.55H374.059L379.131 91.3104L384.212 79.55H385.13L386.825 92.7045H385.964L384.476 80.9723L379.423 92.7045H378.862L373.799 80.9723L372.311 92.7045H371.447Z" fill="white"/>
<path d="M394.739 92.7045L400.165 79.55H401.12L406.555 92.7045H405.6L404.046 88.9358H397.245L395.7 92.7045H394.739ZM397.499 88.2027H403.795L400.644 80.5588L397.499 88.2027Z" fill="white"/>
<path d="M414.055 86.1257C414.055 82.1032 416.843 79.2493 420.687 79.2493C423.381 79.2493 425.599 80.6528 426.618 82.8801L425.803 83.1527C424.894 81.2354 422.977 80.0481 420.687 80.0481C417.348 80.0481 414.932 82.5543 414.932 86.1288C414.932 89.7033 417.345 92.2001 420.687 92.2001C423.886 92.2001 426.17 90.1607 426.198 87.1376H420.706V86.417H427.106C427.106 90.5899 424.534 93.0021 420.687 93.0021C416.843 93.0021 414.055 90.1481 414.055 86.1257Z" fill="white"/>
<path d="M436.461 92.7045V79.55H437.332V92.7045H436.461Z" fill="white"/>
<path d="M446.974 86.1257C446.974 82.1032 449.762 79.2493 453.606 79.2493C456.291 79.2493 458.5 80.6716 459.527 82.8801L458.722 83.2248C457.813 81.2699 455.906 80.045 453.606 80.045C450.276 80.045 447.851 82.5512 447.851 86.1257C447.851 89.6908 450.273 92.197 453.606 92.197C455.937 92.197 457.854 90.9439 458.75 88.9608L459.555 89.3054C458.553 91.5328 456.319 93.0021 453.606 93.0021C449.762 93.0021 446.974 90.1481 446.974 86.1257Z" fill="white"/>
<path d="M479.079 92.7045V79.55H479.94V85.4239H488.941V79.55H489.811V92.7045H488.941V86.204H479.94V92.7045H479.079Z" fill="white"/>
<path d="M498.564 92.7045L503.99 79.55H504.946L510.381 92.7045H509.426L507.872 88.9358H501.071L499.526 92.7045H498.564ZM501.324 88.2027H507.621L504.47 80.5588L501.324 88.2027Z" fill="white"/>
<path d="M519.134 92.7045V79.55H522.903C525.409 79.55 526.972 80.634 526.972 83.1151C526.972 85.6401 525.074 86.7272 522.903 86.7272H520.002V92.7045H519.134ZM520.005 85.9597H522.896C524.654 85.9597 526.114 85.0699 526.114 83.1151C526.114 81.1603 524.936 80.3176 522.896 80.3176H520.005V85.9597Z" fill="white"/>
<path d="M536.223 92.7045V79.55H539.992C542.498 79.55 544.061 80.634 544.061 83.1151C544.061 85.6401 542.163 86.7272 539.992 86.7272H537.091V92.7045H536.223ZM537.094 85.9597H539.986C541.743 85.9597 543.203 85.0699 543.203 83.1151C543.203 81.1603 542.025 80.3176 539.986 80.3176H537.094V85.9597Z" fill="white"/>
<path d="M553.316 92.7045V79.55H560.295V80.327H554.186V85.4239H559.894V86.2009H554.186V91.9275H560.295V92.7045H553.316Z" fill="white"/>
<path d="M569.609 92.7045V79.55H570.47L580.003 91.3198V79.55H580.874V92.7045H580.003L570.47 80.9253V92.7045H569.609Z" fill="white"/>
<path d="M590.235 89.5592L591.031 89.3994C591.341 91.1475 592.679 92.1406 594.389 92.1406C596.353 92.1406 597.45 90.8969 597.45 89.4088C597.45 88.2967 596.964 87.4258 595.551 86.7428L593.139 85.5461C591.679 84.835 590.755 84.0393 590.755 82.4791C590.755 80.8407 592.065 79.3652 594.339 79.3652C596.341 79.3652 597.697 80.5901 597.932 82.3225L597.146 82.4823C596.939 81.1258 595.912 80.1139 594.339 80.1139C592.61 80.1139 591.626 81.2261 591.626 82.4635C591.626 83.5192 592.205 84.1395 593.496 84.7849L595.855 85.9534C597.494 86.7679 598.324 87.7015 598.324 89.4057C598.324 91.3981 596.864 92.8956 594.395 92.8956C591.967 92.8893 590.63 91.5798 590.235 89.5592Z" fill="white"/>
</g>
<defs>
<clipPath id="clip0_897_1239">
<rect width="597.933" height="101" fill="white" transform="translate(0.707031)"/>
</clipPath>
</defs>
</svg>
