<svg width="817" height="139" viewBox="0 0 817 139" fill="none" xmlns="http://www.w3.org/2000/svg">
<path d="M91.8273 112.908V0.789825H0L14.6218 18.6491H73.9756V35.5281H28.4533L43.0752 53.3874H73.9756V91.1048L91.8273 112.908Z" fill="#FDE282"/>
<path d="M205.466 112.908V0.789825H297.293L271.963 30.2159H248.883L259.591 18.6491H223.318V62.9251L236.45 48.0752H259.53L205.466 112.908Z" fill="#FDE282"/>
<path d="M119.102 28.8404V75.0162L99.9512 93.0047V0.789825H197.349V20.1387L178.19 38.1196V28.8404L148.65 55.0746L119.102 28.8404Z" fill="#FDE282"/>
<path d="M99.9512 138.77V102.74L119.102 84.759V94.0382L148.65 67.8041L178.19 94.0382V47.8624L197.349 29.8739V138.77L148.65 93.0503L99.9512 138.77Z" fill="#FDE282"/>
<path d="M324.333 0.789825V138.77" stroke="#FDE282" stroke-width="2" stroke-miterlimit="10"/>
<path d="M368.654 52.901V62.8718H385.708V72.7819H368.654V92.6323H358.714V42.991H388.535V52.901H368.654Z" fill="#FDE282"/>
<path d="M448.991 67.8724C448.991 53.9118 460.74 42.1018 474.67 42.1018C481.115 42.193 486.815 44.7389 492.005 49.7395L486.267 57.5596C482.893 54.2462 478.842 52.2247 474.579 52.2247C466.637 52.2247 459.053 59.2772 459.053 67.9332C459.053 76.7337 466.903 83.5507 474.541 83.5507C479.078 83.5507 483.007 81.1263 486.29 77.9041L491.998 85.9446C487.643 90.2688 482.331 93.5215 474.853 93.5215C460.588 93.5139 448.991 81.7647 448.991 67.8724Z" fill="#FDE282"/>
<path d="M585.231 52.901V62.5679H602.285V72.4779H585.231V82.6919H605.112V92.5715H575.291V43.1126H605.112V52.901H585.231Z" fill="#FDE282"/>
<path d="M622.348 52.901V62.5679H639.401V72.4779H622.348V82.6919H642.228V92.5715H612.407V43.1126H642.228V52.901H622.348Z" fill="#FDE282"/>
<path d="M674.467 92.5639L659.434 70.9048V92.5639H649.524V43.1126H659.434V64.4982L673.334 43.1126H684.81L668.949 67.3177L686.558 92.5639H674.467Z" fill="#FDE282"/>
<path d="M701.218 52.901V62.5679H718.272V72.4779H701.218V82.6919H721.099V92.5715H691.277V43.1126H721.099V52.901H701.218Z" fill="#FDE282"/>
<path d="M768.156 42.991V93.4835H767.692L738.334 64.9238V92.6247H728.394V42.193H728.888L758.185 70.6919V42.991H768.156Z" fill="#FDE282"/>
<path d="M816.87 67.9029C816.87 83.2391 807.112 92.5639 791.13 92.5639H776.744V43.143L791.13 43.1126C807.12 43.0822 816.87 52.4679 816.87 67.9029ZM806.839 67.8725C806.839 58.6084 800.888 52.9618 791.099 52.9618H786.654V82.6539H791.191C800.918 82.6539 806.839 77.0757 806.839 67.8725Z" fill="#FDE282"/>
<path d="M567.546 92.3207L544.625 71.2923L521.697 92.5639L521.689 43.1126H531.812L531.751 70.7984L544.625 59.3836L557.294 71.0567L557.552 43.1126H567.546V92.3207Z" fill="#FDE282"/>
<path d="M395.405 43.5002L418.326 64.5286L441.254 43.257L441.262 92.7083H431.132L431.2 65.0226L418.326 76.4373L405.657 64.7642L405.399 92.7083H395.405V43.5002Z" fill="#FDE282"/>
<path d="M362.878 12.653H363.904V28.5971H362.696V13.9829L359.01 15.1305L358.714 14.0817L362.878 12.653Z" fill="#FDE282"/>
<path d="M370.44 12.653H371.466V28.5971H370.258V13.9829L366.572 15.1305L366.275 14.0817L370.44 12.653Z" fill="#FDE282"/>
<path d="M377.865 15.0241H375.889V19.3407C375.889 19.7207 375.958 19.9943 376.102 20.1615C376.246 20.3287 376.459 20.4275 376.756 20.4503C377.044 20.4731 377.417 20.4579 377.873 20.4199V21.0202C376.976 21.1494 376.315 21.0886 375.874 20.8379C375.433 20.5795 375.22 20.0855 375.22 19.3483V15.0317H373.761V14.3781H375.22V12.7214L375.897 12.5238V14.3857H377.873V15.0241H377.865Z" fill="#FDE282"/>
<path d="M382.501 14.2261C383.291 14.2261 383.914 14.4693 384.378 14.9481C384.842 15.4269 385.077 16.0728 385.077 16.8784V21.005H384.401V16.8784C384.401 16.2552 384.234 15.7688 383.892 15.4041C383.55 15.0393 383.071 14.8569 382.448 14.8569C381.764 14.8569 381.209 15.0849 380.776 15.5333C380.343 15.9816 380.122 16.6428 380.122 17.5016V21.005H379.461V11.7182H380.122V15.6321C380.601 14.6897 381.391 14.2261 382.501 14.2261Z" fill="#FDE282"/>
<path d="M387.904 22.0994V21.0051H396.104V22.0994H387.904Z" fill="#FDE282"/>
<path d="M402.617 12.653H403.643V28.5971H402.435V13.9829L398.749 15.1305L398.453 14.0817L402.617 12.653Z" fill="#FDE282"/>
<path d="M412.216 19.2723C413.553 19.4091 414.663 19.8879 415.529 20.7087C416.395 21.5294 416.829 22.6238 416.829 23.9918C416.829 25.4813 416.319 26.6593 415.301 27.5332C414.283 28.4072 413.036 28.8404 411.57 28.8404C410.384 28.8404 409.335 28.5744 408.423 28.0424C407.511 27.5104 406.865 26.7656 406.485 25.8081L407.489 25.2153C407.777 26.0057 408.279 26.6137 408.993 27.0392C409.708 27.4648 410.566 27.6776 411.57 27.6776C412.755 27.6776 413.728 27.3432 414.488 26.6745C415.248 26.0057 415.628 25.1089 415.628 23.9842C415.628 22.8594 415.24 21.9626 414.473 21.2939C413.705 20.6251 412.717 20.2907 411.516 20.2907V20.2679L411.494 20.2831H411.174L410.658 19.4927L414.685 13.7777H406.896V12.6378H416.076L416.061 13.7625L412.216 19.2723Z" fill="#FDE282"/>
<path d="M422.324 15.0241H420.348V19.3407C420.348 19.7207 420.416 19.9943 420.56 20.1615C420.705 20.3287 420.918 20.4275 421.214 20.4503C421.503 20.4731 421.875 20.4579 422.331 20.4199V21.0202C421.434 21.1494 420.773 21.0886 420.332 20.8379C419.892 20.5795 419.679 20.0855 419.679 19.3483V15.0317H418.22V14.3781H419.679V12.7214L420.355 12.5238V14.3857H422.331V15.0241H422.324Z" fill="#FDE282"/>
<path d="M426.952 14.2261C427.742 14.2261 428.365 14.4693 428.829 14.9481C429.292 15.4269 429.528 16.0728 429.528 16.8784V21.005H428.851V16.8784C428.851 16.2552 428.684 15.7688 428.342 15.4041C428 15.0393 427.521 14.8569 426.898 14.8569C426.214 14.8569 425.66 15.0849 425.226 15.5333C424.793 15.9816 424.573 16.6428 424.573 17.5016V21.005H423.912V11.7182H424.573V15.6321C425.059 14.6897 425.85 14.2261 426.952 14.2261Z" fill="#FDE282"/>
<path d="M447.281 13.7929H439.651V20.1691H447.007V21.309H439.651V28.5971H438.442V12.653H447.281V13.7929Z" fill="#FDE282"/>
<path d="M455.139 16.9544C456.811 16.9544 458.164 17.5472 459.205 18.7327C460.246 19.9183 460.763 21.3242 460.763 22.943C460.763 23.0038 460.755 23.095 460.748 23.2166C460.74 23.3382 460.733 23.4294 460.733 23.4902H450.412C450.549 24.7669 451.058 25.7929 451.947 26.5756C452.836 27.3584 453.931 27.746 455.238 27.746C456.15 27.746 456.948 27.556 457.632 27.176C458.316 26.796 458.833 26.2945 459.182 25.6713L460.185 26.2641C459.714 27.0544 459.045 27.6776 458.179 28.1412C457.313 28.6048 456.325 28.8328 455.215 28.8328C453.467 28.8328 452.031 28.278 450.914 27.1608C449.789 26.0437 449.227 24.6225 449.227 22.8898C449.227 21.1874 449.774 19.7739 450.876 18.6415C451.993 17.5244 453.406 16.9544 455.139 16.9544ZM455.139 18.0488C453.847 18.0488 452.768 18.4515 451.902 19.2571C451.035 20.0627 450.541 21.1038 450.42 22.3806H459.577C459.456 21.0279 458.977 19.9715 458.133 19.2039C457.29 18.4287 456.287 18.0488 455.139 18.0488Z" fill="#FDE282"/>
<path d="M469.464 16.9544C471.106 16.9544 472.497 17.5244 473.644 18.6719C474.792 19.8195 475.362 21.2254 475.362 22.8974C475.362 24.5693 474.792 25.9752 473.644 27.1228C472.497 28.2704 471.106 28.8403 469.464 28.8403C468.385 28.8403 467.42 28.5819 466.561 28.0652C465.702 27.5484 465.041 26.8416 464.57 25.9448V28.5895H463.43V12.653H464.57V19.8499C465.041 18.9531 465.702 18.2463 466.561 17.7296C467.412 17.2128 468.385 16.9544 469.464 16.9544ZM465.968 26.34C466.903 27.2824 468.043 27.7536 469.396 27.7536C470.749 27.7536 471.889 27.2824 472.823 26.34C473.758 25.3977 474.222 24.2501 474.222 22.905C474.222 21.5522 473.758 20.4047 472.823 19.4699C471.889 18.5275 470.749 18.0563 469.396 18.0563C468.043 18.0563 466.903 18.5275 465.968 19.4699C465.034 20.4123 464.57 21.5598 464.57 22.905C464.563 24.2501 465.034 25.3977 465.968 26.34Z" fill="#FDE282"/>
<path d="M479.253 19.4395C479.937 17.8436 481.206 17.0456 483.053 17.0456V18.14C481.974 18.14 481.069 18.4819 480.34 19.1735C479.61 19.8651 479.245 20.891 479.245 22.259V28.5896H478.105V17.2052H479.245V19.4395H479.253Z" fill="#FDE282"/>
<path d="M493.555 17.2052H494.695V28.5896H493.555V26.4236C492.735 28.0348 491.374 28.8404 489.482 28.8404C488.129 28.8404 487.058 28.43 486.26 27.6016C485.462 26.7732 485.066 25.6713 485.066 24.2881V17.2052H486.229V24.2881C486.229 25.3521 486.518 26.1957 487.103 26.8188C487.688 27.442 488.509 27.7536 489.573 27.7536C490.743 27.7536 491.701 27.366 492.446 26.5908C493.19 25.8157 493.563 24.6909 493.563 23.2166V17.2052H493.555Z" fill="#FDE282"/>
<path d="M508.223 17.2052H509.386V28.5896H508.223V26.0209C507.737 26.9024 507.068 27.594 506.217 28.0956C505.365 28.5972 504.4 28.8479 503.321 28.8479C501.695 28.8479 500.304 28.278 499.157 27.1304C498.001 25.9829 497.424 24.5769 497.424 22.905C497.424 21.233 498.001 19.8271 499.157 18.6795C500.312 17.532 501.702 16.962 503.321 16.962C504.4 16.962 505.365 17.2128 506.217 17.7144C507.068 18.216 507.737 18.9075 508.223 19.7891V17.2052ZM499.992 26.34C500.927 27.2824 502.067 27.7536 503.42 27.7536C504.773 27.7536 505.913 27.2824 506.832 26.34C507.759 25.3977 508.223 24.2501 508.223 22.905C508.223 21.5522 507.759 20.4047 506.832 19.4699C505.905 18.5275 504.765 18.0564 503.42 18.0564C502.067 18.0564 500.927 18.5275 499.992 19.4699C499.058 20.4123 498.594 21.5598 498.594 22.905C498.587 24.2501 499.058 25.3977 499.992 26.34Z" fill="#FDE282"/>
<path d="M514.029 19.4395C514.713 17.8436 515.982 17.0456 517.829 17.0456V18.14C516.75 18.14 515.845 18.4819 515.116 19.1735C514.386 19.8651 514.021 20.891 514.021 22.259V28.5896H512.881V17.2052H514.021V19.4395H514.029Z" fill="#FDE282"/>
<path d="M528.697 17.2052H529.928L525.011 29.6383C524.57 30.7631 523.947 31.6446 523.141 32.2906C522.336 32.9366 521.454 33.2178 520.497 33.1418V32.0702C521.226 32.131 521.88 31.9258 522.465 31.4471C523.05 30.9683 523.521 30.2919 523.886 29.4103L524.129 28.7872L518.893 17.2052H520.124L524.714 27.3052L528.697 17.2052Z" fill="#FDE282"/>
<path d="M537.284 28.5895V27.4952L543.136 21.4838C544.853 19.7055 545.712 18.2007 545.712 16.9772C545.712 15.9132 545.378 15.0773 544.709 14.4693C544.04 13.8613 543.204 13.5573 542.201 13.5573C540.423 13.5573 539.154 14.3629 538.401 15.974L537.375 15.3584C537.847 14.4009 538.5 13.6713 539.344 13.1621C540.187 12.653 541.137 12.4022 542.201 12.4022C543.493 12.4022 544.603 12.8125 545.537 13.6333C546.472 14.4541 546.936 15.5712 546.936 16.9848C546.936 17.8892 546.67 18.7707 546.145 19.6295C545.621 20.4807 544.884 21.385 543.934 22.3426L539.002 27.442H547.301V28.6047H537.284V28.5895Z" fill="#FDE282"/>
<path d="M559.643 26.6136C558.594 28.1032 557.127 28.8479 555.25 28.8479C553.365 28.8479 551.906 28.1032 550.857 26.6136C549.809 25.1241 549.284 23.133 549.284 20.625C549.284 18.1171 549.809 16.126 550.857 14.6365C551.906 13.1469 553.373 12.4022 555.25 12.4022C557.135 12.4022 558.601 13.1469 559.643 14.6365C560.691 16.126 561.216 18.1247 561.216 20.625C561.216 23.1254 560.691 25.1241 559.643 26.6136ZM551.762 25.8232C552.598 27.062 553.76 27.6776 555.242 27.6776C556.732 27.6776 557.895 27.062 558.731 25.8232C559.567 24.5845 559.985 22.8518 559.985 20.6174C559.985 18.3831 559.567 16.6504 558.731 15.4116C557.895 14.1729 556.732 13.5573 555.242 13.5573C553.753 13.5573 552.59 14.1729 551.762 15.4116C550.926 16.6504 550.508 18.3831 550.508 20.6174C550.508 22.8518 550.933 24.5845 551.762 25.8232Z" fill="#FDE282"/>
<path d="M563.176 28.5895V27.4952L569.028 21.4838C570.746 19.7055 571.604 18.2007 571.604 16.9772C571.604 15.9132 571.27 15.0773 570.601 14.4693C569.932 13.8613 569.096 13.5573 568.093 13.5573C566.315 13.5573 565.046 14.3629 564.293 15.974L563.267 15.3584C563.739 14.4009 564.392 13.6713 565.236 13.1621C566.079 12.653 567.029 12.4022 568.093 12.4022C569.385 12.4022 570.495 12.8125 571.43 13.6333C572.364 14.4541 572.828 15.5712 572.828 16.9848C572.828 17.8892 572.562 18.7707 572.038 19.6295C571.513 20.4807 570.776 21.385 569.826 22.3426L564.894 27.442H573.193V28.6047H563.176V28.5895Z" fill="#FDE282"/>
<path d="M575.176 28.5895V27.4952L581.028 21.4838C582.746 19.7055 583.604 18.2007 583.604 16.9772C583.604 15.9132 583.27 15.0773 582.601 14.4693C581.932 13.8613 581.096 13.5573 580.093 13.5573C578.315 13.5573 577.046 14.3629 576.293 15.974L575.267 15.3584C575.739 14.4009 576.392 13.6713 577.236 13.1621C578.079 12.653 579.029 12.4022 580.093 12.4022C581.385 12.4022 582.495 12.8125 583.43 13.6333C584.364 14.4541 584.828 15.5712 584.828 16.9848C584.828 17.8892 584.562 18.7707 584.038 19.6295C583.513 20.4807 582.776 21.385 581.826 22.3426L576.894 27.442H585.193V28.6047H575.176V28.5895Z" fill="#FDE282"/>
<path d="M364.892 127.439L358.053 109.466H359.329L365.592 126.071L369.977 114.519L368.107 109.473H369.361L375.494 126.025L381.756 109.473H383.025L376.186 127.447H374.894L370.547 116.108L366.177 127.447H364.892V127.439Z" fill="#FDE282"/>
<path d="M394.927 127.439V109.466H396.105V117.491H408.401V109.466H409.587V127.439H408.401V118.555H396.105V127.439H394.927Z" fill="#FDE282"/>
<path d="M423.882 127.439V109.466H433.419V110.53H425.075V117.499H432.872V118.563H425.075V126.383H433.419V127.447H423.882V127.439Z" fill="#FDE282"/>
<path d="M446.148 127.439V109.466H451.286C454.721 109.466 456.856 110.925 456.856 114.337C456.856 117.316 454.827 118.745 452.525 119.117L459.539 127.439H458.004L451.164 119.269H447.326V127.439H446.148ZM447.334 118.221H451.271C453.687 118.221 455.678 117.005 455.678 114.337C455.678 111.67 454.052 110.53 451.271 110.53H447.334V118.221Z" fill="#FDE282"/>
<path d="M471.273 127.439V109.466H480.811V110.53H472.467V117.499H480.264V118.563H472.467V126.383H480.811V127.447H471.273V127.439Z" fill="#FDE282"/>
<path d="M506.49 127.439L508.801 109.466H510.055L516.978 125.531L523.924 109.466H525.178L527.488 127.439H526.31L524.281 111.411L517.381 127.439H516.613L509.697 111.411L507.668 127.439H506.49Z" fill="#FDE282"/>
<path d="M538.311 127.439L545.72 109.466H547.027L554.452 127.439H553.145L551.025 122.286H541.73L539.625 127.439H538.311ZM542.08 121.291H550.683L546.374 110.849L542.08 121.291Z" fill="#FDE282"/>
<path d="M564.704 118.456C564.704 112.962 568.512 109.063 573.763 109.063C577.441 109.063 580.474 110.978 581.864 114.025L580.755 114.398C579.516 111.776 576.894 110.157 573.763 110.157C569.203 110.157 565.905 113.585 565.905 118.464C565.905 123.343 569.203 126.755 573.763 126.755C578.133 126.755 581.249 123.966 581.294 119.839H573.793V118.859H582.533C582.533 124.559 579.022 127.857 573.763 127.857C568.504 127.857 564.704 123.951 564.704 118.456Z" fill="#FDE282"/>
<path d="M595.308 127.439V109.466H596.494V127.439H595.308Z" fill="#FDE282"/>
<path d="M609.671 118.456C609.671 112.962 613.479 109.063 618.73 109.063C622.401 109.063 625.418 111.008 626.824 114.025L625.722 114.497C624.483 111.829 621.877 110.15 618.73 110.15C614.178 110.15 610.872 113.577 610.872 118.456C610.872 123.328 614.186 126.747 618.73 126.747C621.915 126.747 624.536 125.037 625.76 122.324L626.862 122.796C625.494 125.835 622.439 127.842 618.73 127.842C613.479 127.849 609.671 123.951 609.671 118.456Z" fill="#FDE282"/>
<path d="M653.53 127.439V109.466H654.708V117.491H667.004V109.466H668.19V127.439H667.004V118.555H654.708V127.439H653.53Z" fill="#FDE282"/>
<path d="M680.151 127.439L687.561 109.466H688.868L696.293 127.439H694.986L692.866 122.286H683.571L681.466 127.439H680.151ZM683.921 121.291H692.524L688.215 110.849L683.921 121.291Z" fill="#FDE282"/>
<path d="M708.255 127.439V109.466H713.407C716.835 109.466 718.97 110.948 718.97 114.337C718.97 117.787 716.379 119.269 713.407 119.269H709.448V127.439H708.255ZM709.44 118.221H713.392C715.794 118.221 717.793 117.005 717.793 114.337C717.793 111.67 716.181 110.514 713.392 110.514H709.44V118.221Z" fill="#FDE282"/>
<path d="M731.602 127.439V109.466H736.754C740.182 109.466 742.317 110.948 742.317 114.337C742.317 117.787 739.726 119.269 736.754 119.269H732.795V127.439H731.602ZM732.795 118.221H736.747C739.148 118.221 741.147 117.005 741.147 114.337C741.147 111.67 739.536 110.514 736.747 110.514H732.795V118.221Z" fill="#FDE282"/>
<path d="M754.955 127.439V109.466H764.493V110.53H756.148V117.499H763.946V118.563H756.148V126.383H764.493V127.447H754.955V127.439Z" fill="#FDE282"/>
<path d="M777.215 127.439V109.466H778.393L791.419 125.547V109.466H792.604V127.439H791.419L778.393 111.35V127.439H777.215Z" fill="#FDE282"/>
<path d="M805.395 123.145L806.481 122.925C806.899 125.311 808.731 126.671 811.071 126.671C813.754 126.671 815.251 124.969 815.251 122.94C815.251 121.42 814.59 120.227 812.66 119.3L809.362 117.666C807.37 116.693 806.101 115.606 806.101 113.471C806.101 111.236 807.887 109.215 810.996 109.215C813.731 109.215 815.586 110.887 815.905 113.25L814.833 113.471C814.552 111.616 813.146 110.241 810.996 110.241C808.632 110.241 807.287 111.761 807.287 113.448C807.287 114.892 808.077 115.735 809.84 116.617L813.063 118.213C815.297 119.322 816.437 120.599 816.437 122.932C816.437 125.653 814.446 127.697 811.071 127.697C807.758 127.69 805.927 125.904 805.395 123.145Z" fill="#FDE282"/>
</svg>
