<svg width="1208" height="46" viewBox="0 0 1208 46" fill="none" xmlns="http://www.w3.org/2000/svg">
<path d="M65.7179 0H59.3389V0.000725584H65.7179V0Z" fill="#FCC907"/>
<path d="M30.5798 37.2745V0.00195312H0L4.87023 5.93796H24.6332V11.5511H9.47519L14.3454 17.4871H24.6332V30.0266L30.5798 37.2745Z" fill="#FCC907"/>
<path d="M68.4199 37.2725V0H98.9997L90.5645 9.78233H82.8787L86.4436 5.93673H74.3665V20.6567L78.7375 15.7191H86.424L68.4199 37.2725Z" fill="#FCC907"/>
<path d="M39.6623 0H33.2832V0.000725584H39.6623V0Z" fill="#FCC907"/>
<path d="M39.6623 9.32571V24.6783L33.2832 30.6572V0.00195312H65.7178V6.43281L59.3387 12.4116V9.32571L49.5009 18.0487L39.6623 9.32571Z" fill="#FCC907"/>
<path d="M33.2832 45.8722V33.8935L39.6623 27.9155V31.0014L49.5001 22.2784L59.3387 31.0014V15.648L65.7178 9.66992V45.8715L49.5001 30.6734L33.2832 45.8722Z" fill="#FCC907"/>
<path d="M304.386 25V12.31H312.828V14.146H306.6V17.638H312.432V19.474H306.6V23.164H312.828V25H304.386ZM319.142 25L313.489 12.31H315.956L320.15 22.048L324.344 12.31H326.72L321.068 25H319.142ZM327.906 25V12.31H336.348V14.146H330.12V17.638H335.952V19.474H330.12V23.164H336.348V25H327.906ZM338.646 25V12.31H340.374L347.196 21.166V12.31H349.338V25H347.628L340.788 16.108V25H338.646ZM355.171 25V14.236H350.815V12.31H361.831V14.236H357.475V25H355.171ZM367.242 25.18C366.246 25.18 365.322 25.054 364.47 24.802C363.618 24.538 362.898 24.184 362.31 23.74L363.012 21.922C363.6 22.342 364.242 22.666 364.938 22.894C365.646 23.122 366.414 23.236 367.242 23.236C368.19 23.236 368.88 23.08 369.312 22.768C369.744 22.444 369.96 22.03 369.96 21.526C369.96 21.106 369.804 20.776 369.492 20.536C369.192 20.296 368.67 20.098 367.926 19.942L365.946 19.528C363.69 19.048 362.562 17.89 362.562 16.054C362.562 15.262 362.772 14.572 363.192 13.984C363.612 13.396 364.194 12.94 364.938 12.616C365.682 12.292 366.54 12.13 367.512 12.13C368.376 12.13 369.186 12.262 369.942 12.526C370.698 12.778 371.328 13.138 371.832 13.606L371.13 15.334C370.134 14.494 368.922 14.074 367.494 14.074C366.666 14.074 366.018 14.248 365.55 14.596C365.082 14.944 364.848 15.4 364.848 15.964C364.848 16.396 364.992 16.744 365.28 17.008C365.568 17.26 366.06 17.458 366.756 17.602L368.718 18.016C369.906 18.268 370.788 18.664 371.364 19.204C371.952 19.744 372.246 20.464 372.246 21.364C372.246 22.12 372.042 22.786 371.634 23.362C371.226 23.938 370.644 24.388 369.888 24.712C369.144 25.024 368.262 25.18 367.242 25.18Z" fill="#FCC907"/>
<path d="M428.512 25V12.31H430.078L434.776 21.076L439.456 12.31H440.986V25H439.312V15.694L435.334 23.056H434.2L430.204 15.73V25H428.512ZM443.98 25V12.31H452.188V13.822H445.78V17.8H451.81V19.312H445.78V23.488H452.188V25H443.98ZM454.58 25V12.31H459.836C461.204 12.31 462.26 12.64 463.004 13.3C463.748 13.948 464.12 14.86 464.12 16.036C464.12 16.984 463.868 17.764 463.364 18.376C462.86 18.976 462.146 19.378 461.222 19.582C461.798 19.774 462.284 20.236 462.68 20.968L464.876 25H462.824L460.628 20.95C460.376 20.482 460.082 20.17 459.746 20.014C459.422 19.846 459.002 19.762 458.486 19.762H456.452V25H454.58ZM456.452 18.358H459.53C461.378 18.358 462.302 17.596 462.302 16.072C462.302 14.56 461.378 13.804 459.53 13.804H456.452V18.358ZM472.361 25.162C471.077 25.162 469.979 24.898 469.067 24.37C468.155 23.842 467.453 23.092 466.961 22.12C466.481 21.136 466.241 19.978 466.241 18.646C466.241 17.314 466.481 16.162 466.961 15.19C467.453 14.218 468.155 13.468 469.067 12.94C469.979 12.412 471.077 12.148 472.361 12.148C473.225 12.148 474.029 12.286 474.773 12.562C475.529 12.826 476.159 13.21 476.663 13.714L476.015 15.208C475.463 14.716 474.893 14.362 474.305 14.146C473.729 13.918 473.099 13.804 472.415 13.804C471.047 13.804 470.003 14.224 469.283 15.064C468.563 15.904 468.203 17.098 468.203 18.646C468.203 20.194 468.563 21.394 469.283 22.246C470.003 23.086 471.047 23.506 472.415 23.506C473.099 23.506 473.729 23.398 474.305 23.182C474.893 22.954 475.463 22.594 476.015 22.102L476.663 23.596C476.159 24.088 475.529 24.472 474.773 24.748C474.029 25.024 473.225 25.162 472.361 25.162ZM478.837 25V12.31H480.709V17.782H487.819V12.31H489.673V25H487.819V19.348H480.709V25H478.837ZM491.358 25L497.01 12.31H498.558L504.228 25H502.32L500.988 21.904H494.562L493.248 25H491.358ZM497.766 14.38L495.228 20.392H500.358L497.802 14.38H497.766ZM505.89 25V12.31H507.312L514.584 21.904V12.31H516.312V25H514.926L507.618 15.37V25H505.89ZM519.267 25V12.31H523.749C525.837 12.31 527.445 12.856 528.573 13.948C529.713 15.04 530.283 16.606 530.283 18.646C530.283 20.686 529.713 22.258 528.573 23.362C527.445 24.454 525.837 25 523.749 25H519.267ZM521.139 23.434H523.641C526.773 23.434 528.339 21.838 528.339 18.646C528.339 15.466 526.773 13.876 523.641 13.876H521.139V23.434ZM532.785 25V12.31H534.657V25H532.785ZM541.813 25.162C540.817 25.162 539.905 25.036 539.077 24.784C538.249 24.52 537.547 24.154 536.971 23.686L537.565 22.21C538.165 22.666 538.807 23.008 539.491 23.236C540.175 23.464 540.949 23.578 541.813 23.578C542.833 23.578 543.583 23.398 544.063 23.038C544.555 22.666 544.801 22.186 544.801 21.598C544.801 21.118 544.627 20.74 544.279 20.464C543.931 20.176 543.349 19.948 542.533 19.78L540.607 19.384C539.467 19.144 538.615 18.748 538.051 18.196C537.499 17.644 537.223 16.9 537.223 15.964C537.223 15.208 537.421 14.542 537.817 13.966C538.225 13.39 538.789 12.946 539.509 12.634C540.229 12.31 541.057 12.148 541.993 12.148C542.857 12.148 543.655 12.28 544.387 12.544C545.131 12.796 545.761 13.168 546.277 13.66L545.665 15.082C544.645 14.182 543.415 13.732 541.975 13.732C541.087 13.732 540.379 13.93 539.851 14.326C539.335 14.722 539.077 15.25 539.077 15.91C539.077 16.414 539.239 16.816 539.563 17.116C539.887 17.416 540.427 17.644 541.183 17.8L543.091 18.196C544.291 18.448 545.185 18.838 545.773 19.366C546.361 19.882 546.655 20.584 546.655 21.472C546.655 22.216 546.457 22.864 546.061 23.416C545.665 23.968 545.107 24.4 544.387 24.712C543.667 25.012 542.809 25.162 541.813 25.162ZM548.781 25V12.31H556.989V13.822H550.581V17.8H556.611V19.312H550.581V23.488H556.989V25H548.781Z" fill="#F9F4F5"/>
<path d="M616.572 25V13.876H612.072V12.31H622.926V13.876H618.426V25H616.572ZM624.48 25V12.31H632.688V13.822H626.28V17.8H632.31V19.312H626.28V23.488H632.688V25H624.48ZM633.555 25L639.207 12.31H640.755L646.425 25H644.517L643.185 21.904H636.759L635.445 25H633.555ZM639.963 14.38L637.425 20.392H642.555L639.999 14.38H639.963ZM648.123 25V12.31H649.689L654.387 21.076L659.067 12.31H660.597V25H658.923V15.694L654.945 23.056H653.811L649.815 15.73V25H648.123Z" fill="#F9F4F5"/>
<path d="M722.706 25.162C721.71 25.162 720.798 25.036 719.97 24.784C719.142 24.52 718.44 24.154 717.864 23.686L718.458 22.21C719.058 22.666 719.7 23.008 720.384 23.236C721.068 23.464 721.842 23.578 722.706 23.578C723.726 23.578 724.476 23.398 724.956 23.038C725.448 22.666 725.694 22.186 725.694 21.598C725.694 21.118 725.52 20.74 725.172 20.464C724.824 20.176 724.242 19.948 723.426 19.78L721.5 19.384C720.36 19.144 719.508 18.748 718.944 18.196C718.392 17.644 718.116 16.9 718.116 15.964C718.116 15.208 718.314 14.542 718.71 13.966C719.118 13.39 719.682 12.946 720.402 12.634C721.122 12.31 721.95 12.148 722.886 12.148C723.75 12.148 724.548 12.28 725.28 12.544C726.024 12.796 726.654 13.168 727.17 13.66L726.558 15.082C725.538 14.182 724.308 13.732 722.868 13.732C721.98 13.732 721.272 13.93 720.744 14.326C720.228 14.722 719.97 15.25 719.97 15.91C719.97 16.414 720.132 16.816 720.456 17.116C720.78 17.416 721.32 17.644 722.076 17.8L723.984 18.196C725.184 18.448 726.078 18.838 726.666 19.366C727.254 19.882 727.548 20.584 727.548 21.472C727.548 22.216 727.35 22.864 726.954 23.416C726.558 23.968 726 24.4 725.28 24.712C724.56 25.012 723.702 25.162 722.706 25.162ZM729.673 25V12.31H734.929C736.297 12.31 737.353 12.652 738.097 13.336C738.841 14.008 739.213 14.956 739.213 16.18C739.213 17.416 738.841 18.376 738.097 19.06C737.353 19.732 736.297 20.068 734.929 20.068H731.545V25H729.673ZM731.545 18.574H734.659C736.483 18.574 737.395 17.776 737.395 16.18C737.395 14.596 736.483 13.804 734.659 13.804H731.545V18.574ZM746.625 25.162C745.413 25.162 744.363 24.898 743.475 24.37C742.587 23.83 741.897 23.074 741.405 22.102C740.925 21.118 740.685 19.966 740.685 18.646C740.685 17.314 740.925 16.162 741.405 15.19C741.897 14.218 742.587 13.468 743.475 12.94C744.363 12.412 745.413 12.148 746.625 12.148C747.825 12.148 748.869 12.412 749.757 12.94C750.657 13.468 751.347 14.218 751.827 15.19C752.319 16.162 752.565 17.308 752.565 18.628C752.565 19.96 752.319 21.118 751.827 22.102C751.347 23.074 750.657 23.83 749.757 24.37C748.869 24.898 747.825 25.162 746.625 25.162ZM746.625 23.542C747.885 23.542 748.863 23.116 749.559 22.264C750.267 21.4 750.621 20.194 750.621 18.646C750.621 17.098 750.273 15.898 749.577 15.046C748.881 14.194 747.897 13.768 746.625 13.768C745.365 13.768 744.381 14.194 743.673 15.046C742.977 15.898 742.629 17.098 742.629 18.646C742.629 20.194 742.977 21.4 743.673 22.264C744.381 23.116 745.365 23.542 746.625 23.542ZM755.074 25V12.31H756.496L763.768 21.904V12.31H765.496V25H764.11L756.802 15.37V25H755.074ZM772.681 25.162C771.685 25.162 770.773 25.036 769.945 24.784C769.117 24.52 768.415 24.154 767.839 23.686L768.433 22.21C769.033 22.666 769.675 23.008 770.359 23.236C771.043 23.464 771.817 23.578 772.681 23.578C773.701 23.578 774.451 23.398 774.931 23.038C775.423 22.666 775.669 22.186 775.669 21.598C775.669 21.118 775.495 20.74 775.147 20.464C774.799 20.176 774.217 19.948 773.401 19.78L771.475 19.384C770.335 19.144 769.483 18.748 768.919 18.196C768.367 17.644 768.091 16.9 768.091 15.964C768.091 15.208 768.289 14.542 768.685 13.966C769.093 13.39 769.657 12.946 770.377 12.634C771.097 12.31 771.925 12.148 772.861 12.148C773.725 12.148 774.523 12.28 775.255 12.544C775.999 12.796 776.629 13.168 777.145 13.66L776.533 15.082C775.513 14.182 774.283 13.732 772.843 13.732C771.955 13.732 771.247 13.93 770.719 14.326C770.203 14.722 769.945 15.25 769.945 15.91C769.945 16.414 770.107 16.816 770.431 17.116C770.755 17.416 771.295 17.644 772.051 17.8L773.959 18.196C775.159 18.448 776.053 18.838 776.641 19.366C777.229 19.882 777.523 20.584 777.523 21.472C777.523 22.216 777.325 22.864 776.929 23.416C776.533 23.968 775.975 24.4 775.255 24.712C774.535 25.012 773.677 25.162 772.681 25.162ZM785.156 25.162C783.944 25.162 782.894 24.898 782.006 24.37C781.118 23.83 780.428 23.074 779.936 22.102C779.456 21.118 779.216 19.966 779.216 18.646C779.216 17.314 779.456 16.162 779.936 15.19C780.428 14.218 781.118 13.468 782.006 12.94C782.894 12.412 783.944 12.148 785.156 12.148C786.356 12.148 787.4 12.412 788.288 12.94C789.188 13.468 789.878 14.218 790.358 15.19C790.85 16.162 791.096 17.308 791.096 18.628C791.096 19.96 790.85 21.118 790.358 22.102C789.878 23.074 789.188 23.83 788.288 24.37C787.4 24.898 786.356 25.162 785.156 25.162ZM785.156 23.542C786.416 23.542 787.394 23.116 788.09 22.264C788.798 21.4 789.152 20.194 789.152 18.646C789.152 17.098 788.804 15.898 788.108 15.046C787.412 14.194 786.428 13.768 785.156 13.768C783.896 13.768 782.912 14.194 782.204 15.046C781.508 15.898 781.16 17.098 781.16 18.646C781.16 20.194 781.508 21.4 782.204 22.264C782.912 23.116 783.896 23.542 785.156 23.542ZM793.605 25V12.31H798.861C800.229 12.31 801.285 12.64 802.029 13.3C802.773 13.948 803.145 14.86 803.145 16.036C803.145 16.984 802.893 17.764 802.389 18.376C801.885 18.976 801.171 19.378 800.247 19.582C800.823 19.774 801.309 20.236 801.705 20.968L803.901 25H801.849L799.653 20.95C799.401 20.482 799.107 20.17 798.771 20.014C798.447 19.846 798.027 19.762 797.511 19.762H795.477V25H793.605ZM795.477 18.358H798.555C800.403 18.358 801.327 17.596 801.327 16.072C801.327 14.56 800.403 13.804 798.555 13.804H795.477V18.358ZM809.999 25.162C809.003 25.162 808.091 25.036 807.263 24.784C806.435 24.52 805.733 24.154 805.157 23.686L805.751 22.21C806.351 22.666 806.993 23.008 807.677 23.236C808.361 23.464 809.135 23.578 809.999 23.578C811.019 23.578 811.769 23.398 812.249 23.038C812.741 22.666 812.987 22.186 812.987 21.598C812.987 21.118 812.813 20.74 812.465 20.464C812.117 20.176 811.535 19.948 810.719 19.78L808.793 19.384C807.653 19.144 806.801 18.748 806.237 18.196C805.685 17.644 805.409 16.9 805.409 15.964C805.409 15.208 805.607 14.542 806.003 13.966C806.411 13.39 806.975 12.946 807.695 12.634C808.415 12.31 809.243 12.148 810.179 12.148C811.043 12.148 811.841 12.28 812.573 12.544C813.317 12.796 813.947 13.168 814.463 13.66L813.851 15.082C812.831 14.182 811.601 13.732 810.161 13.732C809.273 13.732 808.565 13.93 808.037 14.326C807.521 14.722 807.263 15.25 807.263 15.91C807.263 16.414 807.425 16.816 807.749 17.116C808.073 17.416 808.613 17.644 809.369 17.8L811.277 18.196C812.477 18.448 813.371 18.838 813.959 19.366C814.547 19.882 814.841 20.584 814.841 21.472C814.841 22.216 814.643 22.864 814.247 23.416C813.851 23.968 813.293 24.4 812.573 24.712C811.853 25.012 810.995 25.162 809.999 25.162Z" fill="#F9F4F5"/>
<path d="M871.476 25V12.31H879.54V13.822H873.348V17.872H879.162V19.384H873.348V25H871.476ZM879.163 25L884.815 12.31H886.363L892.033 25H890.125L888.793 21.904H882.367L881.053 25H879.163ZM885.571 14.38L883.033 20.392H888.163L885.607 14.38H885.571ZM902.431 28.708L900.811 26.098C900.427 25.474 899.803 25.162 898.939 25.162C897.739 25.162 896.695 24.898 895.807 24.37C894.919 23.83 894.229 23.074 893.737 22.102C893.257 21.118 893.017 19.966 893.017 18.646C893.017 17.314 893.257 16.162 893.737 15.19C894.229 14.218 894.919 13.468 895.807 12.94C896.695 12.412 897.745 12.148 898.957 12.148C900.157 12.148 901.201 12.412 902.089 12.94C902.989 13.468 903.679 14.218 904.159 15.19C904.651 16.162 904.897 17.308 904.897 18.628C904.897 20.128 904.585 21.406 903.961 22.462C903.349 23.506 902.503 24.256 901.423 24.712C901.915 24.868 902.353 25.276 902.737 25.936L903.997 27.934L902.431 28.708ZM898.957 23.542C900.217 23.542 901.195 23.116 901.891 22.264C902.599 21.4 902.953 20.194 902.953 18.646C902.953 17.098 902.605 15.898 901.909 15.046C901.213 14.194 900.229 13.768 898.957 13.768C897.697 13.768 896.713 14.194 896.005 15.046C895.309 15.898 894.961 17.098 894.961 18.646C894.961 20.194 895.309 21.4 896.005 22.264C896.713 23.116 897.697 23.542 898.957 23.542Z" fill="#F9F4F5"/>
<rect x="1094" width="114" height="40" rx="4" fill="#FCC907"/>
<path d="M1123.26 25.68C1122.26 25.68 1121.34 25.554 1120.49 25.302C1119.64 25.038 1118.92 24.684 1118.33 24.24L1119.03 22.422C1119.62 22.842 1120.26 23.166 1120.96 23.394C1121.66 23.622 1122.43 23.736 1123.26 23.736C1124.21 23.736 1124.9 23.58 1125.33 23.268C1125.76 22.944 1125.98 22.53 1125.98 22.026C1125.98 21.606 1125.82 21.276 1125.51 21.036C1125.21 20.796 1124.69 20.598 1123.94 20.442L1121.96 20.028C1119.71 19.548 1118.58 18.39 1118.58 16.554C1118.58 15.762 1118.79 15.072 1119.21 14.484C1119.63 13.896 1120.21 13.44 1120.96 13.116C1121.7 12.792 1122.56 12.63 1123.53 12.63C1124.39 12.63 1125.2 12.762 1125.96 13.026C1126.72 13.278 1127.35 13.638 1127.85 14.106L1127.15 15.834C1126.15 14.994 1124.94 14.574 1123.51 14.574C1122.68 14.574 1122.04 14.748 1121.57 15.096C1121.1 15.444 1120.87 15.9 1120.87 16.464C1120.87 16.896 1121.01 17.244 1121.3 17.508C1121.59 17.76 1122.08 17.958 1122.77 18.102L1124.74 18.516C1125.92 18.768 1126.81 19.164 1127.38 19.704C1127.97 20.244 1128.26 20.964 1128.26 21.864C1128.26 22.62 1128.06 23.286 1127.65 23.862C1127.24 24.438 1126.66 24.888 1125.91 25.212C1125.16 25.524 1124.28 25.68 1123.26 25.68ZM1130.24 25.5V12.81H1132.55V25.5H1130.24ZM1141.41 25.68C1140 25.68 1138.81 25.416 1137.84 24.888C1136.88 24.36 1136.15 23.61 1135.65 22.638C1135.14 21.666 1134.89 20.514 1134.89 19.182C1134.89 17.838 1135.15 16.68 1135.66 15.708C1136.18 14.724 1136.92 13.968 1137.9 13.44C1138.87 12.9 1140.03 12.63 1141.39 12.63C1142.28 12.63 1143.11 12.762 1143.89 13.026C1144.67 13.278 1145.32 13.632 1145.83 14.088L1145.06 15.888C1144.5 15.444 1143.92 15.126 1143.33 14.934C1142.74 14.742 1142.1 14.646 1141.39 14.646C1140.04 14.646 1139.02 15.036 1138.33 15.816C1137.64 16.596 1137.3 17.718 1137.3 19.182C1137.3 20.658 1137.66 21.78 1138.36 22.548C1139.07 23.316 1140.12 23.7 1141.51 23.7C1141.91 23.7 1142.31 23.67 1142.72 23.61C1143.14 23.538 1143.55 23.436 1143.96 23.304V20.352H1141.05V18.642H1145.89V24.744C1145.3 25.032 1144.6 25.26 1143.8 25.428C1143 25.596 1142.2 25.68 1141.41 25.68ZM1148.56 25.5V12.81H1150.29L1157.11 21.666V12.81H1159.25V25.5H1157.54L1150.7 16.608V25.5H1148.56ZM1166.87 25.5V12.81H1169.18V25.5H1166.87ZM1171.94 25.5V12.81H1173.66L1180.49 21.666V12.81H1182.63V25.5H1180.92L1174.08 16.608V25.5H1171.94Z" fill="#1D033E"/>
</svg>
