<svg width="255" height="15" viewBox="0 0 255 15" fill="none" xmlns="http://www.w3.org/2000/svg">
<g clip-path="url(#clip0_861_692)">
<path d="M233.766 7.32927C232.89 7.32927 228.942 6.94836 202.089 6.94836H190.92C189.975 4.89725 188.333 3.22696 186.272 2.21981C183.685 0.827518 180.222 0.446607 177.298 0.13137C173.91 -0.208331 170.486 0.167993 167.26 1.2347C163.812 2.44247 160.473 3.92743 157.277 5.67428L154.744 6.98776H129.804C129.681 6.0788 129.795 5.1542 130.137 4.29992C130.478 3.44564 131.036 2.68943 131.758 2.1016C132.141 1.75189 132.604 1.49487 133.108 1.35125C133.612 1.20762 134.144 1.18139 134.66 1.27467C135.177 1.36795 135.663 1.57813 136.081 1.8883C136.499 2.19847 136.837 2.59996 137.066 3.06044C137.336 3.67575 137.374 4.3643 137.174 5.0044C136.905 5.98951 134.87 7.09284 134.277 5.5692C134.129 5.17515 132.633 5.05694 132.782 5.43785C133.577 7.47375 137.39 7.32927 138.508 5.70055C138.771 5.16942 138.874 4.57632 138.805 3.99031C138.736 3.4043 138.497 2.84951 138.117 2.39057C137.419 1.64927 136.528 1.10579 135.539 0.817654C134.55 0.529516 133.499 0.507435 132.498 0.753747C131.497 1.00006 130.583 1.5056 129.853 2.21687C129.122 2.92814 128.603 3.81868 128.349 4.79424C128.188 5.51702 128.188 6.26499 128.349 6.98776H125.978C126.167 5.60429 125.826 4.2014 125.021 3.04731C124.232 1.9711 123.099 1.17997 121.8 0.797406C120.501 0.414842 119.108 0.462379 117.84 0.932597C115.185 1.87831 114.525 5.31964 117.22 6.56745C118.567 7.17165 120.992 7.02717 121.545 5.59547C121.679 5.25396 120.197 4.88619 120.022 5.3065C119.903 5.54641 119.721 5.75156 119.495 5.90145C119.268 6.05135 119.006 6.14073 118.733 6.16068C118.46 6.18062 118.187 6.13042 117.94 6.0151C117.694 5.89979 117.482 5.72338 117.328 5.50353C117.167 5.2045 117.071 4.87656 117.045 4.53995C117.02 4.20334 117.066 3.8652 117.179 3.54643C117.339 3.08033 117.598 2.65244 117.939 2.29091C118.281 1.92938 118.696 1.64239 119.16 1.44884C119.623 1.25528 120.123 1.15954 120.627 1.16791C121.131 1.17628 121.627 1.28857 122.084 1.4974C123.036 2.02512 123.785 2.84257 124.216 3.82464C124.647 4.80671 124.735 5.89931 124.469 6.93522H99.4885L94.9884 4.7023C91.6203 2.90858 88.0478 1.50668 84.3443 0.525416C81.335 -0.106723 78.2292 -0.169151 75.1958 0.341528H75.1149C74.9997 0.315219 74.8798 0.315219 74.7646 0.341528H74.6433C73.8888 0.459742 73.1478 0.577956 72.4202 0.735574C72.363 0.719154 72.3022 0.719154 72.245 0.735574C69.9022 1.14008 67.6961 2.09594 65.8182 3.52016C64.7189 4.39062 63.8811 5.53416 63.3929 6.83014H52.9106C26.0578 6.83014 22.4334 7.19792 21.5576 7.21106C19.6579 7.35554 19.6579 7.88093 21.5576 7.88093C22.366 7.88093 26.1387 8.24871 52.9106 8.24871H63.0831C62.9304 9.48947 63.2003 10.7448 63.851 11.8214C64.6225 12.9511 65.7731 13.7839 67.1055 14.1769C68.438 14.57 69.8692 14.4988 71.1537 13.9755C73.7137 13.0692 74.7242 9.65414 72.016 8.35379L71.7331 8.24871H90.2726L94.3147 10.2452C97.5546 12.0273 100.995 13.4378 104.568 14.4484C107.846 15.1765 111.241 15.2569 114.552 14.6848C117.719 14.4169 120.749 13.3035 123.31 11.4667C124.356 10.6192 125.155 9.5185 125.627 8.27498H128.713C129.657 10.0673 131.118 11.5512 132.916 12.5438C135.422 14.0149 138.791 14.4221 141.674 14.803C145.065 15.2424 148.514 14.9555 151.779 13.9624C155.375 12.764 158.848 11.2426 162.154 9.41771L164.444 8.27498H182.863C182.1 8.44113 181.42 8.85866 180.936 9.45712C180.681 9.99172 180.585 10.5853 180.659 11.1704C180.733 11.7555 180.974 12.3086 181.354 12.7671C181.837 13.2842 182.423 13.7 183.076 13.989C183.729 14.2781 184.436 14.4344 185.153 14.4484C186.521 14.5553 187.883 14.175 188.985 13.378C190.088 12.581 190.857 11.4212 191.149 10.1139C191.322 9.51652 191.382 8.89322 191.324 8.27498H202.103C228.861 8.27498 232.944 7.88093 233.766 7.88093C235.665 7.88093 235.665 7.35554 233.766 7.32927ZM112.625 14.1857H112.517C108.368 13.8967 104.352 11.8871 100.755 10.127L97.0903 8.27498H100.257C104.676 10.5079 109.297 13.0429 114.323 13.8967C113.757 14.0018 113.178 14.1069 112.625 14.1857ZM83.0508 0.893192C88.2381 1.90458 93.0482 4.51841 97.6966 6.94836H94.4764L92.9674 6.18654C88.4537 3.94048 83.6437 1.39232 78.4833 0.591091C80.0127 0.508389 81.5468 0.609856 83.0508 0.893192ZM75.5461 0.893192H75.8155C79.7498 0.893192 83.7649 2.48251 87.1872 4.11123C89.0915 4.98689 90.9778 5.91508 92.8461 6.89582H89.1409C84.6003 4.66289 79.8172 1.93085 74.6433 1.05081L75.5461 0.893192ZM69.1192 9.54906C69.6716 8.1305 71.7331 9.02367 72.0429 10.1927C72.162 10.842 72.0578 11.5115 71.7465 12.0972C70.8707 14.0149 68.1626 14.1725 66.5188 13.0167C65.7859 12.4746 65.2242 11.7425 64.8978 10.9041C64.5714 10.0656 64.4935 9.15456 64.6729 8.27498H69.1596C68.8174 8.34944 68.4974 8.49949 68.2241 8.71355C67.9508 8.9276 67.7315 9.19997 67.5832 9.50965C67.435 9.78549 68.944 9.98251 69.1192 9.54906ZM64.9963 6.92209C65.2435 6.29196 65.5889 5.70273 66.0203 5.17515C67.7748 3.15378 70.2203 1.81948 72.9052 1.41859H72.9861C77.3785 1.73382 81.4879 3.8748 85.2739 5.75309L87.6318 6.93522L64.9963 6.92209ZM106.643 14.2119C101.334 13.3976 96.4031 10.7181 91.7008 8.24871H95.4734C100.095 10.5736 104.905 13.345 110.187 14.3695C109.004 14.4379 107.817 14.3939 106.643 14.2382V14.2119ZM123.404 9.3389C121.628 11.5831 119.04 13.0818 116.169 13.5289H116.048C111.83 13.1349 107.667 11.0333 103.962 9.19442L102.116 8.27498H123.957C123.81 8.64698 123.625 9.00346 123.404 9.3389ZM164.754 6.94836H161.682C166.977 4.17691 172.879 0.880057 178.969 0.945732L179.36 1.01141C174.24 1.82577 169.537 4.50528 165.051 6.76447L164.754 6.94836ZM171.693 0.814383C172.972 0.58019 174.275 0.496403 175.574 0.564821C170.184 1.33978 165.172 4.11123 160.47 6.46237L159.5 6.94836H156.657C161.44 4.47901 166.317 1.86517 171.693 0.814383ZM141.243 14.1594C140.758 14.1594 140.273 14.028 139.788 13.9492C144.894 13.1349 149.556 10.5079 154.083 8.27498H156.872C155.673 8.87918 154.474 9.48339 153.261 10.0745C149.57 11.8871 145.501 13.8573 141.257 14.1594H141.243ZM131.111 9.9037C130.702 9.41406 130.374 8.86436 130.141 8.27498H152.103L148.775 9.92997C145.386 11.8066 141.666 13.0453 137.807 13.5815C135.214 13.126 132.854 11.8301 131.111 9.9037ZM148.209 14.028C147.037 14.2808 145.839 14.4042 144.638 14.3958C149.799 13.3713 154.609 10.5998 159.163 8.27498H162.248C157.856 10.8006 153.133 12.7358 148.209 14.028ZM170.71 5.17515C174.105 3.52016 177.824 1.76009 181.717 1.44486C184.45 1.92753 186.908 3.36609 188.629 5.49039C188.974 5.93314 189.246 6.42487 189.438 6.94836H167.072C168.257 6.35729 169.457 5.75309 170.656 5.17515H170.71ZM187.498 13.2137C187.087 13.5084 186.613 13.708 186.111 13.7974C185.61 13.8867 185.094 13.8633 184.603 13.7291C184.112 13.5949 183.658 13.3533 183.278 13.0227C182.897 12.6922 182.598 12.2813 182.405 11.8214C182.248 11.4758 182.168 11.1023 182.168 10.7246C182.168 10.347 182.248 9.97344 182.405 9.62787C182.537 9.39223 182.732 9.19562 182.969 9.05866C183.206 8.92171 183.476 8.84944 183.752 8.84944C184.028 8.84944 184.298 8.92171 184.535 9.05866C184.772 9.19562 184.967 9.39223 185.099 9.62787C185.234 9.98251 186.77 9.92997 186.608 9.50965C186.493 9.22311 186.311 8.9663 186.077 8.75906C185.844 8.55181 185.565 8.39967 185.261 8.31438H189.599C189.709 9.24329 189.567 10.1839 189.189 11.0431C188.811 11.9024 188.209 12.6505 187.444 13.2137H187.498Z" fill="#FCC907"/>
</g>
<defs>
<clipPath id="clip0_861_692">
<rect width="255" height="15" fill="white"/>
</clipPath>
</defs>
</svg>
