<svg width="865" height="187" viewBox="0 0 865 187" fill="none" xmlns="http://www.w3.org/2000/svg">
<g filter="url(#filter0_d_938_2710)">
<path d="M114.827 135.908V23.7898H23L37.6218 41.6491H96.9756V58.5281H51.4533L66.0752 76.3874H96.9756V114.105L114.827 135.908Z" fill="#FDE282"/>
<path d="M228.466 135.908V23.7898H320.293L294.963 53.2159H271.883L282.591 41.6491H246.318V85.9251L259.45 71.0752H282.53L228.466 135.908Z" fill="#FDE282"/>
<path d="M142.102 51.8404V98.0162L122.951 116.005V23.7898H220.349V43.1387L201.19 61.1196V51.8404L171.65 78.0746L142.102 51.8404Z" fill="#FDE282"/>
<path d="M122.951 161.77V125.74L142.102 107.759V117.038L171.65 90.8041L201.19 117.038V70.8624L220.349 52.8739V161.77L171.65 116.05L122.951 161.77Z" fill="#FDE282"/>
<path d="M347.333 23.7898V161.77" stroke="#FDE282" stroke-width="2" stroke-miterlimit="10"/>
<path d="M391.654 75.901V85.8718H408.708V95.7819H391.654V115.632H381.714V65.991H411.535V75.901H391.654Z" fill="#FDE282"/>
<path d="M471.991 90.8724C471.991 76.9118 483.74 65.1018 497.67 65.1018C504.115 65.193 509.815 67.7389 515.005 72.7395L509.267 80.5596C505.893 77.2462 501.842 75.2247 497.579 75.2247C489.637 75.2247 482.053 82.2772 482.053 90.9332C482.053 99.7337 489.903 106.551 497.541 106.551C502.078 106.551 506.007 104.126 509.29 100.904L514.998 108.945C510.643 113.269 505.331 116.521 497.853 116.521C483.588 116.514 471.991 104.765 471.991 90.8724Z" fill="#FDE282"/>
<path d="M608.231 75.901V85.5679H625.285V95.4779H608.231V105.692H628.112V115.572H598.291V66.1126H628.112V75.901H608.231Z" fill="#FDE282"/>
<path d="M645.348 75.901V85.5679H662.401V95.4779H645.348V105.692H665.228V115.572H635.407V66.1126H665.228V75.901H645.348Z" fill="#FDE282"/>
<path d="M697.467 115.564L682.434 93.9048V115.564H672.524V66.1126H682.434V87.4982L696.334 66.1126H707.81L691.949 90.3177L709.558 115.564H697.467Z" fill="#FDE282"/>
<path d="M724.218 75.901V85.5679H741.272V95.4779H724.218V105.692H744.099V115.572H714.277V66.1126H744.099V75.901H724.218Z" fill="#FDE282"/>
<path d="M791.156 65.991V116.483H790.692L761.334 87.9238V115.625H751.394V65.193H751.888L781.185 93.6919V65.991H791.156Z" fill="#FDE282"/>
<path d="M839.87 90.9029C839.87 106.239 830.112 115.564 814.13 115.564H799.744V66.143L814.13 66.1126C830.12 66.0822 839.87 75.4679 839.87 90.9029ZM829.839 90.8725C829.839 81.6084 823.888 75.9618 814.099 75.9618H809.654V105.654H814.191C823.918 105.654 829.839 100.076 829.839 90.8725Z" fill="#FDE282"/>
<path d="M590.546 115.321L567.625 94.2923L544.697 115.564L544.689 66.1126H554.812L554.751 93.7984L567.625 82.3836L580.294 94.0567L580.552 66.1126H590.546V115.321Z" fill="#FDE282"/>
<path d="M418.405 66.5002L441.326 87.5286L464.254 66.257L464.262 115.708H454.132L454.2 88.0226L441.326 99.4373L428.657 87.7642L428.399 115.708H418.405V66.5002Z" fill="#FDE282"/>
<path d="M385.878 35.653H386.904V51.5971H385.696V36.9829L382.01 38.1305L381.714 37.0817L385.878 35.653Z" fill="#FDE282"/>
<path d="M393.44 35.653H394.466V51.5971H393.258V36.9829L389.572 38.1305L389.275 37.0817L393.44 35.653Z" fill="#FDE282"/>
<path d="M400.865 38.0241H398.889V42.3407C398.889 42.7207 398.958 42.9943 399.102 43.1615C399.246 43.3287 399.459 43.4275 399.756 43.4503C400.044 43.4731 400.417 43.4579 400.873 43.4199V44.0202C399.976 44.1494 399.315 44.0886 398.874 43.8379C398.433 43.5795 398.22 43.0855 398.22 42.3483V38.0317H396.761V37.3781H398.22V35.7214L398.897 35.5238V37.3857H400.873V38.0241H400.865Z" fill="#FDE282"/>
<path d="M405.501 37.2261C406.291 37.2261 406.914 37.4693 407.378 37.9481C407.842 38.4269 408.077 39.0728 408.077 39.8784V44.005H407.401V39.8784C407.401 39.2552 407.234 38.7688 406.892 38.4041C406.55 38.0393 406.071 37.8569 405.448 37.8569C404.764 37.8569 404.209 38.0849 403.776 38.5333C403.343 38.9816 403.122 39.6428 403.122 40.5016V44.005H402.461V34.7182H403.122V38.6321C403.601 37.6897 404.391 37.2261 405.501 37.2261Z" fill="#FDE282"/>
<path d="M410.904 45.0994V44.0051H419.104V45.0994H410.904Z" fill="#FDE282"/>
<path d="M425.617 35.653H426.643V51.5971H425.435V36.9829L421.749 38.1305L421.453 37.0817L425.617 35.653Z" fill="#FDE282"/>
<path d="M435.216 42.2723C436.553 42.4091 437.663 42.8879 438.529 43.7087C439.395 44.5294 439.829 45.6238 439.829 46.9918C439.829 48.4813 439.319 49.6593 438.301 50.5332C437.283 51.4072 436.036 51.8404 434.57 51.8404C433.384 51.8404 432.335 51.5744 431.423 51.0424C430.511 50.5104 429.865 49.7656 429.485 48.8081L430.489 48.2153C430.777 49.0057 431.279 49.6137 431.993 50.0392C432.708 50.4648 433.566 50.6776 434.57 50.6776C435.755 50.6776 436.728 50.3432 437.488 49.6745C438.248 49.0057 438.628 48.1089 438.628 46.9842C438.628 45.8594 438.24 44.9626 437.473 44.2939C436.705 43.6251 435.717 43.2907 434.516 43.2907V43.2679L434.494 43.2831H434.174L433.658 42.4927L437.685 36.7777H429.896V35.6378H439.076L439.061 36.7625L435.216 42.2723Z" fill="#FDE282"/>
<path d="M445.324 38.0241H443.348V42.3407C443.348 42.7207 443.416 42.9943 443.56 43.1615C443.705 43.3287 443.918 43.4275 444.214 43.4503C444.503 43.4731 444.875 43.4579 445.331 43.4199V44.0202C444.434 44.1494 443.773 44.0886 443.332 43.8379C442.892 43.5795 442.679 43.0855 442.679 42.3483V38.0317H441.22V37.3781H442.679V35.7214L443.355 35.5238V37.3857H445.331V38.0241H445.324Z" fill="#FDE282"/>
<path d="M449.952 37.2261C450.742 37.2261 451.365 37.4693 451.829 37.9481C452.292 38.4269 452.528 39.0728 452.528 39.8784V44.005H451.851V39.8784C451.851 39.2552 451.684 38.7688 451.342 38.4041C451 38.0393 450.521 37.8569 449.898 37.8569C449.214 37.8569 448.66 38.0849 448.226 38.5333C447.793 38.9816 447.573 39.6428 447.573 40.5016V44.005H446.912V34.7182H447.573V38.6321C448.059 37.6897 448.85 37.2261 449.952 37.2261Z" fill="#FDE282"/>
<path d="M470.281 36.7929H462.651V43.1691H470.007V44.309H462.651V51.5971H461.442V35.653H470.281V36.7929Z" fill="#FDE282"/>
<path d="M478.139 39.9544C479.811 39.9544 481.164 40.5472 482.205 41.7327C483.246 42.9183 483.763 44.3242 483.763 45.943C483.763 46.0038 483.755 46.095 483.748 46.2166C483.74 46.3382 483.733 46.4294 483.733 46.4902H473.412C473.549 47.7669 474.058 48.7929 474.947 49.5756C475.836 50.3584 476.931 50.746 478.238 50.746C479.15 50.746 479.948 50.556 480.632 50.176C481.316 49.796 481.833 49.2945 482.182 48.6713L483.185 49.2641C482.714 50.0544 482.045 50.6776 481.179 51.1412C480.313 51.6048 479.325 51.8328 478.215 51.8328C476.467 51.8328 475.031 51.278 473.914 50.1608C472.789 49.0437 472.227 47.6225 472.227 45.8898C472.227 44.1874 472.774 42.7739 473.876 41.6415C474.993 40.5244 476.406 39.9544 478.139 39.9544ZM478.139 41.0488C476.847 41.0488 475.768 41.4515 474.902 42.2571C474.035 43.0627 473.541 44.1038 473.42 45.3806H482.577C482.456 44.0279 481.977 42.9715 481.133 42.2039C480.29 41.4287 479.287 41.0488 478.139 41.0488Z" fill="#FDE282"/>
<path d="M492.464 39.9544C494.106 39.9544 495.497 40.5244 496.644 41.6719C497.792 42.8195 498.362 44.2254 498.362 45.8974C498.362 47.5693 497.792 48.9752 496.644 50.1228C495.497 51.2704 494.106 51.8403 492.464 51.8403C491.385 51.8403 490.42 51.5819 489.561 51.0652C488.702 50.5484 488.041 49.8416 487.57 48.9448V51.5895H486.43V35.653H487.57V42.8499C488.041 41.9531 488.702 41.2463 489.561 40.7296C490.412 40.2128 491.385 39.9544 492.464 39.9544ZM488.968 49.34C489.903 50.2824 491.043 50.7536 492.396 50.7536C493.749 50.7536 494.889 50.2824 495.823 49.34C496.758 48.3977 497.222 47.2501 497.222 45.905C497.222 44.5522 496.758 43.4047 495.823 42.4699C494.889 41.5275 493.749 41.0563 492.396 41.0563C491.043 41.0563 489.903 41.5275 488.968 42.4699C488.034 43.4123 487.57 44.5598 487.57 45.905C487.563 47.2501 488.034 48.3977 488.968 49.34Z" fill="#FDE282"/>
<path d="M502.253 42.4395C502.937 40.8436 504.206 40.0456 506.053 40.0456V41.14C504.974 41.14 504.069 41.4819 503.34 42.1735C502.61 42.8651 502.245 43.891 502.245 45.259V51.5896H501.105V40.2052H502.245V42.4395H502.253Z" fill="#FDE282"/>
<path d="M516.555 40.2052H517.695V51.5896H516.555V49.4236C515.735 51.0348 514.374 51.8404 512.482 51.8404C511.129 51.8404 510.058 51.43 509.26 50.6016C508.462 49.7732 508.066 48.6713 508.066 47.2881V40.2052H509.229V47.2881C509.229 48.3521 509.518 49.1957 510.103 49.8188C510.688 50.442 511.509 50.7536 512.573 50.7536C513.743 50.7536 514.701 50.366 515.446 49.5908C516.19 48.8157 516.563 47.6909 516.563 46.2166V40.2052H516.555Z" fill="#FDE282"/>
<path d="M531.223 40.2052H532.386V51.5896H531.223V49.0209C530.737 49.9024 530.068 50.594 529.217 51.0956C528.365 51.5972 527.4 51.8479 526.321 51.8479C524.695 51.8479 523.304 51.278 522.157 50.1304C521.001 48.9829 520.424 47.5769 520.424 45.905C520.424 44.233 521.001 42.8271 522.157 41.6795C523.312 40.532 524.702 39.962 526.321 39.962C527.4 39.962 528.365 40.2128 529.217 40.7144C530.068 41.216 530.737 41.9075 531.223 42.7891V40.2052ZM522.992 49.34C523.927 50.2824 525.067 50.7536 526.42 50.7536C527.773 50.7536 528.913 50.2824 529.832 49.34C530.759 48.3977 531.223 47.2501 531.223 45.905C531.223 44.5522 530.759 43.4047 529.832 42.4699C528.905 41.5275 527.765 41.0564 526.42 41.0564C525.067 41.0564 523.927 41.5275 522.992 42.4699C522.058 43.4123 521.594 44.5598 521.594 45.905C521.587 47.2501 522.058 48.3977 522.992 49.34Z" fill="#FDE282"/>
<path d="M537.029 42.4395C537.713 40.8436 538.982 40.0456 540.829 40.0456V41.14C539.75 41.14 538.845 41.4819 538.116 42.1735C537.386 42.8651 537.021 43.891 537.021 45.259V51.5896H535.881V40.2052H537.021V42.4395H537.029Z" fill="#FDE282"/>
<path d="M551.697 40.2052H552.928L548.011 52.6383C547.57 53.7631 546.947 54.6446 546.141 55.2906C545.336 55.9366 544.454 56.2178 543.497 56.1418V55.0702C544.226 55.131 544.88 54.9258 545.465 54.4471C546.05 53.9683 546.521 53.2919 546.886 52.4103L547.129 51.7872L541.893 40.2052H543.124L547.714 50.3052L551.697 40.2052Z" fill="#FDE282"/>
<path d="M560.284 51.5895V50.4952L566.136 44.4838C567.853 42.7055 568.712 41.2007 568.712 39.9772C568.712 38.9132 568.378 38.0773 567.709 37.4693C567.04 36.8613 566.204 36.5573 565.201 36.5573C563.423 36.5573 562.154 37.3629 561.401 38.974L560.375 38.3584C560.847 37.4009 561.5 36.6713 562.344 36.1621C563.187 35.653 564.137 35.4022 565.201 35.4022C566.493 35.4022 567.603 35.8125 568.537 36.6333C569.472 37.4541 569.936 38.5712 569.936 39.9848C569.936 40.8892 569.67 41.7707 569.145 42.6295C568.621 43.4807 567.884 44.385 566.934 45.3426L562.002 50.442H570.301V51.6047H560.284V51.5895Z" fill="#FDE282"/>
<path d="M582.643 49.6136C581.594 51.1032 580.127 51.8479 578.25 51.8479C576.365 51.8479 574.906 51.1032 573.857 49.6136C572.809 48.1241 572.284 46.133 572.284 43.625C572.284 41.1171 572.809 39.126 573.857 37.6365C574.906 36.1469 576.373 35.4022 578.25 35.4022C580.135 35.4022 581.601 36.1469 582.643 37.6365C583.691 39.126 584.216 41.1247 584.216 43.625C584.216 46.1254 583.691 48.1241 582.643 49.6136ZM574.762 48.8232C575.598 50.062 576.76 50.6776 578.242 50.6776C579.732 50.6776 580.895 50.062 581.731 48.8232C582.567 47.5845 582.985 45.8518 582.985 43.6174C582.985 41.3831 582.567 39.6504 581.731 38.4116C580.895 37.1729 579.732 36.5573 578.242 36.5573C576.753 36.5573 575.59 37.1729 574.762 38.4116C573.926 39.6504 573.508 41.3831 573.508 43.6174C573.508 45.8518 573.933 47.5845 574.762 48.8232Z" fill="#FDE282"/>
<path d="M586.176 51.5895V50.4952L592.028 44.4838C593.746 42.7055 594.604 41.2007 594.604 39.9772C594.604 38.9132 594.27 38.0773 593.601 37.4693C592.932 36.8613 592.096 36.5573 591.093 36.5573C589.315 36.5573 588.046 37.3629 587.293 38.974L586.267 38.3584C586.739 37.4009 587.392 36.6713 588.236 36.1621C589.079 35.653 590.029 35.4022 591.093 35.4022C592.385 35.4022 593.495 35.8125 594.43 36.6333C595.364 37.4541 595.828 38.5712 595.828 39.9848C595.828 40.8892 595.562 41.7707 595.038 42.6295C594.513 43.4807 593.776 44.385 592.826 45.3426L587.894 50.442H596.193V51.6047H586.176V51.5895Z" fill="#FDE282"/>
<path d="M598.176 51.5895V50.4952L604.028 44.4838C605.746 42.7055 606.604 41.2007 606.604 39.9772C606.604 38.9132 606.27 38.0773 605.601 37.4693C604.932 36.8613 604.096 36.5573 603.093 36.5573C601.315 36.5573 600.046 37.3629 599.293 38.974L598.267 38.3584C598.739 37.4009 599.392 36.6713 600.236 36.1621C601.079 35.653 602.029 35.4022 603.093 35.4022C604.385 35.4022 605.495 35.8125 606.43 36.6333C607.364 37.4541 607.828 38.5712 607.828 39.9848C607.828 40.8892 607.562 41.7707 607.038 42.6295C606.513 43.4807 605.776 44.385 604.826 45.3426L599.894 50.442H608.193V51.6047H598.176V51.5895Z" fill="#FDE282"/>
<path d="M387.892 150.439L381.053 132.466H382.329L388.592 149.071L392.977 137.519L391.107 132.473H392.361L398.494 149.025L404.756 132.473H406.025L399.186 150.447H397.894L393.547 139.108L389.177 150.447H387.892V150.439Z" fill="#FDE282"/>
<path d="M417.927 150.439V132.466H419.105V140.491H431.401V132.466H432.587V150.439H431.401V141.555H419.105V150.439H417.927Z" fill="#FDE282"/>
<path d="M446.882 150.439V132.466H456.419V133.53H448.075V140.499H455.872V141.563H448.075V149.383H456.419V150.447H446.882V150.439Z" fill="#FDE282"/>
<path d="M469.148 150.439V132.466H474.286C477.721 132.466 479.856 133.925 479.856 137.337C479.856 140.316 477.827 141.745 475.525 142.117L482.539 150.439H481.004L474.164 142.269H470.326V150.439H469.148ZM470.334 141.221H474.271C476.687 141.221 478.678 140.005 478.678 137.337C478.678 134.67 477.052 133.53 474.271 133.53H470.334V141.221Z" fill="#FDE282"/>
<path d="M494.273 150.439V132.466H503.811V133.53H495.467V140.499H503.264V141.563H495.467V149.383H503.811V150.447H494.273V150.439Z" fill="#FDE282"/>
<path d="M529.49 150.439L531.801 132.466H533.055L539.978 148.531L546.924 132.466H548.178L550.488 150.439H549.31L547.281 134.411L540.381 150.439H539.613L532.697 134.411L530.668 150.439H529.49Z" fill="#FDE282"/>
<path d="M561.311 150.439L568.72 132.466H570.027L577.452 150.439H576.145L574.025 145.286H564.73L562.625 150.439H561.311ZM565.08 144.291H573.683L569.374 133.849L565.08 144.291Z" fill="#FDE282"/>
<path d="M587.704 141.456C587.704 135.962 591.512 132.063 596.763 132.063C600.441 132.063 603.474 133.978 604.864 137.025L603.755 137.398C602.516 134.776 599.894 133.157 596.763 133.157C592.203 133.157 588.905 136.585 588.905 141.464C588.905 146.343 592.203 149.755 596.763 149.755C601.133 149.755 604.249 146.966 604.294 142.839H596.793V141.859H605.533C605.533 147.559 602.022 150.857 596.763 150.857C591.504 150.857 587.704 146.951 587.704 141.456Z" fill="#FDE282"/>
<path d="M618.308 150.439V132.466H619.494V150.439H618.308Z" fill="#FDE282"/>
<path d="M632.671 141.456C632.671 135.962 636.479 132.063 641.73 132.063C645.401 132.063 648.418 134.008 649.824 137.025L648.722 137.497C647.483 134.829 644.877 133.15 641.73 133.15C637.178 133.15 633.872 136.577 633.872 141.456C633.872 146.328 637.186 149.747 641.73 149.747C644.915 149.747 647.536 148.037 648.76 145.324L649.862 145.796C648.494 148.835 645.439 150.842 641.73 150.842C636.479 150.849 632.671 146.951 632.671 141.456Z" fill="#FDE282"/>
<path d="M676.53 150.439V132.466H677.708V140.491H690.004V132.466H691.19V150.439H690.004V141.555H677.708V150.439H676.53Z" fill="#FDE282"/>
<path d="M703.151 150.439L710.561 132.466H711.868L719.293 150.439H717.986L715.866 145.286H706.571L704.466 150.439H703.151ZM706.921 144.291H715.524L711.215 133.849L706.921 144.291Z" fill="#FDE282"/>
<path d="M731.255 150.439V132.466H736.407C739.835 132.466 741.97 133.948 741.97 137.337C741.97 140.787 739.379 142.269 736.407 142.269H732.448V150.439H731.255ZM732.44 141.221H736.392C738.794 141.221 740.793 140.005 740.793 137.337C740.793 134.67 739.181 133.514 736.392 133.514H732.44V141.221Z" fill="#FDE282"/>
<path d="M754.602 150.439V132.466H759.754C763.182 132.466 765.317 133.948 765.317 137.337C765.317 140.787 762.726 142.269 759.754 142.269H755.795V150.439H754.602ZM755.795 141.221H759.747C762.148 141.221 764.147 140.005 764.147 137.337C764.147 134.67 762.536 133.514 759.747 133.514H755.795V141.221Z" fill="#FDE282"/>
<path d="M777.955 150.439V132.466H787.493V133.53H779.148V140.499H786.946V141.563H779.148V149.383H787.493V150.447H777.955V150.439Z" fill="#FDE282"/>
<path d="M800.215 150.439V132.466H801.393L814.419 148.547V132.466H815.604V150.439H814.419L801.393 134.35V150.439H800.215Z" fill="#FDE282"/>
<path d="M828.395 146.145L829.481 145.925C829.899 148.311 831.731 149.671 834.071 149.671C836.754 149.671 838.251 147.969 838.251 145.94C838.251 144.42 837.59 143.227 835.66 142.3L832.362 140.666C830.37 139.693 829.101 138.606 829.101 136.471C829.101 134.236 830.887 132.215 833.996 132.215C836.731 132.215 838.586 133.887 838.905 136.25L837.833 136.471C837.552 134.616 836.146 133.241 833.996 133.241C831.632 133.241 830.287 134.761 830.287 136.448C830.287 137.892 831.077 138.735 832.84 139.617L836.063 141.213C838.297 142.322 839.437 143.599 839.437 145.932C839.437 148.653 837.446 150.697 834.071 150.697C830.758 150.69 828.927 148.904 828.395 146.145Z" fill="#FDE282"/>
</g>
<defs>
<filter id="filter0_d_938_2710" x="0" y="0.789825" width="864.87" height="185.98" filterUnits="userSpaceOnUse" color-interpolation-filters="sRGB">
<feFlood flood-opacity="0" result="BackgroundImageFix"/>
<feColorMatrix in="SourceAlpha" type="matrix" values="0 0 0 0 0 0 0 0 0 0 0 0 0 0 0 0 0 0 127 0" result="hardAlpha"/>
<feOffset dx="1" dy="1"/>
<feGaussianBlur stdDeviation="12"/>
<feComposite in2="hardAlpha" operator="out"/>
<feColorMatrix type="matrix" values="0 0 0 0 0.988235 0 0 0 0 0.788235 0 0 0 0 0.027451 0 0 0 0.7 0"/>
<feBlend mode="normal" in2="BackgroundImageFix" result="effect1_dropShadow_938_2710"/>
<feBlend mode="normal" in="SourceGraphic" in2="effect1_dropShadow_938_2710" result="shape"/>
</filter>
</defs>
</svg>
