<svg xmlns="http://www.w3.org/2000/svg" xmlns:xlink="http://www.w3.org/1999/xlink" viewBox="0 0 1213.23 1076.05"><defs><style>.cls-1,.cls-32{fill:none;}.cls-2{isolation:isolate;}.cls-3{clip-path:url(#clip-path);}.cls-4{fill:url(#linear-gradient);}.cls-5{mix-blend-mode:screen;}.cls-6{fill:url(#radial-gradient);}.cls-7{fill:url(#radial-gradient-2);}.cls-8{fill:url(#radial-gradient-3);}.cls-9{fill:url(#radial-gradient-4);}.cls-10{fill:url(#radial-gradient-5);}.cls-11{fill:url(#radial-gradient-6);}.cls-12{fill:url(#radial-gradient-7);}.cls-13{fill:#3a365e;opacity:0.9;}.cls-14{fill:#443b6d;}.cls-15{fill:#170738;}.cls-16{fill:#342f60;}.cls-17{fill:#28254f;}.cls-18{fill:#282851;}.cls-19{fill:#100038;}.cls-20{opacity:0.8;}.cls-21{fill:#1a043d;}.cls-22{fill:url(#linear-gradient-2);}.cls-23{fill:#344b70;}.cls-24{fill:#34c2f7;}.cls-24,.cls-25,.cls-26{opacity:0.4;}.cls-25{fill:#4eeefc;}.cls-26{fill:#0895ca;}.cls-27{fill:#14052c;}.cls-28{fill:#ce346b;}.cls-29{fill:#f8878d;}.cls-30{fill:#df93a0;}.cls-31{fill:#f63e74;}.cls-32{stroke:#331e2c;stroke-miterlimit:10;}.cls-33{fill:#050817;}.cls-34{fill:#e06978;}.cls-35{fill:#fcc907;}.cls-36{fill:#100b12;}.cls-37{fill:#f4eaf2;}.cls-38{fill:#d54c7a;}.cls-39{fill:#322f44;}.cls-40{fill:#060817;}.cls-41{fill:#ed8898;}.cls-42{fill:#1e1521;}.cls-43{fill:#2a1c2d;}.cls-44{fill:#7b5c6e;}.cls-45{fill:#1e131a;}.cls-46{fill:#292951;}.cls-47{fill:#2c2c56;}</style><clipPath id="clip-path"><rect class="cls-1" width="1213.23" height="1076.05"/></clipPath><linearGradient id="linear-gradient" x1="778.73" y1="-59.69" x2="778.73" y2="1039.76" gradientUnits="userSpaceOnUse"><stop offset="0.06" stop-color="#1d033e"/><stop offset="0.13" stop-color="#20053f"/><stop offset="0.22" stop-color="#2f0e45"/><stop offset="0.39" stop-color="#572653"/><stop offset="0.62" stop-color="#944a69"/><stop offset="0.84" stop-color="#ce6d7e"/><stop offset="1" stop-color="#f8878d"/></linearGradient><radialGradient id="radial-gradient" cx="698.39" cy="50.73" r="1809" gradientUnits="userSpaceOnUse"><stop offset="0.04" stop-color="#543a28"/><stop offset="0.04" stop-color="#543a28"/><stop offset="0.32" stop-color="#2f2117"/><stop offset="0.58" stop-color="#150f0a"/><stop offset="0.82" stop-color="#060403"/><stop offset="1"/></radialGradient><radialGradient id="radial-gradient-2" cx="698.39" cy="130.73" r="1809.01" xlink:href="#radial-gradient"/><radialGradient id="radial-gradient-3" cx="698.39" cy="120.73" r="1809.01" xlink:href="#radial-gradient"/><radialGradient id="radial-gradient-4" cx="698.39" cy="130.73" r="1809.01" xlink:href="#radial-gradient"/><radialGradient id="radial-gradient-5" cx="340.25" cy="103.7" r="2631.5" xlink:href="#radial-gradient"/><radialGradient id="radial-gradient-6" cx="455.91" cy="130.73" r="1809.01" xlink:href="#radial-gradient"/><radialGradient id="radial-gradient-7" cx="948.39" cy="180.73" r="1809.01" xlink:href="#radial-gradient"/><linearGradient id="linear-gradient-2" x1="1270.62" y1="783.99" x2="1393.42" y2="19.52" gradientUnits="userSpaceOnUse"><stop offset="0.37" stop-color="#1d033e"/><stop offset="0.98" stop-color="#302d51"/></linearGradient></defs><g class="cls-2"><g id="Layer_6" data-name="Layer 6"><g class="cls-3"><rect class="cls-4" x="-196.77" y="-2.71" width="1951.01" height="982.35"/><g class="cls-5"><path class="cls-6" d="M40.8,137.42c-3.33,0-9.33-1.87-20.84-1.87-2,0-4,0-5.85.08-1.77-3-16.85-7.34-35.2-7.34A171.84,171.84,0,0,0-46,129.89c-.72,0-1.44,0-2.17,0a47.34,47.34,0,0,0-5.9.36c-3.34-2.15-10.49-3.64-18.79-3.64-1.43,0-2.82,0-4.17.13-4.22-3.59-15.23-6.16-28.19-6.16-16.6,0-30,4.2-30,9.38,0,.06,0,.12,0,.18h-.9c-11.18,0-20.25,2.06-20.25,4.61a1.42,1.42,0,0,0,.4.92c-9,.21-15.67.94-15.67,1.81,0,1-11.51,1.88,0,1.88H46.44C49.42,139.3,52,137.43,40.8,137.42Z"/><path class="cls-7" d="M1261.78,250.63c-3.33,0-9.33-1.88-20.84-1.88-2,0-4,0-5.85.08-1.77-3-16.85-7.34-35.2-7.34a171.66,171.66,0,0,0-25,1.61c-.71,0-1.44,0-2.17,0a47.41,47.41,0,0,0-5.9.35c-3.34-2.15-10.49-3.63-18.79-3.63-1.43,0-2.82,0-4.17.13-4.22-3.6-15.23-6.17-28.19-6.17-16.6,0-30,4.21-30,9.39,0,.06,0,.12,0,.17h-.9c-11.18,0-20.25,2.07-20.25,4.61a1.35,1.35,0,0,0,.41.92c-9,.21-15.68.94-15.68,1.82,0,1-11.51,1.87,0,1.87h218.14C1270.4,252.5,1273,250.64,1261.78,250.63Z"/><path class="cls-8" d="M233.9,275.74c0-1-5.13-1.88-11.46-1.88-1.17,0-2.3,0-3.36.09-1.43-1.53-9.47-2.7-19.21-2.7-2.4,0-4.69.07-6.81.2-1.09-1.91-4.31-3.29-8.11-3.29a14.41,14.41,0,0,0-3.23.35,10.07,10.07,0,0,0-4.46-2.72c-1.74-4.91-11.38-8.66-23-8.66a52.09,52.09,0,0,0-6,.35c-4.66-4.81-14.75-8.14-26.46-8.14-13.06,0-24.11,4.15-27.86,9.86l-1.75,0a89.23,89.23,0,0,0-9.65.52C78,257.14,70.89,255.49,63,255.49c-10.22,0-19,2.72-22.86,6.62a38.73,38.73,0,0,0-4.66-.29c-6.43,0-12,1.52-15.17,3.77a30.1,30.1,0,0,0-6.61-.71,30.15,30.15,0,0,0-5.72.53c-2.57-2.16-7-3.59-12-3.59-7.15,0-13.06,2.88-14.17,6.63-.7,0-1.42-.06-2.15-.06a37.33,37.33,0,0,0-8.84,1,81.09,81.09,0,0,0-13.1-1,88,88,0,0,0-9.27.47c-2.19-2.33-7.49-4-13.7-4-5.89,0-11,1.49-13.33,3.63a24,24,0,0,0-4.18-.35c-4.9,0-9,1.38-10.46,3.29-2.74-.13-5.69-.2-8.79-.2-12.57,0-23,1.17-24.79,2.7-1.37-.06-2.83-.09-4.34-.09-8.16,0-14.78.84-14.78,1.88s-8.17,1.87,0,1.87H235.34C241.67,277.61,233.9,276.77,233.9,275.74Z"/><path class="cls-9" d="M197.3,184.48H342c7.93,0-5.91-2.07-5.91-4.61s-6.43-4.61-14.37-4.61a36.79,36.79,0,0,0-8.83,1,80,80,0,0,0-13.11-1,90.74,90.74,0,0,0-9.26.46c-2.2-2.33-7.5-4-13.7-4-5.89,0-11,1.49-13.34,3.64a23.84,23.84,0,0,0-4.18-.36c-4.9,0-9.05,1.38-10.46,3.29-2.74-.13-5.69-.2-8.78-.2-12.57,0-22.95,1.17-24.79,2.7-1.38-.05-2.83-.08-4.34-.08-8.17,0-14.79.84-14.79,1.87S189.14,184.48,197.3,184.48Z"/><path class="cls-10" d="M1666.66,208c0-1.51-9.63-2.73-21.5-2.73-2.2,0-4.32,0-6.32.12-2.67-2.22-17.77-3.93-36.06-3.93-4.5,0-8.8.11-12.78.3-2-2.78-8.09-4.79-15.22-4.79a34.35,34.35,0,0,0-6.08.52c-3.45-3.13-10.83-5.29-19.4-5.29-9,0-16.73,2.39-19.92,5.79a129.69,129.69,0,0,0-13.48-.68,117.71,117.71,0,0,0-19.07,1.43,54,54,0,0,0-12.85-1.43c-1.06,0-2.11,0-3.13.09-1.61-5.47-10.21-9.65-20.61-9.65-7.33,0-13.76,2.08-17.5,5.22a45.11,45.11,0,0,0-17.93.27c-4.56-3.29-12.73-5.49-22.07-5.49a57,57,0,0,0-6.79.42c-5.62-5.67-18.38-9.63-33.24-9.63-11.56,0-21.83,2.4-28.48,6.13a127.12,127.12,0,0,0-14-.77c-.86,0-1.7,0-2.55,0-5.45-8.31-21.53-14.34-40.53-14.34-17,0-31.7,4.84-38.49,11.83a75.73,75.73,0,0,0-8.68-.51c-17,0-31,5.47-33.53,12.6a14.67,14.67,0,0,0-6.48,4,20.72,20.72,0,0,0-4.71-.52c-5.53,0-10.2,2-11.79,4.79-3.09-.19-6.42-.3-9.91-.3-14.17,0-25.87,1.71-27.94,3.93-1.55-.08-3.19-.12-4.89-.12-9.21,0-16.67,1.22-16.67,2.73s-11.3,2.72-2.1,2.72h554.73C1678.53,210.73,1666.66,209.51,1666.66,208Z"/><path class="cls-11" d="M998.64,145.29c0-1-6.62-1.88-14.78-1.88-1.51,0-3,0-4.35.09-1.83-1.53-12.21-2.7-24.78-2.7-3.1,0-6.05.07-8.79.2-1.41-1.91-5.56-3.29-10.46-3.29a24,24,0,0,0-4.18.35c-2.38-2.14-7.45-3.63-13.34-3.63-6.2,0-11.5,1.64-13.69,4a88,88,0,0,0-9.27-.47,81.13,81.13,0,0,0-13.11,1,37.24,37.24,0,0,0-8.83-1c-7.94,0-14.37,2.07-14.37,4.61s-13.84,4.61-5.9,4.61H997.48C1005.64,147.16,998.64,146.32,998.64,145.29Z"/><path class="cls-12" d="M693.1,316.37c0-1.76-8.71-3.18-19.45-3.18h-1.46a4,4,0,0,0,1.46-2.86c0-5.1-13.09-9.22-29.23-9.22l-1.75,0c-3.75-5.71-14.8-9.86-27.86-9.86-11.7,0-21.8,3.33-26.46,8.14a52.09,52.09,0,0,0-6-.35c-11.67,0-21.31,3.76-23,8.66a10,10,0,0,0-4.45,2.72,15.11,15.11,0,0,0-3.24-.35c-3.8,0-7,1.38-8.11,3.29-2.12-.13-4.41-.2-6.81-.2-9.74,0-17.78,1.17-19.2,2.7-1.07-.05-2.2-.08-3.37-.08-6.33,0-11.45.84-11.45,1.87s-8.09,1.88-.22,1.88c4.94,0,135.95-.05,141.94,0,5.16,0,45.28,0,51.33,0C706.5,319.56,693.1,318.13,693.1,316.37Z"/></g><polygon class="cls-13" points="-214.24 501.27 -61.27 466.22 30.32 350.12 56.36 394.54 152.34 469.06 239.26 469.06 239.79 454.56 318.9 485.36 349.36 467.96 649.48 543.32 699.29 529.02 733.49 560.81 815.26 591.08 966.88 542.53 998.97 550.25 1241.2 503.76 1311.1 452.56 1337.89 458.32 1412.2 358.92 1432.02 368.5 1456.93 307.17 1634.13 452.56 1773.23 452.56 1773.23 773.66 -214.24 773.66 -214.24 501.27"/><path class="cls-1" d="M864,780.3c0-.25-1.32,1.08-3,2.92C863.29,785.8,865,786.67,864,780.3Z"/><path class="cls-14" d="M1154.09,743.92c-1.79.14-3.63-.62-5.78.09,1.22,2.32,3.26,3.06,4.87,4.24a26.41,26.41,0,0,1,5.25,4.29c3,3.75,3,7-.3,10.59-4.56,4.87-10.09,8.53-15.74,12-3.26,2-4.72,1.24-5.34-2.77q-2.49-15.95-4.58-32c-.46-3.53-1.49-7.05-.76-10.69A135.46,135.46,0,0,1,1154.09,743.92Z"/><path class="cls-1" d="M850.59,648.84l-.83-.31Z"/><path class="cls-1" d="M852.86,637.66c2,1,4,1.87,6,2.79C856.87,639.53,854.86,638.61,852.86,637.66Z"/><path class="cls-1" d="M860.46,641.16l5.63,2.51Z"/><path class="cls-1" d="M1043.68,705.26a123.29,123.29,0,0,0,2.56-13.57,123.29,123.29,0,0,1-2.56,13.57c-.4,3.4-.79,6.81-1.19,10.22Z"/><path class="cls-1" d="M1024.06,709.31c-9.93-4.21-19.93-8.25-30-12C1004.13,701.06,1014.13,705.1,1024.06,709.31Z"/><path class="cls-1" d="M873.58,656.9c-2.17-.71-4.33-1.44-6.49-2.17C869.25,655.46,871.41,656.19,873.58,656.9Z"/><path class="cls-1" d="M994.43,689.46q-20.2-6.69-40.37-13.42-7.57-2.52-15.16-5,7.58,2.51,15.16,5Q974.24,682.78,994.43,689.46Z"/><path class="cls-1" d="M857.35,651.32l-2.6-1Z"/><path class="cls-1" d="M864.48,653.83l-3.71-1.3Z"/><path class="cls-1" d="M1037.92,749.26q1.17-8.44,2.3-16.89-1.14,8.45-2.3,16.89-.8,5.79-1.58,11.57h0Q1037.13,755,1037.92,749.26Z"/><path class="cls-1" d="M1042.49,715.48q-1.14,8.44-2.27,16.89,1.14-8.45,2.27-16.89Z"/><path class="cls-1" d="M938.9,671c-8.43-2.79-16.83-5.61-25.15-8.7-8-3-16-5.89-23.91-9,7.94,3.06,15.93,6,23.91,9C922.07,665.42,930.47,668.24,938.9,671Z"/><path class="cls-15" d="M210.11,720.29c-23.06-28.71-39.43-46.68-59.56-77.52a26.71,26.71,0,0,0-8.41-8.25q-23.37-14.68-45.33-31.46a12.2,12.2,0,0,1-5.17-8.95C91,587.7,89.87,581.34,88.93,575Q73.15,467.47,57.31,360c-.73-5-1.12-10-2.69-15.44-1.81,1.93-1.56,3.91-1.83,5.68Q42.62,419.16,32.49,488.1c-2.56,17.45-5.11,34.9-7.77,52.33-.61,4.05-1.53,4.46-4.56,2q-11.5-9.29-22.77-18.89c-2.79-2.37-2.69-3,.34-5.11,4.38-3,8.91-5.78,13.34-8.71,4.77-3.14,4.81-3.18,3.27-8.78C9.41,483.05,4.53,465.11-.55,447.24-4,435-1.49,438.61-12.18,431l-9.77-7c3.88-1.24,6.67-.32,9.41-.34,4.91,0,5.32-.42,4-5.29q-20-72.37-40.09-144.74c-.31-1.12-.16-2.73-1.91-3C-54,277.49-55.65,285-54.8,291.34c.38,2.87.08,5.23-2.24,7.15s-3.26,4.53-4,7.33c-4.09,15-8.28,30-12.42,45a25.33,25.33,0,0,0-.84,3.3c-.43,3,.17,3.7,3.28,3.79,2.94.08,5.89,0,8.87,0,0,1.81-1.44,2.31-2.37,3.12-3.58,3.1-7.14,6.25-10.92,9.11a16.17,16.17,0,0,0-6,9.26c-5,18.67-10.29,37.29-15.5,55.91-.52,1.84-.63,4-2.35,5.41-.52-.63-.88-.87-1-1.2-.67-2.17-1.3-4.36-1.94-6.54-2-7-1.2-7.19-9.1-7.09-1.61,0-3.38.57-5-.89,1-2.62,3.33-4.09,5.26-5.74,2.91-2.51,3.88-5.05,2.68-8.95-2.91-9.42-5.36-19-8-28.49-.56-2-1.06-4.08-2.63-5.59-1.85-1.78-2-3.87-1.7-6.27.5-4.24-1-8-2.92-12.12-.64.88-1.11,1.28-1.24,1.76Q-132,384.78-139,410a5.86,5.86,0,0,0,1.32,5.79c2.57,3,5.11,6.11,7.58,9.24,2.79,3.54,2.85,3.8.29,7.42-5,7.13-10.15,14.19-15.27,21.26-.64.89-1.17,2-2.91,2.15a17.29,17.29,0,0,0-6.84-8.3c-3.09-1.84-6.45-3.61-8.69-6.62a3.32,3.32,0,0,1,3.08-1.06c7.35.53,7.44-.24,5.48-7.19q-6.45-23-12.78-46.05-9.27-33.44-18.58-66.87c-.5-1.79-.4-4.07-2.93-5.35-1.78,5.72-4.32,10.89-3,16.81a5.48,5.48,0,0,1-1.85,5.63c-2.11,1.86-2.85,4.38-3.56,7q-5.25,18.92-10.59,37.8c.1,1.57-.14,3.18.58,4.67,1.65-.12,3.31-.3,5-.35.89,0,1.89,0,2.28,1.1a1.73,1.73,0,0,1-.7,1.95c-2.77,2.38-5.11,5.36-8.84,6.41V530.81c5,.64,8.19,4.36,11.82,7.24,1.25,1,1,2.8,1,4.3,0,6.24-.05,12.49,0,18.73a6.82,6.82,0,0,1-3,6.31c-3.28,2.22-6,5.25-9.82,6.66V760.83H311.68C277.05,747.39,210.81,721.16,210.11,720.29ZM-165.38,532.65q-5.28,6.33-10.77,12.48c-.82.92-1.68,2.44-3.22,1.72s-.89-2.32-1-3.58c-.38-3.33.7-5.85,3.77-7.56,4.42-2.49,8.38-5.78,13.53-8.16C-162.78,530.37-164.35,531.41-165.38,532.65Zm23-61.4c-1,.32-1.77-.3-2.11-1.32a1.72,1.72,0,0,1,1.45-2.47,9.08,9.08,0,0,1,5.74.41C-138.56,470.09-140.53,470.65-142.39,471.25ZM-94.25,460c-1.57-1.19-1.73-3.28-1.75-5.19,0-1.18.88-1.66,1.9-1.64a21.59,21.59,0,0,1,7.49,1.21c-.68,2.63-2.38,3.31-3.72,4.27C-91.48,459.45-92.72,461.14-94.25,460Zm6,11.58c-1.57.85-3,.84-3.56-1.19s.61-2.85,2.33-3.07c2.77-.36,5.48-1.34,8.32-1,.09.39.18.79.28,1.18C-83.38,468.82-85.82,470.21-88.29,471.55Z"/><path class="cls-16" d="M1132.47,740.36c-.46-3.53-1.49-7.05-.76-10.69-1.78-2.62-1.84-5.73-2.27-8.68-2.1-14.2-4.08-28.42-6.12-42.62-.3-2.1-.26-4.31-2.17-7-2.35,15.88-4.55,30.79-6.76,45.7q-3.15,21.9-6.31,43.8h27.25Q1133.83,750.6,1132.47,740.36Z"/><path class="cls-16" d="M370.13,727.88c-.16-1.14,0-2.48-1.46-3.76-.44,1.84-.84,3.09-1,4.37-1.55,10.78-3,21.57-4.6,32.34H374.9Q372.53,744.35,370.13,727.88Z"/><path class="cls-16" d="M1154.09,743.92c-1.79.14-3.63-.62-5.78.09,1.22,2.32,3.26,3.06,4.87,4.24a26.41,26.41,0,0,1,5.25,4.29c2.39,2.93,2.89,5.57,1.4,8.29h32.76C1179.62,755.5,1166.47,750.59,1154.09,743.92Z"/><path class="cls-16" d="M1046.71,688.27c-.15,1.14-.31,2.28-.47,3.42a123.29,123.29,0,0,1-2.56,13.57l-1.19,10.22q-1.14,8.44-2.27,16.89t-2.3,16.89q-.8,5.79-1.58,11.57h56.59q-3.93-27.65-7.86-55.28c-.23-1.67-.2-3.39-.29-5.09a13.63,13.63,0,0,1-1.33-4.9q-7.4-51.46-14.84-102.93c-1.11-7.62-1.74-15.34-3.66-23.1-1.63,1.38-1.49,3-1.71,4.45-1.27,8.61-2.45,17.25-3.69,25.87L1048.24,678h0C1047.64,681.42,1047.18,684.84,1046.71,688.27Z"/><path class="cls-17" d="M820.74,597.15c-5.36,4.16-6.38,9-3.46,15,3,6.3,8.69,10,14.15,13.61a167.74,167.74,0,0,0,21.43,11.88c2,1,4,1.87,6,2.79l1.58.71,5.63,2.51.1,0c5.85,2.58,11.76,5,17.7,7.36q3,1.17,6,2.31c7.94,3.06,15.93,6,23.91,9,8.32,3.09,16.72,5.91,25.15,8.7q7.58,2.51,15.16,5,20.18,6.74,40.37,13.42,9.18,3,18.38,6.06,3.84,1.26,7.7,2.48c7.71,2.46,15.45,4.83,23.17,7.26a123.29,123.29,0,0,0,2.56-13.57c.16-1.14.32-2.28.47-3.42.47-3.43.93-6.85,1.53-10.25h0a16.25,16.25,0,0,1-5.22-2.2c-11.28-6.23-22.53-12.52-33.85-18.69q-26.64-14.53-53.95-27.68h0L839.79,571.9l-5,6.64h0c-.82,1.9-4.36,9.46-6.24,11.75C825.12,591.57,823.57,595,820.74,597.15Z"/><path class="cls-17" d="M843.22,728.58c.16-1.17-.34-2.78,1.51-3.29,1.38,1.57,1.4,3.54,1.67,5.36q2.19,15.08,4.32,30.18h185.62q.79-5.79,1.58-11.57,1.17-8.44,2.3-16.89t2.27-16.89c-5.3-.06-9.88-2.52-14.55-4.52-1.29-.56-2.58-1.1-3.88-1.65-9.93-4.21-19.93-8.25-30-12-2.29-.86-4.57-1.7-6.87-2.53q-6.87-2.47-13.82-4.79-24.95-8.26-49.87-16.56T873.58,656.9c-2.17-.71-4.33-1.44-6.49-2.17l-2.61-.9-3.71-1.3-3.42-1.21-2.6-1c-1.39-.5-2.78-1-4.16-1.53l-.83-.31c-11.09-4.15-22-8.65-32.81-13.58-8.39-3.85-16.6-8.33-23.23-15.09-8.47-8.65-8-16,1.51-23.32q2.47-1.9,5-3.71c1.6-1.13,22.35-21.24,22.6-23.3h0l-74.64,37.25c-13.94,6.15-27.64,12.83-41.28,19.64-28,14-55.56,28.79-83.18,43.49-7.82,4.16-7.94,4-9.17-4.68q-1.15-8.22-2.34-16.44l-4,2.89,2.28-11.5c-2.55-17.92-3.87-30.78-6.44-48.7-.23-1.6-.17-3.36-2.19-5.3-1.59,11.12-2.87,20.46-4.44,31.1l2.61,5.36-3.14-1.75c-.29,1.89-.56,3.78-.85,5.67-2,13.13-3.4,26.36-6.54,39.37-1.14-6.09-2.17-12.19-3.15-18.3l-6.44,5.53,5.95-8.55-1.72-11.18L575,636.07l7.75-12c-2-13.5-3.89-27.07-6.15-40.71-2.4,1.81-2,3.66-2.26,5.23l-2.91,20,4.08,9-4.95-3q-2.21,15.18-4.41,30.35l9.36,12.7L566,654c-2.21,15.35-5,27.31-7.11,42.67-.89,6.61-3.51,10.63-9.53,13.31-7.09,3.16-13.87,7-20.76,10.61-26.88,14-54,27.6-81.49,40.29H838.62Q840.92,744.71,843.22,728.58Z"/><path class="cls-17" d="M834.77,578.54l-5.89-4.45C829.38,576.84,829.57,579.63,834.77,578.54Z"/><path class="cls-17" d="M846.4,730.65c-.27-1.82-.29-3.79-1.67-5.36-1.85.51-1.35,2.12-1.51,3.29q-2.31,16.13-4.6,32.25h12.1Q848.59,745.74,846.4,730.65Z"/><path class="cls-17" d="M1046.71,688.27c.47-3.43.93-6.85,1.53-10.25h0C1047.64,681.42,1047.18,684.84,1046.71,688.27Z"/><path class="cls-18" d="M1043.68,705.26c-7.72-2.43-15.46-4.8-23.17-7.26q-3.85-1.21-7.7-2.48-9.19-3-18.38-6.06-20.2-6.69-40.37-13.42-7.57-2.52-15.16-5c-8.43-2.79-16.83-5.61-25.15-8.7-8-3-16-5.89-23.91-9q-3-1.14-6-2.31c-5.94-2.35-11.85-4.78-17.7-7.36l-.1,0-5.63-2.51-1.58-.71c-2-.92-4-1.84-6-2.79h0l-25.2,2q11,4.68,22.13,8.86l.83.31c1.38.52,2.77,1,4.16,1.53l2.6,1,3.42,1.21,3.71,1.3,2.61.9c2.16.73,4.32,1.46,6.49,2.17q25,8.22,49.89,16.51T973.34,690q6.95,2.31,13.82,4.79c2.3.83,4.58,1.67,6.87,2.53,10.1,3.77,20.1,7.81,30,12,1.3.55,2.59,1.09,3.88,1.65,4.67,2,9.25,4.46,14.55,4.52h0C1042.89,712.07,1043.28,708.66,1043.68,705.26Z"/><path class="cls-18" d="M822.86,569.53h0l6,4.56C828.43,571.6,827.72,569.14,822.86,569.53Z"/><path class="cls-18" d="M1027.94,711c-1.29-.56-2.58-1.1-3.88-1.65,1.3.55,2.59,1.09,3.88,1.65,4.67,2,9.25,4.46,14.55,4.52h0C1037.19,715.42,1032.61,713,1027.94,711Z"/><path class="cls-18" d="M923.47,673.41q24.93,8.28,49.87,16.56,6.95,2.31,13.82,4.79-6.87-2.47-13.82-4.79Q948.4,681.71,923.47,673.41Z"/><path class="cls-18" d="M800.26,592.83q-2.55,1.8-5,3.71c-9.54,7.35-10,14.67-1.51,23.32,6.63,6.76,14.84,11.24,23.23,15.09,10.77,4.93,21.72,9.43,32.81,13.58q-11.16-4.18-22.13-8.86l25.2-2h0a167.74,167.74,0,0,1-21.43-11.88c-5.46-3.66-11.13-7.31-14.15-13.61-2.92-6.06-1.9-10.86,3.46-15,2.83-2.2,4.38-5.58,7.79-6.86,1.88-2.29,5.42-9.85,6.24-11.75h0c-5.2,1.09-5.39-1.7-5.89-4.45l-6-4.56C822.61,571.59,801.86,591.7,800.26,592.83Z"/><path class="cls-18" d="M1020.51,698c7.71,2.46,15.45,4.83,23.17,7.26C1036,702.83,1028.22,700.46,1020.51,698Z"/><path class="cls-18" d="M867.09,654.73l-2.61-.9Z"/><path class="cls-18" d="M860.77,652.53l-3.42-1.21Z"/><path class="cls-18" d="M858.88,640.45l1.58.71Z"/><path class="cls-18" d="M854.75,650.37c-1.39-.5-2.78-1-4.16-1.53C852,649.36,853.36,649.87,854.75,650.37Z"/><path class="cls-18" d="M1020.51,698q-3.85-1.21-7.7-2.48-9.19-3-18.38-6.06,9.18,3,18.38,6.06Q1016.65,696.78,1020.51,698Z"/><path class="cls-18" d="M883.89,651.07c-5.94-2.35-11.85-4.78-17.7-7.36l-.1,0,.1,0C872,646.29,878,648.72,883.89,651.07Z"/><path class="cls-17" d="M864,780.3c0-.25-1.32,1.08-3,2.92C863.29,785.8,865,786.67,864,780.3Z"/><path class="cls-19" d="M1077.06,698.68l184.36-173.31,27.4,21.82,84.75-15.79,117.09-106.46,148-134.57,18-101.5,66.48,40.85v574s-144.09,22.47-187,0c0,0-132.76,16.34-185.87-6.13,0,0-159.69,33.7-243.44-1,0,0,4.16,3-14.22-13.4,0,0-24.68,6.45-48.21,4-15-1.55-30.12-4.26-43.16-6.4-11.15-1.82-16.87-11-20.44-13l-30.8,2.67L1056,681.12Z"/><g class="cls-20"><path class="cls-21" d="M1207,776.69l8.43-81.6-82.86,103.44,62.58-9.43A14,14,0,0,0,1207,776.69Z"/><path class="cls-22" d="M1106.93,796.53l111-128.55V635.17l67.62-73.65h11.38a39.41,39.41,0,0,1,0,9.38s52.89-4.69,77.66-2.68c0,0,2-14.73,8-17.41,0,0,45.53-8,62.93-8,0,0,4-6.7-22.76-6.7,0,0,58.25-56.91,123.53-89l-15.07-8L1667,325.52V204l-10.21-15.13-18,101.5-265.13,241-84.36,7-13.06-9s-10.71-5.36-14.73-4L1076,695.09l-19.42-17.74L950.1,770.41l30.8-2.67,16,12.36,47.59,7,11.22,5.09,19.06-3.18,11.42-5.54,6.51-.39,1,11.45Z"/></g><polygon class="cls-23" points="994.58 757.13 -273.84 757.13 -273.84 1184.57 1770.75 1184.57 1770.75 771.42 994.58 757.13"/><path class="cls-24" d="M539,764c2.13.27,4.22.61,6.41.8,2.72.25,6,.43,6.17,1.56S548,767.7,545.64,768c-6.83.89-13.76,1.69-20.64,2.52-64.44,1.79-128.76,1.89-192.75-1.94,3.2-1.66,11.6-1.27,12.32-3.91,7.38.86,13.91-.66,20.88-.94,25.23-.29,50.13-2,75.52-1.91,16.88.09,33.51,1.55,50.46.88,11.67-.14,22.92,1.6,34.7,1Z"/><path class="cls-25" d="M96.81,803.13c-.79-2.93-9.28-5.65-1.76-8.79,29.16-3.32,58.52-1.56,90-.47-7.43,1.78-15.29,2.5-19.41,5.6,13.82-.3,26.12,1.67,39.24,1L267,801.62c3.73.44,9-.33,10.68,1.71l-24.9.17H250l-107.77.3C127.27,802.15,112,803.11,96.81,803.13Z"/><path class="cls-26" d="M435.36,780.52c64,3.83,128.31,3.73,192.75,1.94,8.34,2.28,18.37-.64,27,1.1,2.29.47,6,.3,6,1.62,0,1-2.69,1.2-4.93,1.47-16.91,2-33.8,3.4-52,2.35-21.25-1.24-42.86-.32-64.06.2-14.49.36-29.52-.54-45.4,1.13,6.08,2.22,20.45-.09,18.06,4.89l-5.67-.23c-5-2.19-11.83-1.09-17.94-1.29-7.9,0-15.86.28-23.7,0-23.54-.69-47.37-1.2-66-7.43l.36.32,3.17-1,28-5.29Z"/><path class="cls-25" d="M486.82,816c21.38-5.33,44.75-1.87,67.28-1.83,15,0,30,.63,44.95.89a55.94,55.94,0,0,1,14,2.16c5,1.28,7.66,3.2,5.89,5.22s-7.72,1.4-12.27,1.62c-6.67.31-14.36-1-19.68,1.52l-33.85-.4a43.12,43.12,0,0,0-19.45-.2l-11.5-.2c-15-4.8-25.34-5.56-37.68-2.74C485.26,820,486,818,486.82,816Z"/><path class="cls-25" d="M-55.88,765.4c12.62-2.62,25.55-3.25,38.29-4.13,26.44-1.83,53.16-1.85,79.92-1.73,6.65,0,10.77.81,10.67,3.46s-1.6,4.84-10.5,4.76Q6.23,767.22-50,766.47C-51.6,766.45-53.15,765.91-55.88,765.4Z"/><path class="cls-25" d="M563.22,789.53c12.62-2.62,25.55-3.25,38.29-4.13,26.44-1.83,53.16-1.85,79.92-1.73,6.65,0,10.77.81,10.67,3.46s-1.6,4.84-10.5,4.76q-56.26-.54-112.5-1.29C567.5,790.58,566,790,563.22,789.53Z"/><path class="cls-24" d="M984.32,768.65c2.13.27,4.22.61,6.41.81,2.72.24,6,.42,6.17,1.55s-3.54,1.32-5.94,1.64c-6.82.89-13.76,1.69-20.64,2.52-64.44,1.79-128.76,1.89-192.75-1.94,3.2-1.66,11.6-1.27,12.32-3.91,7.38.87,13.91-.66,20.88-.94,25.23-.29,50.13-2,75.52-1.9,16.88.08,33.52,1.54,50.46.87,11.67-.14,22.92,1.61,34.7,1Z"/><path class="cls-25" d="M582.13,777.76c-.79-2.92-9.27-5.65-1.76-8.79,29.16-3.32,58.53-1.56,90-.47-7.43,1.78-15.29,2.5-19.41,5.6,13.82-.3,26.12,1.68,39.24,1l62.16,1.12c3.73.44,9-.32,10.68,1.71l-24.9.17h-2.79l-107.77.3C612.59,776.78,597.31,777.75,582.13,777.76Z"/><path class="cls-26" d="M872.25,789.29c64,3.82,128.31,3.72,192.75,1.93,8.34,2.28,18.38-.64,27,1.11,2.29.46,6,.3,6,1.62,0,1-2.68,1.2-4.93,1.46-16.9,2-33.79,3.41-52,2.35-21.25-1.23-42.86-.32-64.06.21-14.48.35-29.51-.54-45.4,1.13,6.08,2.22,20.46-.09,18.06,4.89l-5.67-.23c-5-2.19-11.82-1.1-17.94-1.29-7.9,0-15.85.27-23.69,0-23.54-.69-47.38-1.21-66-7.44l.35.33,3.17-1,28-5.3Z"/><path class="cls-25" d="M1068.55,823.6c21.38-5.32,44.76-1.86,67.28-1.82,15,0,30,.63,45,.88a56.86,56.86,0,0,1,14,2.16c5,1.29,7.66,3.21,5.89,5.22s-7.72,1.41-12.27,1.62c-6.67.31-14.36-1-19.68,1.53l-33.85-.4a42.84,42.84,0,0,0-19.45-.2l-11.5-.2c-15-4.81-25.34-5.56-37.68-2.74Z"/><path class="cls-25" d="M644.55,845.18c12.61-2.62,25.55-3.25,38.29-4.13,26.44-1.83,53.16-1.85,79.92-1.73,6.65,0,10.77.81,10.67,3.46s-1.6,4.84-10.51,4.76q-56.25-.54-112.5-1.29C648.83,846.23,647.28,845.69,644.55,845.18Z"/><path class="cls-25" d="M808.63,866.37c12.61-2.62,25.55-3.25,38.29-4.13,26.44-1.83,53.16-1.85,79.92-1.73,6.65,0,10.77.81,10.67,3.46s-1.6,4.84-10.51,4.75q-56.25-.53-112.5-1.28C812.91,867.42,811.36,866.88,808.63,866.37Z"/><path class="cls-25" d="M203.36,787c12.62-2.62,25.55-3.25,38.3-4.13,26.43-1.82,53.15-1.85,79.92-1.73,6.64,0,10.77.82,10.67,3.46s-1.61,4.85-10.51,4.76q-56.26-.54-112.5-1.29C207.64,788,206.09,787.51,203.36,787Z"/><path class="cls-26" d="M1136.64,763.77c64,3.83,128.31,3.73,192.75,1.94,8.34,2.28,18.38-.64,27,1.11,2.29.46,6,.3,6,1.61,0,1-2.68,1.21-4.93,1.47-16.9,2-33.79,3.41-52,2.35-21.25-1.23-42.86-.32-64.06.2-14.48.36-29.51-.53-45.4,1.14,6.08,2.22,20.46-.09,18.06,4.89l-5.67-.23c-5-2.19-11.82-1.1-17.94-1.29-7.9,0-15.86.27-23.7,0-23.54-.7-47.37-1.21-66-7.44l.35.33,3.17-1,28-5.3Z"/><path class="cls-27" d="M1834.68,822.37c-22-5.27-56-10.59-74.7.88a27.42,27.42,0,0,1-16.49,4.08c-29.29-2.31-111.37-7.15-124.73,9.82a25.43,25.43,0,0,1-10.08,7.48c-33.47,14.26-157.79,65.67-187.76,55.09l-28.56-10.08a26.85,26.85,0,0,0-12.57-1.3C1344.72,893.07,1174.13,915,1078.9,908c-.76-.05-1.51-.08-2.27-.07l-25.46.31a26.9,26.9,0,0,1-17.82-6.44l-34.11-29.06A27,27,0,0,0,969.83,869c-17.16,8.45-44,22.34-59.64,33.81a27,27,0,0,1-24.7,3.82l-4.44-1.52a27,27,0,0,0-17.7.1c-11.4,4-30.13,11.76-36.58,20.87-10.55-13-45-22.87-45-22.87l-27.65,9.43c-14.3-17.43-85.7-50.34-85.7-50.34l-55.16,47-36.72-.45c-106.21,8.17-308.43-20.43-308.43-20.43l-34.72,12.26c-21.3,7.52-90.27-16.28-140.4-35.79a10.2,10.2,0,0,0-4.09-1.69l-.37-.06c-5.3-2.08-10.36-4.1-15.08-6a29.82,29.82,0,0,0,2.72-1.34c4.15-2.33,4.31-3.83,1.79-7.9-.39-.62-1.09-1.18-1.16-1.83-.57-4.67-4.23-6.65-7.55-9-4.45-3.16-8.67-6.66-13.22-9.67a15.36,15.36,0,0,0-6.75-2.37c-5.06-.47-10.17-.39-15.27-.57-.6,0-1.44-.08-1.76-.46-1.75-2.13-4-1.73-6.26-1.46-6.24.7-12.07,2.2-17.27,5.62-6.66-.95-14.09-1.56-21.86-1.9a33.79,33.79,0,0,0-1.14-8.66c-.59,2.8-.9,5.68-1.35,8.55-2.91-.11-5.85-.18-8.82-.23v-.08l-.06.08-2.26,0,5.76-19c-5.47,5.07-8,11.73-10.33,18.49l-.82-.12V814.18l-.88-.07-2.89,11.79h-1.46c-.22-1.37-.45-2.74-.68-4.1l-.65,0c-.25,1.37-.51,2.74-.77,4.11l-1.64,0q-2.22-7.17-4.43-14.35c-.3,4.87.84,9.64,1.53,14.41-3.11.06-6.18.15-9.19.25.41-1,.83-2.07,1.21-3.1l-.94-.34c-.48,1.16-1,2.32-1.45,3.48l-4.73.19a20.68,20.68,0,0,0-.75-6.93c-.8,2.36-1.61,4.71-2.41,7.07l-3.41.17V815.55l-1-.09a35.92,35.92,0,0,1-2,11.51c-3.78.2-7.33.42-10.59.64l2.55-5.19-.6-.34c-1.19,1.9-2.39,3.79-3.56,5.64l-4.36.31c.38-2,.78-4,1.17-6l-.7-.33L-88,828.23l-1.36.11a17.67,17.67,0,0,1,.12-5.25c1.19-4.49,2.3-8.92,1.37-13.68-1.89,6.33-3.77,12.66-5.75,19.28l-3.26.28c-.6-4.2,0-8.36-.59-12.37-.84,4.07-1.6,8.16-2.55,12.21a29.33,29.33,0,0,0-6.75-5.16,3.87,3.87,0,0,0-.17-1.85l-.48,1.49a47.51,47.51,0,0,0-13.82-4.58c-1-5.33-2-10.67-2.92-16-.14-.78-.31-1.55-.47-2.33l-.75.08c.54,5.9,1.09,11.81,1.65,17.84-1.78-.26-3.6-.45-5.45-.59a9.87,9.87,0,0,0-2.72-3.58l1.51,3.49c-31.4-2-70.75,11.61-70.75,11.61V1388.7H829.79v-11.91a26.94,26.94,0,0,0,21.67,10.91h977a27,27,0,0,0,27-27V848.6A27,27,0,0,0,1834.68,822.37Z"/><path class="cls-28" d="M146,903.7s46.72,21.45,81.19,31.4c0,0,10.72-5.36,16.85,0,0,0-24.76,79.27,44.17,32.55,0,0,29.48-26,29.48-14.56,0,0-5.47,46,24.41,13.79,0,0-53.89,140.94,5.19,91.15,0,0-39.68-84.63,111.22-85.39,0,0,26.8,6.12,26.8-3.07,0,0,36.77-6,36.77,5.07,0,0,16.85,11.19,37.53,0,0,0,55.15,14.08,77.36-1.24,0,0,13,4.6,12.26-6.89,0,0,28.34-1.53-17.62-8.43,0,0-67.4-11.49-82.72-9.19,0,0,16.11-9.19-71.21-12.25l26-7.66s135.57,13,147.06,9.95c0,0-54-18.49-54-20.78l11.6-9.86-15.07-4.59h-33.7s-13-8.43-19.15,0c0,0-28.34-.77-35.23,3.83,0,0,17.62-10.55-6.89-7.58,0,0-32.94-9.4-32.94-.53,0,0-24.51,4.28-28.34,2,0,0,0-5.36-18.38,0,0,0,.76-13.79-32.17-2.3,0,0-47.49-12.2-68.17-4.57,0,0-45.2-6.15-49.79-13,0,0-31.41,1.53-25.28,17.61,0,0-42.13,8.43-52.85-5.36C190.44,893.74,122.27,884.55,146,903.7Z"/><path class="cls-29" d="M668.4,862.34l13.79,19.15s-6.13,34.46-31.41,57.44l-55.91-19.15,13.53-11.49S657.89,876.12,668.4,862.34Z"/><path class="cls-30" d="M752.06,911.4s11.57,24.17,42.21,10.55c0,0,3.06-4.42-5.45-15.31,0,0-4.08-4.43-11.57-3.41Z"/><path class="cls-30" d="M717.93,1014.68l1.7,9.87s55.49-5.11,62.3-11.23l-37.11-19.41S721.33,1007.53,717.93,1014.68Z"/><path class="cls-30" d="M746.87,992.21l35.06,19.4s43.23-5.1,66.72-19.4c0,0-4.42-6.47-8.85-6.47,0,0-48.68.5-55.49-5.19C784.31,980.55,761.5,976.21,746.87,992.21Z"/><path class="cls-31" d="M379.88,1066.81v-6l-3,3s-4.84,2.23-5.21-3c0,0,3.7-4.85,8.18-4.1,0,0-6.69-3.51-11.54-.08,0,0-12.29.82,0-9.61,0,0,4.08-7.45,11.54-8.57,0,0,7.47-1.49,7.47,3a166.54,166.54,0,0,1,48.44,3.73s40.61-3,49.92,4.84c0,0,30.93,1.87,35.78,9.32,0,0,15.65,4.1-1.87,11.55,0,0-32,3-36.51-1.49,0,0-1.87-3.36-7.46-2.24l-6.7-.74,1.49-3.73-4.85,2.61s-1.77-3.45-.65-4.1c0,0-2.33,2.42-1,4.84,0,0-3.29-3.85-5-3.35,0,0,2.23,1.24,1,4.22l-38,2.24S380.93,1071.72,379.88,1066.81Z"/><path class="cls-31" d="M134.43,1006.05c7.26-1.51,13.82-7.68,13.82-7.68,19.2-6.15,87.17,19.58,87.17,19.58,23.43,6.15-1.92,23.19-1.92,23.19l-2.3-5.14-4.22,4.22-1.92-2.68-4.61,5c-10.75,10.75-36.48-5-36.48-5S114.72,1010.14,134.43,1006.05Z"/><path class="cls-27" d="M448.06,1023.05s-47.92-.8-17.31-31.17c0,0,35.39-30.37,34.59-41.56,0,0-28,3.2-28.77-3.2,0,0-11.12,17.59-23.14,22.38,0,0-31.4,10.39-24.11-9.59,0,0,9.69-8,8.89-12.79l.8,4.8s-9.07-17.87-30.11-6.14l-70.59,36.64S259.15,995.08,248,992.68c0,0-6.39-9.33-15.19-10.26,0,0,31.44,49.34,20.25,51.61l-36.67,16.22s-16,18.43-72.29,0L353.46,1119s-34.6-74.66,16.43-63.47l48.18-17.68Z"/><path class="cls-32" d="M393.76,671.48s75.58,1.36,87.15-2.05"/><path class="cls-33" d="M390.73,692q10.9.08,21.82,0c7.27,0,14.54-.05,21.81-.16s14.53-.32,21.8-.51c3.63-.06,7.26-.2,10.88-.37,1.82-.1,3.63-.15,5.44-.35.9-.08,1.81-.13,2.71-.24l2.68-.45,0,.1-2.66.63c-.9.17-1.8.27-2.7.42-1.81.28-3.62.4-5.44.59s-3.63.26-5.45.39-3.63.2-5.45.28c-7.27.32-14.55.31-21.83.31-14.54,0-29.09-.21-43.63-.58Z"/><path class="cls-34" d="M559.16,450s-45.77,21.56-22.88,70h7.53s17.13-14.47,15.35-48.43c0,0-8,5.32-6.79,9.75,0,0-2.06-17.13,10.34-25.4C562.71,455.92,573.93,444.11,559.16,450Z"/><path class="cls-35" d="M537.61,519.06s-2.27-28.08,6.2-32.28c0,0-1.48,9.5,0,11.44,0,0,3.17-1,2.47-3.38,0,0,3.14,15.06-2.47,24.22Z"/><path class="cls-36" d="M536.28,520l3.82,68.8s.46,3.25,3.71,0V520S539.31,517,536.28,520Z"/><path class="cls-37" d="M532.34,551.34s-2.28-12,0-18.3c0,0-1.08-8.67,7.11,0,0,0,3.61,2.89,5.18-3.86,0,0,6.86-1.44,6.86,4.34,0,0-1.38,25.53-10.08,26.5Z"/><path class="cls-38" d="M459.66,631.68l29.27-21.81s14.5-19.68,19.2-33.73a9.58,9.58,0,0,1,.82-1.82l18.54-27.5a2.51,2.51,0,0,1,3.33-.77l16.64,9.63s-20.6,85.16-33.6,91.9l-24.93,36.61,51.31,155.95s1.79,5.23-15.77,9.13L472.67,695l-27.1-58.46,4-9.64-9.4-31.08s-1.8-10.83-15.53-9l-10.12-.36s-22,7-1.28-7.6c0,0,17.18-9.74,24-11.19,0,0,15.54-1.08,17.71,25.29C455,592.89,460.38,611.58,459.66,631.68Z"/><path class="cls-33" d="M452.24,608.67l-6.9-19s-1.21-11-13.86-10.84c0,0-25.55-1.23-40.06,18.4a17.94,17.94,0,0,0-3.55,11.45c.35,8.26,3.56,22.47,20.49,28.44,0,0,5.3,14.94-7.23,17.83,0,0-22.16,6.74-25.05,56.36,0,0-2.89,47.69-16.86,56.84,0,0-6.26,14,4.34,17.35,0,0-12.71,18.06-6.18,24.57,0,0,4,18.42,16.09-2.89,0,0,11,2.89,10.32-9l1.81-4.33s-.37,38.66-4,44.08c0,0-4.33,19.51,6.5,21.67,0,0,89.7,11.24,147-13.73,0,0-4,0-9-11.2,0,0-41.7-124.28-43.86-136.2,0,0,10.76-22.46,33.75-52,0,0,13-43.72-37.94-22.4L455,636.61l-1.1-20A27.65,27.65,0,0,0,452.24,608.67Z"/><polygon class="cls-39" points="419.56 858.45 405.24 933.07 403.66 924.93 397.16 871.1 410.89 852.67 469.73 859.79 458.65 941.08 455.69 941.63 450.99 919.15 445.35 865.68 419.56 858.45"/><path class="cls-40" d="M462.91,861.78,456.73,928s-18,5.28-21.64,1.3l1.81-57.81s-3.27-9.57-9.75-9.68c0,0-8.68.64-9,6.79,0,0-4.06,10.11-10.52,11.2l-3.93,45.16s-21.32,3.25-23.48.72l6.46-66.57,1.48-10h73Z"/><path class="cls-40" d="M380.18,925.65V944.9s23,2.94,34,2.1a4.13,4.13,0,0,0,3.36-6.06c-1.74-3.18-5.26-6.89-12.33-7.87l-1.58-8.14Z"/><path class="cls-40" d="M435.09,929.27v19s22.82,7.77,31,5.24c0,0,6.91-2,4.83-6.26a5.2,5.2,0,0,0-2.3-2.27c-2.87-1.51-10.63-5.3-13-3.31l1-13.66Z"/><path class="cls-41" d="M565.24,467s13,.47,15.94-7.8a11.89,11.89,0,0,0-8,0l2.66-2.95S566.42,457.61,565.24,467Z"/><path class="cls-41" d="M574.8,447.57s4.28-5.88,8.39-4.35C583.19,443.22,579.05,448.69,574.8,447.57Z"/><path class="cls-42" d="M482.27,696.34s-41.53,4.85-49.78,2.91c0,0-18.43-38.31-26.67-47,0,0-6.54.53-8,4.41,0,0,15.76,21.29,17.21,29l-21.57-25.52s-6.07,4.18-6.07,9.52l21.82,30h-15l.48,11.18h30.56s13.09,5.33,0,9.7H395.15l-.49,7.27h13.58v4.37H395.15l-.49,8.73H493.8l-1.36-7.28-28.91.49-.49-3.88,13.58-1.46-.48-8.73H461.59v-7.76L484.31,709Z"/><path class="cls-33" d="M404.29,738.15s73.59-.1,81.07-1.78"/><ellipse class="cls-43" cx="415.16" cy="754.85" rx="23.54" ry="21.92"/><path class="cls-44" d="M410.94,733.87s19.22-5.55,25.63,10.25-4.8,26.89-4.8,26.89S441.69,742,410.94,733.87Z"/><path class="cls-45" d="M386.59,783.68s2.13-12.81,0-25.2l-3.5,3.57a24,24,0,0,0-6.93,15.18C375.81,782.8,377.57,787.74,386.59,783.68Z"/><path class="cls-43" d="M403.66,924.93l-23.35-.62-.13,3.66s18.56,1,24.07,0Z"/><path class="cls-43" d="M435.09,938.53V934l21.11,1-.22,4.76S437.09,936.61,435.09,938.53Z"/><path class="cls-27" d="M919.19,897.44l-2.25,1.35a20.94,20.94,0,0,0-6.79,5.77,38.5,38.5,0,0,1-3.25,4,6,6,0,0,0-1.57,4.68,12,12,0,0,1-.65,3l-.67-.06a28.25,28.25,0,0,1-.41-12l-.46-.08-3.95,8.06c-1.36-7.38-1-14.69-.64-22.08-1.78,5.86-3.57,11.73-5.31,17.47l-6.39-31.48-.64.07c1.76,14,3.57,27.94,2.48,42a71.37,71.37,0,0,1-1.4-9.24c-.45-4.89-1.16-9.73-3.45-14.31-.7-1.39-1.58-2.72-2.38-4.09l-.51.15c2.45,7.53,5.32,15,2.62,23-2.11-10.19-7.93-18.85-15.83-26.68,3.78,6.6,8.16,13,10.07,20.25q-1.92-3.35-3.86-6.68l-.47.15q.91,4.37,1.82,8.71l-.45.13a28,28,0,0,0-13.46-15.34c2.81,3.54,5.42,6.64,7.8,9.86s4.46,6.49,5.22,10.69l-5.93-5.75-.46.29c1.26,3.1,3.53,6,3.47,9.41-1.56-2-2.71-4.13-5.41-5.4l2.28,7.11-.35.11c-.4-.48-.81-1-1.3-1.54-.27.54-.49,1-.87,1.7-4-3.83-2.76-8.44-3.53-12.61l-.47,0v10.23l-.35.1-2.31-2.71-.31.11c.25,1,.51,1.93.82,3.06-.64-.11-1-.13-1.35-.22l-3.05-.92,10.42,22.75h53.48Z"/><path class="cls-30" d="M847.83,1018.18l.85,4.93s27.74-2.55,31.15-5.61l-18.55-9.7S849.53,1014.6,847.83,1018.18Z"/><path class="cls-30" d="M746.87,991.31l35.06,19.4s43.23-5.1,66.72-19.4c0,0-4.42-6.47-8.85-6.47,0,0-48.68.5-55.49-5.19C784.31,979.65,761.5,975.31,746.87,991.31Z"/><path class="cls-46" d="M834.4,597.66l-.17.07a4.17,4.17,0,0,0-.44,7.55l43.11,23.27,4.36-8.08-26.18-14.14-3.47-1.87-5.39-2.91s12.78-1.56,14-4.84c0,0-6.63-7.06-10.78-5.82l-.76-6.88s-9.69-3.24-10.37-.13l3.07,8.12Z"/><path class="cls-46" d="M816.91,606s-8.35,1.72-1.07,8.92l24.61,16.2,3.31-5s12.26.86,3.31-5C847.07,621,820.92,602.56,816.91,606Z"/><polygon class="cls-47" points="806.95 634.95 818.96 645.95 827.47 645.95 846.53 655.14 856.43 654.5 892.06 666.31 908.83 675.22 934.02 686.8 950.1 690.2 967.16 691.26 941.51 671.82 928.23 664.67 910.53 653.52 907.81 659.22 858.45 651.39 850.34 633.01 831.6 634.71 806.95 634.95"/><path class="cls-26" d="M227.39,827.36c12.61-2.62,25.55-3.24,38.29-4.13,26.43-1.82,53.16-1.85,79.92-1.73,6.65,0,10.77.82,10.67,3.46s-1.6,4.85-10.51,4.76q-56.25-.54-112.5-1.29C231.66,828.41,230.12,827.88,227.39,827.36Z"/><path class="cls-26" d="M1146.88,867.58c-.79-2.92-9.27-5.65-1.76-8.78,29.16-3.32,58.53-1.56,90-.47-7.43,1.78-15.29,2.5-19.41,5.6,13.82-.3,26.12,1.67,39.24,1l62.16,1.12c3.73.44,9-.33,10.68,1.71l-24.9.17h-2.79l-107.77.29C1177.34,866.61,1162.06,867.57,1146.88,867.58Z"/></g></g></g></svg>