<svg xmlns="http://www.w3.org/2000/svg" xmlns:xlink="http://www.w3.org/1999/xlink" viewBox="0 0 1920 1076.05"><defs><style>.cls-1,.cls-36{fill:none;}.cls-2{isolation:isolate;}.cls-3{clip-path:url(#clip-path);}.cls-4{fill:url(#linear-gradient);}.cls-5{mix-blend-mode:screen;}.cls-6{fill:url(#radial-gradient);}.cls-7{fill:url(#radial-gradient-2);}.cls-8{fill:url(#radial-gradient-3);}.cls-9{fill:url(#radial-gradient-4);}.cls-10{fill:url(#radial-gradient-5);}.cls-11{fill:url(#radial-gradient-6);}.cls-12{fill:url(#radial-gradient-7);}.cls-13{fill:url(#radial-gradient-8);}.cls-14{fill:url(#radial-gradient-9);}.cls-15{fill:url(#radial-gradient-10);}.cls-16{fill:url(#radial-gradient-11);}.cls-17{fill:#3a365e;opacity:0.9;}.cls-18{fill:#443b6d;}.cls-19{fill:#170738;}.cls-20{fill:#342f60;}.cls-21{fill:#28254f;}.cls-22{fill:#282851;}.cls-23{fill:#100038;}.cls-24{opacity:0.8;}.cls-25{fill:#1a043d;}.cls-26{fill:url(#linear-gradient-2);}.cls-27{fill:#344b70;}.cls-28{fill:#34c2f7;}.cls-28,.cls-29,.cls-30{opacity:0.4;}.cls-29{fill:#4eeefc;}.cls-30{fill:#0895ca;}.cls-31{fill:#14052c;}.cls-32{fill:#ce346b;}.cls-33{fill:#f8878d;}.cls-34{fill:#df93a0;}.cls-35{fill:#f63e74;}.cls-36{stroke:#331e2c;stroke-miterlimit:10;}.cls-37{fill:#050817;}.cls-38{fill:#e06978;}.cls-39{fill:#fcc907;}.cls-40{fill:#100b12;}.cls-41{fill:#f4eaf2;}.cls-42{fill:#d54c7a;}.cls-43{fill:#322f44;}.cls-44{fill:#060817;}.cls-45{fill:#ed8898;}.cls-46{fill:#1e1521;}.cls-47{fill:#2a1c2d;}.cls-48{fill:#7b5c6e;}.cls-49{fill:#1e131a;}.cls-50{fill:#292951;}.cls-51{fill:#fde282;}.cls-52{fill:#2b2a56;}.cls-53{clip-path:url(#clip-path-2);}.cls-54{fill:url(#radial-gradient-12);}</style><clipPath id="clip-path"><rect class="cls-1" width="1920" height="1076.05"/></clipPath><linearGradient id="linear-gradient" x1="975.5" y1="-59.69" x2="975.5" y2="1039.76" gradientUnits="userSpaceOnUse"><stop offset="0.06" stop-color="#1d033e"/><stop offset="0.13" stop-color="#20053f"/><stop offset="0.22" stop-color="#2f0e45"/><stop offset="0.39" stop-color="#572653"/><stop offset="0.62" stop-color="#944a69"/><stop offset="0.84" stop-color="#ce6d7e"/><stop offset="1" stop-color="#f8878d"/></linearGradient><radialGradient id="radial-gradient" cx="895.17" cy="50.73" r="1809" gradientUnits="userSpaceOnUse"><stop offset="0.04" stop-color="#543a28"/><stop offset="0.04" stop-color="#543a28"/><stop offset="0.32" stop-color="#2f2117"/><stop offset="0.58" stop-color="#150f0a"/><stop offset="0.82" stop-color="#060403"/><stop offset="1"/></radialGradient><radialGradient id="radial-gradient-2" cx="895.16" cy="130.73" r="1809.01" xlink:href="#radial-gradient"/><radialGradient id="radial-gradient-3" cx="895.17" cy="130.73" r="1809.01" xlink:href="#radial-gradient"/><radialGradient id="radial-gradient-4" cx="895.17" cy="120.73" r="1809.01" xlink:href="#radial-gradient"/><radialGradient id="radial-gradient-5" cx="895.17" cy="130.73" r="1809.01" xlink:href="#radial-gradient"/><radialGradient id="radial-gradient-6" cx="537.02" cy="103.7" r="2631.5" xlink:href="#radial-gradient"/><radialGradient id="radial-gradient-7" cx="652.68" cy="130.73" r="1809.01" xlink:href="#radial-gradient"/><radialGradient id="radial-gradient-8" cx="895.17" cy="130.73" r="1809.01" xlink:href="#radial-gradient"/><radialGradient id="radial-gradient-9" cx="895.17" cy="130.73" r="1809" xlink:href="#radial-gradient"/><radialGradient id="radial-gradient-10" cx="925.17" cy="90.73" r="1809" xlink:href="#radial-gradient"/><radialGradient id="radial-gradient-11" cx="1145.17" cy="180.73" r="1809.01" xlink:href="#radial-gradient"/><linearGradient id="linear-gradient-2" x1="1467.39" y1="783.99" x2="1590.19" y2="19.52" gradientUnits="userSpaceOnUse"><stop offset="0.37" stop-color="#1d033e"/><stop offset="0.98" stop-color="#302d51"/></linearGradient><clipPath id="clip-path-2"><rect class="cls-1" x="2003.79" width="1920" height="1076.05"/></clipPath><radialGradient id="radial-gradient-12" cx="2928.96" cy="90.73" r="1809" xlink:href="#radial-gradient"/></defs><g class="cls-2"><g id="Layer_6" data-name="Layer 6"><g class="cls-3"><rect class="cls-4" y="-2.71" width="1951.01" height="982.35"/><g class="cls-5"><path class="cls-6" d="M237.57,137.42c-3.33,0-9.33-1.87-20.83-1.87-2,0-4,0-5.85.08-1.78-3-16.86-7.34-35.21-7.34a171.94,171.94,0,0,0-25,1.6c-.71,0-1.43,0-2.17,0a47.05,47.05,0,0,0-5.89.36c-3.35-2.15-10.5-3.64-18.8-3.64-1.43,0-2.82,0-4.17.13-4.21-3.59-15.23-6.16-28.19-6.16-16.59,0-30.05,4.2-30.05,9.38,0,.06,0,.12,0,.18h-.9c-11.18,0-20.25,2.06-20.25,4.61a1.39,1.39,0,0,0,.41.92c-9,.21-15.68.94-15.68,1.81,0,1-11.5,1.88,0,1.88H243.21C246.19,139.3,248.77,137.43,237.57,137.42Z"/><path class="cls-7" d="M1458.55,250.63c-3.33,0-9.33-1.88-20.83-1.88-2,0-4,0-5.85.08-1.78-3-16.86-7.34-35.21-7.34a171.76,171.76,0,0,0-25,1.61c-.71,0-1.43,0-2.17,0a47.13,47.13,0,0,0-5.89.35c-3.35-2.15-10.5-3.63-18.8-3.63-1.43,0-2.82,0-4.17.13-4.21-3.6-15.23-6.17-28.19-6.17-16.59,0-30,4.21-30,9.39,0,.06,0,.12,0,.17h-.9c-11.18,0-20.25,2.07-20.25,4.61a1.35,1.35,0,0,0,.41.92c-9,.21-15.68.94-15.68,1.82,0,1-11.5,1.87,0,1.87h218.14C1467.17,252.5,1469.75,250.64,1458.55,250.63Z"/><path class="cls-8" d="M151.84,312.46c-3.32,0-9.32-1.87-20.83-1.87-2,0-4,0-5.85.07-1.78-3-16.86-7.33-35.2-7.33a172.09,172.09,0,0,0-25,1.6c-.71,0-1.43-.05-2.17-.05a47.29,47.29,0,0,0-5.89.36c-3.35-2.15-10.49-3.64-18.79-3.64-1.43,0-2.83,0-4.17.13-4.22-3.59-15.23-6.16-28.19-6.16-16.6,0-30,4.2-30,9.38a1.13,1.13,0,0,0,0,.18h-.9c-11.19,0-20.25,2.06-20.25,4.61a1.42,1.42,0,0,0,.4.92c-9,.2-15.67.94-15.67,1.81,0,1-11.51,1.88,0,1.88H157.48C160.47,314.34,163.05,312.47,151.84,312.46Z"/><path class="cls-9" d="M430.67,275.74c0-1-5.13-1.88-11.46-1.88-1.17,0-2.3,0-3.36.09-1.43-1.53-9.47-2.7-19.21-2.7-2.4,0-4.69.07-6.81.2-1.09-1.91-4.31-3.29-8.1-3.29a14.5,14.5,0,0,0-3.24.35,10.07,10.07,0,0,0-4.46-2.72c-1.74-4.91-11.38-8.66-23-8.66a51.91,51.91,0,0,0-6,.35c-4.67-4.81-14.76-8.14-26.46-8.14-13.06,0-24.12,4.15-27.87,9.86l-1.75,0a89,89,0,0,0-9.64.52c-4.58-2.56-11.64-4.21-19.58-4.21-10.22,0-19,2.72-22.85,6.62a38.9,38.9,0,0,0-4.67-.29c-6.42,0-12,1.52-15.17,3.77a31.13,31.13,0,0,0-12.33-.18c-2.57-2.16-7-3.59-12-3.59-7.15,0-13.06,2.88-14.17,6.63-.7,0-1.42-.06-2.15-.06a37.33,37.33,0,0,0-8.84,1,81,81,0,0,0-13.1-1,88,88,0,0,0-9.27.47c-2.19-2.33-7.49-4-13.69-4-5.89,0-11,1.49-13.34,3.63a24,24,0,0,0-4.18-.35c-4.9,0-9.05,1.38-10.46,3.29-2.74-.13-5.69-.2-8.79-.2-12.57,0-23,1.17-24.79,2.7-1.37-.06-2.83-.09-4.34-.09-8.16,0-14.78.84-14.78,1.88s-8.16,1.87,0,1.87H432.12C438.44,277.61,430.67,276.77,430.67,275.74Z"/><path class="cls-10" d="M394.08,184.48H538.77c7.93,0-5.91-2.07-5.91-4.61s-6.43-4.61-14.37-4.61a36.79,36.79,0,0,0-8.83,1,80,80,0,0,0-13.11-1,90.74,90.74,0,0,0-9.26.46c-2.2-2.33-7.5-4-13.7-4-5.89,0-11,1.49-13.33,3.64a23.93,23.93,0,0,0-4.18-.36c-4.91,0-9.05,1.38-10.46,3.29-2.74-.13-5.7-.2-8.79-.2-12.57,0-22.95,1.17-24.79,2.7-1.37-.05-2.83-.08-4.34-.08-8.17,0-14.78.84-14.78,1.87S385.91,184.48,394.08,184.48Z"/><path class="cls-11" d="M1863.43,208c0-1.51-9.63-2.73-21.5-2.73-2.2,0-4.32,0-6.32.12-2.67-2.22-17.77-3.93-36.06-3.93-4.5,0-8.8.11-12.78.3-2-2.78-8.09-4.79-15.21-4.79a34.38,34.38,0,0,0-6.09.52c-3.45-3.13-10.83-5.29-19.4-5.29-9,0-16.73,2.39-19.92,5.79a129.69,129.69,0,0,0-13.48-.68,117.58,117.58,0,0,0-19.06,1.43,54.12,54.12,0,0,0-12.85-1.43c-1.07,0-2.11,0-3.14.09-1.61-5.47-10.21-9.65-20.61-9.65-7.33,0-13.76,2.08-17.49,5.22a45.16,45.16,0,0,0-17.94.27c-4.56-3.29-12.72-5.49-22.07-5.49a57,57,0,0,0-6.79.42c-5.62-5.67-18.38-9.63-33.24-9.63-11.55,0-21.83,2.4-28.48,6.13a127.12,127.12,0,0,0-14-.77c-.86,0-1.7,0-2.55,0-5.45-8.31-21.53-14.34-40.53-14.34-17,0-31.7,4.84-38.49,11.83a75.59,75.59,0,0,0-8.68-.51c-17,0-31,5.47-33.53,12.6a14.67,14.67,0,0,0-6.48,4A20.72,20.72,0,0,0,1382,197c-5.53,0-10.2,2-11.79,4.79-3.09-.19-6.42-.3-9.91-.3-14.17,0-25.87,1.71-27.94,3.93-1.55-.08-3.19-.12-4.89-.12-9.21,0-16.66,1.22-16.66,2.73s-11.31,2.72-2.11,2.72h554.73C1875.31,210.73,1863.43,209.51,1863.43,208Z"/><path class="cls-12" d="M1195.41,145.29c0-1-6.62-1.88-14.78-1.88-1.51,0-3,0-4.34.09-1.84-1.53-12.22-2.7-24.79-2.7-3.1,0-6,.07-8.79.2-1.41-1.91-5.56-3.29-10.46-3.29a24,24,0,0,0-4.18.35c-2.38-2.14-7.45-3.63-13.34-3.63-6.2,0-11.5,1.64-13.69,4a88,88,0,0,0-9.27-.47,80.91,80.91,0,0,0-13.1,1,37.33,37.33,0,0,0-8.84-1c-7.93,0-14.37,2.07-14.37,4.61s-13.84,4.61-5.9,4.61h144.69C1202.41,147.16,1195.41,146.32,1195.41,145.29Z"/><path class="cls-13" d="M1694.42,227.81c0-2.55-6.43-4.61-14.37-4.61a37.3,37.3,0,0,0-8.83,1,81.13,81.13,0,0,0-13.11-1,90.74,90.74,0,0,0-9.26.46c-2.2-2.33-7.5-4-13.7-4-5.89,0-11,1.49-13.34,3.64a23.93,23.93,0,0,0-4.18-.36c-4.9,0-9.05,1.38-10.46,3.29-2.74-.13-5.69-.2-8.79-.2-12.56,0-23,1.17-24.78,2.7-1.38-.05-2.83-.08-4.35-.08-8.16,0-14.78.84-14.78,1.87s-7,1.88,1.16,1.88h144.7C1708.26,232.42,1694.42,230.35,1694.42,227.81Z"/><path class="cls-14" d="M1918.18,109.92c2.12,0,4-1.86-4-1.87-2.36,0-6.62-1.88-14.78-1.88-1.45,0-2.84,0-4.15.08-1.27-3-12-7.34-25-7.34a87.23,87.23,0,0,0-17.71,1.61c-.51,0-1,0-1.54,0a24,24,0,0,0-4.18.35c-2.38-2.14-7.45-3.63-13.34-3.63-1,0-2,0-3,.13-3-3.6-10.8-6.16-20-6.16-11.78,0-21.32,4.2-21.32,9.38,0,.06,0,.12,0,.17h-.64c-7.94,0-14.37,2.07-14.37,4.61a1.67,1.67,0,0,0,.29.92c-6.39.21-11.12.94-11.12,1.82,0,1-8.17,1.87,0,1.87Z"/><path class="cls-15" d="M32.3,215.08c0-.87-4.73-1.6-11.12-1.81a1.72,1.72,0,0,0,.29-.92c0-2.55-6.44-4.61-14.37-4.61H6.46c0-.06,0-.12,0-.18,0-5.18-9.55-9.38-21.32-9.38-9.2,0-17,2.57-20,6.16-.95-.08-1.94-.13-3-.13-5.89,0-11,1.49-13.33,3.64a23.93,23.93,0,0,0-4.18-.36c-.53,0-1,0-1.54.05A87.31,87.31,0,0,0-74.57,206c-13,0-23.72,4.29-25,7.34-1.32,0-2.71-.08-4.15-.08-8.16,0-12.42,1.87-14.78,1.87-8,0-6.12,1.88-4,1.88H32.3C40.47,217,32.3,216.12,32.3,215.08Z"/><path class="cls-16" d="M889.87,316.37c0-1.76-8.71-3.18-19.45-3.18H869a4,4,0,0,0,1.46-2.86c0-5.1-13.09-9.22-29.23-9.22l-1.75,0c-3.74-5.71-14.8-9.86-27.86-9.86-11.7,0-21.79,3.33-26.46,8.14a52,52,0,0,0-6-.35c-11.67,0-21.32,3.76-23,8.66a10,10,0,0,0-4.46,2.72,15.11,15.11,0,0,0-3.24-.35c-3.8,0-7,1.38-8.11,3.29-2.12-.13-4.41-.2-6.81-.2-9.73,0-17.78,1.17-19.2,2.7-1.07-.05-2.2-.08-3.37-.08-6.32,0-11.45.84-11.45,1.87s-8.09,1.88-.22,1.88c4.94,0,136-.05,141.94,0,5.16,0,45.28,0,51.33,0C903.27,319.56,889.87,318.13,889.87,316.37Z"/></g><polygon class="cls-17" points="-17.46 501.27 135.5 466.22 227.09 350.12 253.13 394.54 349.11 469.06 436.03 469.06 436.57 454.56 515.67 485.36 546.13 467.96 846.25 543.32 896.07 529.02 930.26 560.81 1012.03 591.08 1163.65 542.53 1195.74 550.25 1437.97 503.76 1507.87 452.56 1534.67 458.32 1608.97 358.92 1628.79 368.5 1653.7 307.17 1830.9 452.56 1970 452.56 1970 773.66 -17.46 773.66 -17.46 501.27"/><path class="cls-1" d="M1060.79,780.3c0-.25-1.31,1.08-3,2.92C1060.06,785.8,1061.72,786.67,1060.79,780.3Z"/><path class="cls-18" d="M1350.86,743.92c-1.78.14-3.62-.62-5.77.09,1.21,2.32,3.25,3.06,4.86,4.24a26.41,26.41,0,0,1,5.25,4.29c3,3.75,3,7-.3,10.59-4.55,4.87-10.09,8.53-15.74,12-3.26,2-4.72,1.24-5.34-2.77q-2.49-15.95-4.57-32c-.47-3.53-1.49-7.05-.76-10.69A135.79,135.79,0,0,1,1350.86,743.92Z"/><path class="cls-1" d="M1047.36,648.84l-.83-.31Z"/><path class="cls-1" d="M1049.63,637.66c2,1,4,1.87,6,2.79C1053.64,639.53,1051.63,638.61,1049.63,637.66Z"/><path class="cls-1" d="M1057.24,641.16l5.62,2.51Z"/><path class="cls-1" d="M1240.45,705.26a123.29,123.29,0,0,0,2.56-13.57,123.29,123.29,0,0,1-2.56,13.57c-.39,3.4-.79,6.81-1.18,10.22Z"/><path class="cls-1" d="M1220.84,709.31c-9.94-4.21-19.94-8.25-30-12C1200.9,701.06,1210.9,705.1,1220.84,709.31Z"/><path class="cls-1" d="M1070.36,656.9c-2.17-.71-4.34-1.44-6.5-2.17C1066,655.46,1068.19,656.19,1070.36,656.9Z"/><path class="cls-1" d="M1191.2,689.46Q1171,682.77,1150.83,676q-7.57-2.52-15.16-5,7.57,2.51,15.16,5Q1171,682.78,1191.2,689.46Z"/><path class="cls-1" d="M1054.12,651.32l-2.6-1Z"/><path class="cls-1" d="M20.14,535.71c-3.06,1.71-4.15,4.23-3.77,7.56.14,1.26-.42,2.9,1,3.58s2.4-.8,3.22-1.72Q26.1,539,31.39,532.65c1-1.24,2.6-2.28,2.28-5.1C28.52,529.93,24.57,533.22,20.14,535.71Z"/><path class="cls-1" d="M1061.26,653.83c-1.25-.43-2.49-.86-3.72-1.3C1058.77,653,1060,653.4,1061.26,653.83Z"/><path class="cls-1" d="M1234.69,749.26q1.17-8.44,2.3-16.89-1.14,8.45-2.3,16.89-.8,5.79-1.57,11.57h0Q1233.9,755,1234.69,749.26Z"/><path class="cls-1" d="M53.72,467.46a1.72,1.72,0,0,0-1.45,2.47c.34,1,1.1,1.64,2.11,1.32,1.86-.6,3.83-1.16,5.08-3.38A9.08,9.08,0,0,0,53.72,467.46Z"/><path class="cls-1" d="M1239.27,715.48q-1.15,8.44-2.28,16.89,1.14-8.45,2.28-16.89Z"/><path class="cls-1" d="M1135.67,671c-8.42-2.79-16.83-5.61-25.14-8.7-8-3-16-5.89-23.92-9,7.94,3.06,15.94,6,23.92,9C1118.84,665.42,1127.25,668.24,1135.67,671Z"/><path class="cls-1" d="M110.16,454.35a21.59,21.59,0,0,0-7.49-1.21c-1,0-1.91.46-1.9,1.64,0,1.91.18,4,1.75,5.19s2.78-.52,3.93-1.35C107.78,457.66,109.48,457,110.16,454.35Z"/><path class="cls-1" d="M107.25,467.29c-1.72.22-2.88,1.12-2.33,3.07s2,2,3.56,1.19c2.47-1.34,4.91-2.73,7.37-4.11-.1-.39-.19-.79-.28-1.18C112.74,466,110,466.93,107.25,467.29Z"/><path class="cls-19" d="M406.88,720.29c-23.06-28.71-39.43-46.68-59.56-77.52a26.78,26.78,0,0,0-8.4-8.25q-23.39-14.68-45.34-31.46a12.19,12.19,0,0,1-5.16-8.95c-.7-6.41-1.78-12.77-2.72-19.15q-15.78-107.49-31.61-215c-.74-5-1.12-10-2.69-15.44-1.82,1.93-1.57,3.91-1.83,5.68q-10.19,68.94-20.3,137.88c-2.57,17.45-5.12,34.9-7.78,52.33-.61,4.05-1.53,4.46-4.56,2q-11.51-9.29-22.77-18.89c-2.78-2.37-2.69-3,.34-5.11,4.38-3,8.91-5.78,13.34-8.71,4.77-3.14,4.81-3.18,3.27-8.78-4.93-17.91-9.81-35.85-14.89-53.72-3.48-12.25-.94-8.63-11.63-16.27l-9.77-7c3.88-1.24,6.68-.32,9.41-.34,4.91,0,5.32-.42,4-5.29q-20-72.37-40.09-144.74c-.31-1.12-.16-2.73-1.91-3-3.43,6.91-5.09,14.37-4.24,20.76.39,2.87.08,5.23-2.24,7.15s-3.26,4.53-4,7.33c-4.1,15-8.28,30-12.43,45a25.33,25.33,0,0,0-.84,3.3c-.43,3,.17,3.7,3.28,3.79,2.95.08,5.89,0,8.87,0,0,1.81-1.44,2.31-2.37,3.12-3.58,3.1-7.14,6.25-10.92,9.11a16.17,16.17,0,0,0-6,9.26c-5,18.67-10.29,37.29-15.5,55.91-.52,1.84-.63,4-2.35,5.41-.52-.63-.88-.87-1-1.2-.67-2.17-1.3-4.36-1.94-6.54-2-7-1.19-7.19-9.1-7.09-1.61,0-3.37.57-5-.89,1-2.62,3.34-4.09,5.26-5.74,2.91-2.51,3.88-5.05,2.68-8.95-2.91-9.42-5.36-19-8-28.49-.56-2-1.06-4.08-2.63-5.59-1.85-1.78-2-3.87-1.69-6.27.49-4.24-1-8-2.93-12.12-.64.88-1.11,1.28-1.24,1.76Q64.77,384.78,57.77,410a5.86,5.86,0,0,0,1.31,5.79c2.58,3,5.12,6.11,7.58,9.24,2.79,3.54,2.85,3.8.29,7.42-5,7.13-10.15,14.19-15.27,21.26-.64.89-1.17,2-2.91,2.15a17.24,17.24,0,0,0-6.84-8.3c-3.09-1.84-6.45-3.61-8.69-6.62a3.33,3.33,0,0,1,3.08-1.06c7.35.53,7.44-.24,5.49-7.19C37.5,417.34,33.28,402,29,386.63q-9.27-33.44-18.57-66.87c-.5-1.79-.41-4.07-2.94-5.35-1.78,5.72-4.31,10.89-3,16.81a5.47,5.47,0,0,1-1.85,5.63c-2.11,1.86-2.84,4.38-3.56,7q-5.25,18.92-10.59,37.8c.1,1.57-.13,3.18.58,4.67,1.65-.12,3.31-.3,5-.35.89,0,1.89,0,2.29,1.1A1.75,1.75,0,0,1-4.36,389c-2.77,2.38-5.11,5.36-8.84,6.41V530.81c5,.64,8.19,4.36,11.82,7.24,1.25,1,1,2.8,1,4.3,0,6.24,0,12.49,0,18.73a6.82,6.82,0,0,1-3,6.31c-3.28,2.22-6,5.25-9.82,6.66V760.83H508.45C473.82,747.39,407.58,721.16,406.88,720.29ZM31.39,532.65Q26.11,539,20.62,545.13c-.82.92-1.68,2.44-3.22,1.72s-.89-2.32-1-3.58c-.38-3.33.71-5.85,3.77-7.56,4.43-2.49,8.38-5.78,13.53-8.16C34,530.37,32.42,531.41,31.39,532.65Zm23-61.4c-1,.32-1.77-.3-2.11-1.32a1.72,1.72,0,0,1,1.45-2.47,9.08,9.08,0,0,1,5.74.41C58.21,470.09,56.24,470.65,54.38,471.25ZM102.52,460c-1.57-1.19-1.73-3.28-1.75-5.19,0-1.18.89-1.66,1.9-1.64a21.59,21.59,0,0,1,7.49,1.21c-.68,2.63-2.38,3.31-3.71,4.27C105.3,459.45,104.06,461.14,102.52,460Zm6,11.58c-1.56.85-3,.84-3.56-1.19s.61-2.85,2.33-3.07c2.77-.36,5.49-1.34,8.32-1,.09.39.18.79.28,1.18C113.39,468.82,111,470.21,108.48,471.55Z"/><path class="cls-20" d="M1329.25,740.36c-.46-3.53-1.49-7.05-.76-10.69-1.79-2.62-1.85-5.73-2.28-8.68-2.1-14.2-4.07-28.42-6.11-42.62-.3-2.1-.27-4.31-2.18-7-2.35,15.88-4.55,30.79-6.76,45.7q-3.15,21.9-6.31,43.8h27.25Q1330.6,750.6,1329.25,740.36Z"/><path class="cls-20" d="M566.91,727.88c-.17-1.14,0-2.48-1.47-3.76-.44,1.84-.84,3.09-1,4.37-1.55,10.78-3,21.57-4.59,32.34h11.86Z"/><path class="cls-20" d="M1350.86,743.92c-1.78.14-3.62-.62-5.77.09,1.21,2.32,3.25,3.06,4.86,4.24a26.41,26.41,0,0,1,5.25,4.29c2.39,2.93,2.89,5.57,1.4,8.29h32.76C1376.39,755.5,1363.24,750.59,1350.86,743.92Z"/><path class="cls-20" d="M1243.48,688.27c-.15,1.14-.31,2.28-.47,3.42a123.29,123.29,0,0,1-2.56,13.57l-1.18,10.22q-1.15,8.44-2.28,16.89t-2.3,16.89q-.8,5.79-1.57,11.57h56.59q-3.95-27.65-7.86-55.28c-.24-1.67-.21-3.39-.3-5.09a13.63,13.63,0,0,1-1.33-4.9q-7.4-51.46-14.84-102.93c-1.11-7.62-1.74-15.34-3.66-23.1-1.63,1.38-1.49,3-1.7,4.45-1.28,8.61-2.46,17.25-3.7,25.87Q1250.68,638.94,1245,678h0C1244.41,681.42,1244,684.84,1243.48,688.27Z"/><path class="cls-21" d="M1017.51,597.15c-5.36,4.16-6.38,9-3.46,15,3,6.3,8.69,10,14.15,13.61a167.74,167.74,0,0,0,21.43,11.88c2,1,4,1.87,6,2.79l1.58.71,5.62,2.51.1,0c5.85,2.58,11.76,5,17.7,7.36q3,1.17,5.95,2.31c7.94,3.06,15.94,6,23.92,9,8.31,3.09,16.72,5.91,25.14,8.7q7.57,2.51,15.16,5,20.18,6.74,40.37,13.42,9.19,3,18.38,6.06c2.57.84,5.13,1.67,7.7,2.48,7.71,2.46,15.45,4.83,23.17,7.26a123.29,123.29,0,0,0,2.56-13.57c.16-1.14.32-2.28.47-3.42.47-3.43.93-6.85,1.53-10.25h0a16.25,16.25,0,0,1-5.22-2.2c-11.28-6.23-22.53-12.52-33.85-18.69q-26.64-14.53-54-27.68h0L1036.57,571.9l-5,6.64h0c-.81,1.9-4.36,9.46-6.24,11.75C1021.89,591.57,1020.34,595,1017.51,597.15Z"/><path class="cls-21" d="M1040,728.58c.17-1.17-.34-2.78,1.51-3.29,1.38,1.57,1.41,3.54,1.67,5.36q2.2,15.08,4.33,30.18h185.62q.78-5.79,1.57-11.57,1.17-8.44,2.3-16.89t2.28-16.89c-5.3-.06-9.89-2.52-14.56-4.52-1.29-.56-2.58-1.1-3.87-1.65-9.94-4.21-19.94-8.25-30-12q-3.42-1.29-6.87-2.53-6.87-2.47-13.82-4.79-24.94-8.26-49.87-16.56t-49.88-16.51c-2.17-.71-4.34-1.44-6.5-2.17l-2.6-.9c-1.25-.43-2.49-.86-3.72-1.3l-3.42-1.21-2.6-1c-1.39-.5-2.78-1-4.16-1.53l-.83-.31c-11.08-4.15-22-8.65-32.81-13.58-8.39-3.85-16.6-8.33-23.23-15.09-8.47-8.65-8-16,1.51-23.32q2.47-1.9,5-3.71c1.6-1.13,22.35-21.24,22.6-23.3h0L945,606.78c-13.94,6.15-27.64,12.83-41.28,19.64-28,14-55.56,28.79-83.18,43.49-7.82,4.16-7.94,4-9.17-4.68Q810.21,657,809,648.79l-4,2.89,2.28-11.5c-2.55-17.92-3.86-30.78-6.44-48.7-.23-1.6-.17-3.36-2.19-5.3-1.59,11.12-2.87,20.46-4.44,31.1l2.61,5.36-3.14-1.75q-.42,2.83-.85,5.67c-2,13.13-3.39,26.36-6.54,39.37-1.14-6.09-2.17-12.19-3.15-18.3l-6.44,5.53,5.95-8.55-1.72-11.18-9.13,2.64,7.75-12c-2-13.5-3.88-27.07-6.15-40.71-2.4,1.81-2,3.66-2.26,5.23l-2.91,20,4.08,9-5-3q-2.21,15.18-4.4,30.35l9.35,12.7L762.79,654c-2.2,15.35-5,27.31-7.11,42.67-.89,6.61-3.51,10.63-9.52,13.31-7.1,3.16-13.88,7-20.77,10.61-26.88,14-54,27.6-81.49,40.29h391.49Q1037.69,744.71,1040,728.58Z"/><path class="cls-21" d="M1031.54,578.54l-5.89-4.45C1026.16,576.84,1026.34,579.63,1031.54,578.54Z"/><path class="cls-21" d="M1043.17,730.65c-.26-1.82-.29-3.79-1.67-5.36-1.85.51-1.34,2.12-1.51,3.29q-2.31,16.13-4.6,32.25h12.11Q1045.36,745.74,1043.17,730.65Z"/><path class="cls-21" d="M1243.48,688.27c.47-3.43.93-6.85,1.53-10.25h0C1244.41,681.42,1244,684.84,1243.48,688.27Z"/><path class="cls-22" d="M1240.45,705.26c-7.72-2.43-15.46-4.8-23.17-7.26-2.57-.81-5.13-1.64-7.7-2.48q-9.19-3-18.38-6.06Q1171,682.77,1150.83,676q-7.57-2.52-15.16-5c-8.42-2.79-16.83-5.61-25.14-8.7-8-3-16-5.89-23.92-9q-3-1.14-5.95-2.31c-5.94-2.35-11.85-4.78-17.7-7.36l-.1,0-5.62-2.51-1.58-.71c-2-.92-4-1.84-6-2.79h0l-25.19,2q11,4.68,22.12,8.86l.83.31c1.38.52,2.77,1,4.16,1.53l2.6,1,3.42,1.21c1.23.44,2.47.87,3.72,1.3l2.6.9c2.16.73,4.33,1.46,6.5,2.17q24.95,8.22,49.88,16.51T1170.11,690q6.95,2.31,13.82,4.79,3.45,1.25,6.87,2.53c10.1,3.77,20.1,7.81,30,12,1.29.55,2.58,1.09,3.87,1.65,4.67,2,9.26,4.46,14.56,4.52h0C1239.66,712.07,1240.06,708.66,1240.45,705.26Z"/><path class="cls-22" d="M1019.63,569.53h0l6,4.56C1025.2,571.6,1024.49,569.14,1019.63,569.53Z"/><path class="cls-22" d="M1224.71,711c-1.29-.56-2.58-1.1-3.87-1.65,1.29.55,2.58,1.09,3.87,1.65,4.67,2,9.26,4.46,14.56,4.52h0C1234,715.42,1229.38,713,1224.71,711Z"/><path class="cls-22" d="M1120.24,673.41q24.93,8.28,49.87,16.56,6.95,2.31,13.82,4.79-6.87-2.47-13.82-4.79Q1145.17,681.71,1120.24,673.41Z"/><path class="cls-22" d="M997,592.83q-2.55,1.8-5,3.71c-9.53,7.35-10,14.67-1.51,23.32,6.63,6.76,14.84,11.24,23.23,15.09,10.77,4.93,21.73,9.43,32.81,13.58q-11.16-4.18-22.12-8.86l25.19-2h0a167.74,167.74,0,0,1-21.43-11.88c-5.46-3.66-11.13-7.31-14.15-13.61-2.92-6.06-1.9-10.86,3.46-15,2.83-2.2,4.38-5.58,7.79-6.86,1.88-2.29,5.43-9.85,6.24-11.75h0c-5.2,1.09-5.38-1.7-5.89-4.45l-6-4.56C1019.38,571.59,998.63,591.7,997,592.83Z"/><path class="cls-22" d="M1217.28,698c7.71,2.46,15.45,4.83,23.17,7.26C1232.73,702.83,1225,700.46,1217.28,698Z"/><path class="cls-22" d="M1063.86,654.73l-2.6-.9Z"/><path class="cls-22" d="M1057.54,652.53l-3.42-1.21Z"/><path class="cls-22" d="M1055.66,640.45l1.58.71Z"/><path class="cls-22" d="M1051.52,650.37c-1.39-.5-2.78-1-4.16-1.53C1048.74,649.36,1050.13,649.87,1051.52,650.37Z"/><path class="cls-22" d="M1217.28,698c-2.57-.81-5.13-1.64-7.7-2.48q-9.19-3-18.38-6.06,9.19,3,18.38,6.06C1212.15,696.36,1214.71,697.19,1217.28,698Z"/><path class="cls-22" d="M1080.66,651.07c-5.94-2.35-11.85-4.78-17.7-7.36l-.1,0,.1,0C1068.81,646.29,1074.72,648.72,1080.66,651.07Z"/><path class="cls-21" d="M1060.79,780.3c0-.25-1.31,1.08-3,2.92C1060.06,785.8,1061.72,786.67,1060.79,780.3Z"/><path class="cls-23" d="M1273.83,698.68,1458.2,525.37l27.39,21.82,84.75-15.79,117.1-106.46,148-134.57,18-101.5L1920,229.72v574s-144.09,22.47-187,0c0,0-132.76,16.34-185.87-6.13,0,0-159.69,33.7-243.44-1,0,0,4.16,3-14.22-13.4,0,0-24.68,6.45-48.21,4-15-1.55-30.12-4.26-43.16-6.4-11.15-1.82-16.87-11-20.44-13l-30.8,2.67,105.87-89.29Z"/><g class="cls-24"><path class="cls-25" d="M1403.74,776.69l8.43-81.6-82.86,103.44,62.58-9.43A14,14,0,0,0,1403.74,776.69Z"/><path class="cls-26" d="M1303.7,796.53l111-128.55V635.17l67.62-73.65h11.38a39.41,39.41,0,0,1,0,9.38s52.89-4.69,77.67-2.68c0,0,2-14.73,8-17.41,0,0,45.53-8,62.93-8,0,0,4-6.7-22.76-6.7,0,0,58.25-56.91,123.53-89L1728,439l135.72-113.48V204l-10.21-15.13-18,101.5-265.13,241-84.36,7-13-9s-10.72-5.36-14.73-4L1272.74,695.09l-19.42-17.74-106.45,93.06,30.8-2.67,16,12.36,47.59,7,11.22,5.09,19.06-3.18,11.43-5.54,6.5-.39,1,11.45Z"/><path class="cls-25" d="M1674.45,587.63a52.73,52.73,0,0,1-11.38,10.72h91V584.29H1693.2s16.07-11.38,15.4-16.74c0,0-14.06-4.69-18.75,0l-6-8.7s-15.39,2.67-14.06,7.36l10,8.7Z"/><rect class="cls-25" x="1760.82" y="507.96" width="12.05" height="6.03"/><polygon class="cls-25" points="1780.9 492.56 1799.65 492.56 1813.04 479.17 1780.9 492.56"/><path class="cls-25" d="M1788.94,468.46s46.48-49.54,74.79-53.56v34.81l-34.62,14.06-11.38,4.69Z"/><path class="cls-25" d="M1605.49,558.85s-6,6,4,8H1639v-6s10.71-6,0-6C1639,554.83,1607,553.8,1605.49,558.85Z"/><path class="cls-25" d="M1658.38,540.1s-10,13.89,0,14.64c0,0,18.08.67,24.11-7.32C1682.49,547.42,1677.2,537.36,1658.38,540.1Z"/></g><polygon class="cls-27" points="1191.74 760.83 -76.69 760.83 -76.69 1188.27 1967.91 1188.27 1967.91 775.13 1191.74 760.83"/><path class="cls-28" d="M735.77,764c2.13.27,4.22.61,6.41.8,2.72.25,6,.43,6.18,1.56s-3.54,1.32-6,1.64c-6.82.89-13.76,1.69-20.64,2.52C657.33,772.33,593,772.43,529,768.6c3.2-1.66,11.6-1.27,12.32-3.91,7.38.86,13.91-.66,20.88-.94,25.23-.29,50.13-2,75.52-1.91,16.88.09,33.52,1.55,50.46.88,11.67-.14,22.92,1.6,34.7,1Z"/><path class="cls-29" d="M293.58,803.13c-.79-2.93-9.27-5.65-1.76-8.79,29.16-3.32,58.53-1.56,90-.47-7.43,1.78-15.29,2.5-19.41,5.6,13.82-.3,26.12,1.67,39.24,1l62.16,1.12c3.73.44,9-.33,10.68,1.71l-24.9.17h-2.79l-107.76.3C324,802.15,308.76,803.11,293.58,803.13Z"/><path class="cls-30" d="M632.13,780.52c64,3.83,128.31,3.73,192.75,1.94,8.34,2.28,18.38-.64,27,1.1,2.29.47,6,.3,6,1.62,0,1-2.68,1.2-4.93,1.47-16.91,2-33.8,3.4-52,2.35-21.25-1.24-42.86-.32-64.06.2-14.48.36-29.52-.54-45.4,1.13,6.08,2.22,20.45-.09,18.06,4.89l-5.67-.23c-5-2.19-11.82-1.09-17.94-1.29-7.9,0-15.86.28-23.7,0-23.54-.69-47.37-1.2-66-7.43l.36.32,3.17-1,28-5.29Z"/><path class="cls-29" d="M683.59,816c21.38-5.33,44.76-1.87,67.28-1.83,15,0,30,.63,45,.89a55.93,55.93,0,0,1,14,2.16c5,1.28,7.66,3.2,5.89,5.22s-7.72,1.4-12.27,1.62c-6.67.31-14.36-1-19.68,1.52l-33.85-.4a43.12,43.12,0,0,0-19.45-.2l-11.5-.2c-15-4.8-25.34-5.56-37.68-2.74C682,820,682.81,818,683.59,816Z"/><path class="cls-29" d="M140.89,765.4c12.62-2.62,25.55-3.25,38.29-4.13,26.44-1.83,53.16-1.85,79.92-1.73,6.65,0,10.78.81,10.67,3.46s-1.6,4.84-10.5,4.76q-56.26-.54-112.5-1.29C145.17,766.45,143.62,765.91,140.89,765.4Z"/><path class="cls-29" d="M760,789.53c12.62-2.62,25.55-3.25,38.3-4.13,26.43-1.83,53.15-1.85,79.92-1.73,6.64,0,10.77.81,10.66,3.46s-1.6,4.84-10.5,4.76q-56.26-.54-112.5-1.29C764.27,790.58,762.72,790,760,789.53Z"/><path class="cls-28" d="M1181.09,768.65c2.13.27,4.22.61,6.41.81,2.72.24,6,.42,6.18,1.55s-3.54,1.32-5.94,1.64c-6.83.89-13.77,1.69-20.65,2.52-64.44,1.79-128.75,1.89-192.75-1.94,3.2-1.66,11.6-1.27,12.32-3.91,7.38.87,13.91-.66,20.88-.94,25.23-.29,50.13-2,75.52-1.9,16.88.08,33.52,1.54,50.46.87,11.67-.14,22.92,1.61,34.7,1Z"/><path class="cls-29" d="M778.91,777.76c-.8-2.92-9.28-5.65-1.77-8.79,29.17-3.32,58.53-1.56,90-.47-7.42,1.78-15.29,2.5-19.41,5.6,13.82-.3,26.12,1.68,39.24,1l62.16,1.12c3.73.44,9-.32,10.68,1.71l-24.89.17h-2.79l-107.77.3C809.36,776.78,794.08,777.75,778.91,777.76Z"/><path class="cls-30" d="M1069,789.29c64,3.82,128.31,3.72,192.75,1.93,8.35,2.28,18.38-.64,27,1.11,2.29.46,6,.3,6,1.62,0,1-2.69,1.2-4.93,1.46-16.91,2-33.8,3.41-52,2.35-21.24-1.23-42.86-.32-64.06.21-14.48.35-29.51-.54-45.4,1.13,6.08,2.22,20.46-.09,18.07,4.89l-5.68-.23c-5-2.19-11.82-1.1-17.94-1.29-7.9,0-15.85.27-23.69,0-23.54-.69-47.37-1.21-66-7.44l.35.33,3.17-1,28-5.3Z"/><path class="cls-29" d="M1265.32,823.6c21.38-5.32,44.76-1.86,67.28-1.82,15,0,30,.63,45,.88a56.86,56.86,0,0,1,14,2.16c5,1.29,7.66,3.21,5.89,5.22s-7.72,1.41-12.27,1.62c-6.66.31-14.36-1-19.68,1.53l-33.85-.4a42.84,42.84,0,0,0-19.45-.2l-11.5-.2c-15-4.81-25.34-5.56-37.68-2.74Z"/><path class="cls-29" d="M841.32,845.18c12.61-2.62,25.55-3.25,38.29-4.13,26.44-1.83,53.16-1.85,79.92-1.73,6.65,0,10.77.81,10.67,3.46s-1.6,4.84-10.5,4.76q-56.26-.54-112.5-1.29C845.6,846.23,844.05,845.69,841.32,845.18Z"/><path class="cls-29" d="M1005.4,866.37c12.62-2.62,25.55-3.25,38.29-4.13,26.44-1.83,53.16-1.85,79.92-1.73,6.65,0,10.77.81,10.67,3.46s-1.6,4.84-10.5,4.75q-56.27-.53-112.5-1.28C1009.68,867.42,1008.13,866.88,1005.4,866.37Z"/><path class="cls-29" d="M400.13,787c12.62-2.62,25.55-3.25,38.3-4.13,26.43-1.82,53.15-1.85,79.92-1.73,6.64,0,10.77.82,10.67,3.46s-1.6,4.85-10.51,4.76q-56.26-.54-112.5-1.29C404.41,788,402.87,787.51,400.13,787Z"/><path class="cls-30" d="M1333.41,763.77c64,3.83,128.31,3.73,192.75,1.94,8.35,2.28,18.38-.64,27,1.11,2.29.46,6,.3,6,1.61,0,1-2.69,1.21-4.93,1.47-16.91,2-33.8,3.41-52,2.35-21.25-1.23-42.86-.32-64.06.2-14.48.36-29.51-.53-45.4,1.14,6.08,2.22,20.46-.09,18.07,4.89l-5.68-.23c-5-2.19-11.82-1.1-17.94-1.29-7.9,0-15.85.27-23.69,0-23.54-.7-47.37-1.21-66-7.44l.35.33,3.17-1,28-5.3Z"/><path class="cls-29" d="M1604.08,835.58c21.38-5.32,44.76-1.86,67.28-1.82,15,0,30,.63,45,.88a56.36,56.36,0,0,1,14,2.17c5,1.28,7.66,3.2,5.89,5.22s-7.72,1.4-12.27,1.61c-6.67.32-14.36-1-19.68,1.53l-33.85-.4a43,43,0,0,0-19.45-.2l-11.5-.2c-15-4.81-25.34-5.56-37.68-2.74Z"/><path class="cls-31" d="M2031.45,822.37c-22-5.27-56-10.59-74.7.88a27.42,27.42,0,0,1-16.49,4.08c-29.29-2.31-111.37-7.15-124.73,9.82a25.43,25.43,0,0,1-10.08,7.48c-33.47,14.26-157.79,65.67-187.76,55.09l-28.56-10.08a26.85,26.85,0,0,0-12.57-1.3c-35.07,4.73-205.65,26.68-300.88,19.63-.76-.05-1.52-.08-2.28-.07l-25.46.31a26.9,26.9,0,0,1-17.82-6.44L1196,872.71A27,27,0,0,0,1166.6,869c-17.16,8.45-44,22.34-59.63,33.81a27,27,0,0,1-24.71,3.82l-4.44-1.52a27,27,0,0,0-17.69.1c-11.41,4-30.14,11.76-36.59,20.87-10.54-13-45-22.87-45-22.87l-27.65,9.43c-14.3-17.43-85.7-50.34-85.7-50.34l-55.16,47-36.72-.45c-106.21,8.17-308.43-20.43-308.43-20.43l-34.72,12.26c-21.3,7.52-90.27-16.28-140.4-35.79a10.2,10.2,0,0,0-4.09-1.69l-.37-.06c-5.3-2.08-10.35-4.1-15.08-6a29.82,29.82,0,0,0,2.72-1.34c4.15-2.33,4.31-3.83,1.79-7.9-.39-.62-1.08-1.18-1.16-1.83-.57-4.67-4.22-6.65-7.55-9-4.45-3.16-8.67-6.66-13.22-9.67a15.36,15.36,0,0,0-6.75-2.37c-5.06-.47-10.17-.39-15.26-.57-.61,0-1.45-.08-1.77-.46-1.75-2.13-3.95-1.73-6.26-1.46-6.24.7-12.07,2.2-17.27,5.62-6.66-.95-14.09-1.56-21.86-1.9a34.22,34.22,0,0,0-1.13-8.66c-.6,2.8-.91,5.68-1.36,8.55-2.91-.11-5.85-.18-8.81-.23v-.08l-.07.08-2.26,0,5.76-19c-5.47,5.07-8,11.73-10.33,18.49l-.82-.12V814.18l-.88-.07-2.89,11.79h-1.46c-.22-1.37-.45-2.74-.67-4.1l-.66,0c-.25,1.37-.51,2.74-.77,4.11l-1.64,0q-2.2-7.17-4.42-14.35c-.31,4.87.83,9.64,1.53,14.41-3.11.06-6.19.15-9.2.25.41-1,.84-2.07,1.21-3.1l-.93-.34c-.49,1.16-1,2.32-1.45,3.48l-4.73.19a21,21,0,0,0-.76-6.93c-.8,2.36-1.61,4.71-2.41,7.07l-3.4.17V815.55l-1-.09a35.92,35.92,0,0,1-2,11.51c-3.78.2-7.33.42-10.59.64l2.55-5.19c-.2-.11-.4-.22-.59-.34-1.2,1.9-2.4,3.79-3.56,5.64l-4.36.31c.38-2,.77-4,1.17-6l-.71-.33-3.14,6.56-1.37.11a17.67,17.67,0,0,1,.12-5.25c1.19-4.49,2.31-8.92,1.37-13.68-1.89,6.33-3.77,12.66-5.75,19.28l-3.25.28c-.6-4.2,0-8.36-.6-12.37-.84,4.07-1.6,8.16-2.55,12.21A28.91,28.91,0,0,0,90,823.65a4,4,0,0,0-.16-1.85c-.17.49-.33,1-.49,1.49a47.54,47.54,0,0,0-13.81-4.58q-1.48-8-2.93-16c-.14-.78-.31-1.55-.47-2.33l-.75.08c.55,5.9,1.09,11.81,1.65,17.84-1.78-.26-3.6-.45-5.45-.59a9.76,9.76,0,0,0-2.72-3.58l1.51,3.49c-31.4-2-70.75,11.61-70.75,11.61V1388.7h1030.9v-11.91a26.9,26.9,0,0,0,21.66,10.91h977a27,27,0,0,0,27-27V848.6A27,27,0,0,0,2031.45,822.37Z"/><path class="cls-32" d="M342.79,903.7s46.72,21.45,81.19,31.4c0,0,10.72-5.36,16.85,0,0,0-24.76,79.27,44.17,32.55,0,0,29.48-26,29.48-14.56,0,0-5.47,46,24.41,13.79,0,0-53.89,140.94,5.19,91.15,0,0-39.68-84.63,111.22-85.39,0,0,26.81,6.12,26.81-3.07,0,0,36.76-6,36.76,5.07,0,0,16.85,11.19,37.53,0,0,0,55.15,14.08,77.37-1.24,0,0,13,4.6,12.25-6.89,0,0,28.34-1.53-17.62-8.43,0,0-67.4-11.49-82.72-9.19,0,0,16.11-9.19-71.21-12.25l26-7.66s135.57,13,147.06,9.95c0,0-54-18.49-54-20.78l11.6-9.86-15.06-4.59H756.4s-13-8.43-19.14,0c0,0-28.35-.77-35.24,3.83,0,0,17.62-10.55-6.89-7.58,0,0-32.94-9.4-32.94-.53,0,0-24.51,4.28-28.34,2,0,0,0-5.36-18.38,0,0,0,.76-13.79-32.17-2.3,0,0-47.49-12.2-68.17-4.57,0,0-45.19-6.15-49.79-13,0,0-31.4,1.53-25.28,17.61,0,0-42.12,8.43-52.85-5.36C387.21,893.74,319,884.55,342.79,903.7Z"/><path class="cls-33" d="M865.17,862.34,879,881.49s-6.13,34.46-31.41,57.44l-55.91-19.15,13.53-11.49S854.66,876.12,865.17,862.34Z"/><path class="cls-34" d="M948.83,911.4S960.4,935.57,991,922c0,0,3.07-4.42-5.44-15.31,0,0-4.09-4.43-11.58-3.41Z"/><path class="cls-34" d="M914.7,1014.68l1.7,9.87s55.49-5.11,62.3-11.23l-37.1-19.41S918.11,1007.53,914.7,1014.68Z"/><path class="cls-34" d="M943.64,992.21l35.06,19.4s43.24-5.1,66.73-19.4c0,0-4.43-6.47-8.86-6.47,0,0-48.68.5-55.49-5.19C981.08,980.55,958.28,976.21,943.64,992.21Z"/><path class="cls-35" d="M576.65,1066.81v-6l-3,3s-4.84,2.23-5.21-3c0,0,3.7-4.85,8.18-4.1,0,0-6.69-3.51-11.54-.08,0,0-12.29.82,0-9.61,0,0,4.08-7.45,11.54-8.57,0,0,7.47-1.49,7.47,3a166.54,166.54,0,0,1,48.44,3.73s40.61-3,49.93,4.84c0,0,30.92,1.87,35.77,9.32,0,0,15.65,4.1-1.87,11.55,0,0-32,3-36.51-1.49,0,0-1.86-3.36-7.45-2.24l-6.71-.74,1.49-3.73-4.84,2.61s-1.77-3.45-.66-4.1c0,0-2.33,2.42-1,4.84,0,0-3.29-3.85-5-3.35,0,0,2.23,1.24,1,4.22l-38,2.24S577.7,1071.72,576.65,1066.81Z"/><path class="cls-35" d="M331.2,1006.05c7.26-1.51,13.83-7.68,13.83-7.68,19.2-6.15,87.17,19.58,87.17,19.58,23.42,6.15-1.92,23.19-1.92,23.19L428,1036l-4.22,4.22-1.92-2.68-4.61,5c-10.75,10.75-36.48-5-36.48-5S311.49,1010.14,331.2,1006.05Z"/><path class="cls-31" d="M644.84,1023.05s-47.92-.8-17.32-31.17c0,0,35.4-30.37,34.6-41.56,0,0-28,3.2-28.78-3.2,0,0-11.12,17.59-23.14,22.38,0,0-31.4,10.39-24.11-9.59,0,0,9.69-8,8.89-12.79s.8,4.8.8,4.8-9.07-17.87-30.11-6.14l-70.59,36.64s-39.16,12.66-50.35,10.26c0,0-6.39-9.33-15.18-10.26,0,0,31.43,49.34,20.24,51.61l-36.67,16.22s-16.05,18.43-72.29,0L550.23,1119s-34.6-74.66,16.43-63.47l48.18-17.68Z"/><path class="cls-30" d="M4.13,818.4c-.8-2.92-9.28-5.65-1.77-8.78,29.16-3.32,58.53-1.56,90-.47-7.43,1.78-15.29,2.49-19.41,5.59,13.82-.29,26.12,1.68,39.24,1l62.16,1.12c3.73.44,9-.33,10.68,1.71l-24.9.17h-2.79l-107.76.29C34.58,817.42,19.3,818.39,4.13,818.4Z"/><path class="cls-31" d="M1711.42,871.22c-.75.45-1.5.91-2.26,1.35a21,21,0,0,0-6.78,5.77,37.35,37.35,0,0,1-3.26,4,6,6,0,0,0-1.56,4.68,12.42,12.42,0,0,1-.65,3.05l-.68-.06a28.53,28.53,0,0,1-.41-12l-.45-.09-4,8.06c-1.36-7.38-1-14.69-.63-22.08-1.79,5.86-3.57,11.73-5.32,17.47l-6.39-31.48-.63.07c1.76,14,3.56,27.94,2.48,42a71.4,71.4,0,0,1-1.41-9.24c-.44-4.89-1.15-9.73-3.44-14.31-.7-1.39-1.59-2.72-2.39-4.09l-.5.15c2.45,7.53,5.31,15,2.62,23-2.12-10.19-7.94-18.85-15.83-26.68,3.78,6.6,8.16,13,10.07,20.25l-3.86-6.68-.47.15q.9,4.37,1.82,8.71l-.45.13A28.05,28.05,0,0,0,1653.61,868c2.82,3.54,5.43,6.64,7.81,9.86s4.46,6.49,5.22,10.69l-5.93-5.75-.46.29c1.26,3.1,3.53,6,3.46,9.41-1.55-2-2.7-4.13-5.4-5.4l2.27,7.11-.34.11c-.41-.48-.81-1-1.3-1.54l-.87,1.7c-4-3.83-2.76-8.44-3.53-12.61l-.47.05V892.2l-.35.09-2.32-2.71-.31.11c.26,1,.52,1.93.82,3.06-.64-.11-1-.12-1.34-.22l-3.06-.92,10.43,22.75h53.48Z"/><path class="cls-36" d="M590.54,671.48s75.57,1.36,87.15-2.05"/><path class="cls-37" d="M587.5,692q10.92.08,21.82,0c7.27,0,14.54-.05,21.81-.16s14.54-.32,21.8-.51c3.63-.06,7.26-.2,10.89-.37,1.81-.1,3.63-.15,5.43-.35.9-.08,1.81-.13,2.71-.24l2.68-.45,0,.1-2.67.63c-.9.17-1.8.27-2.7.42-1.81.28-3.62.4-5.44.59s-3.63.26-5.44.39-3.64.2-5.46.28c-7.27.32-14.55.31-21.82.31-14.55,0-29.1-.21-43.64-.58Z"/><path class="cls-38" d="M755.94,450s-45.78,21.56-22.89,70h7.53s17.13-14.47,15.36-48.43c0,0-8,5.32-6.8,9.75,0,0-2.06-17.13,10.34-25.4C759.48,455.92,770.7,444.11,755.94,450Z"/><path class="cls-39" d="M734.38,519.06s-2.27-28.08,6.2-32.28c0,0-1.48,9.5,0,11.44,0,0,3.17-1,2.47-3.38,0,0,3.14,15.06-2.47,24.22Z"/><path class="cls-40" d="M733.05,520l3.82,68.8s.46,3.25,3.71,0V520S736.08,517,733.05,520Z"/><path class="cls-41" d="M729.12,551.34s-2.29-12,0-18.3c0,0-1.09-8.67,7.1,0,0,0,3.61,2.89,5.18-3.86,0,0,6.86-1.44,6.86,4.34,0,0-1.37,25.53-10.08,26.5Z"/><path class="cls-42" d="M656.43,631.68l29.27-21.81s15.17-20.59,19.51-34.68l18.43-31.43,20.59,11.92s-20.59,85.16-33.6,91.9L685.7,684.19l49.86,153.3s-3.25,7.59-15.18,8.68L669.44,695l-27.1-58.46,4-9.64-9.4-31.08s-1.8-10.83-15.53-9l-10.12-.36s-14.65,1.07-1.28-7.6c0,0,17.18-9.74,24-11.19,0,0,15.54-1.08,17.71,25.29C651.74,592.89,657.16,611.58,656.43,631.68Z"/><path class="cls-37" d="M649,608.67l-6.89-19s-1.22-11-13.87-10.84c0,0-29.87-1.44-43.35,23.61,0,0-4.34,26,20.23,34.68,0,0,5.3,14.94-7.23,17.83,0,0-22.16,6.74-25,56.36,0,0-2.89,47.69-16.86,56.84,0,0-6.26,14,4.34,17.35,0,0-12.71,18.06-6.18,24.57,0,0,4,18.42,16.09-2.89,0,0,11,2.89,10.32-9l1.81-4.33s-.36,38.66-4,44.08c0,0-4.33,19.51,6.51,21.67,0,0,78.2,10.47,147.05-13.73,0,0-4,0-9-11.2,0,0-41.69-124.28-43.86-136.2,0,0,10.76-22.46,33.75-52,0,0,13-43.72-37.94-22.4l-23.12,12.64-1.1-20A27.65,27.65,0,0,0,649,608.67Z"/><polygon class="cls-43" points="616.33 858.45 602.01 933.07 600.43 924.93 593.93 871.1 607.66 852.67 666.5 859.79 655.43 941.08 652.46 941.63 647.76 919.15 642.12 865.68 616.33 858.45"/><path class="cls-44" d="M659.69,861.78,653.5,928s-18,5.28-21.63,1.3l1.8-57.81s-3.27-9.57-9.75-9.68c0,0-8.67.64-9,6.79,0,0-4,10.11-10.52,11.2l-3.93,45.16s-21.31,3.25-23.48.72l6.46-66.57,1.49-10h73Z"/><path class="cls-44" d="M577,925.65V944.9s23,2.94,34,2.1a4.13,4.13,0,0,0,3.35-6.06c-1.74-3.18-5.26-6.89-12.33-7.87l-1.58-8.14Z"/><path class="cls-44" d="M631.87,929.27v19s22.81,7.77,31,5.24c0,0,6.91-2,4.83-6.26a5.2,5.2,0,0,0-2.3-2.27c-2.87-1.51-10.63-5.3-13-3.31l1-13.66Z"/><path class="cls-45" d="M762,467s13,.47,15.94-7.8a11.88,11.88,0,0,0-8,0l2.66-2.95S763.19,457.61,762,467Z"/><path class="cls-45" d="M771.57,447.57s4.28-5.88,8.4-4.35C780,443.22,775.82,448.69,771.57,447.57Z"/><path class="cls-46" d="M679,696.34s-41.53,4.85-49.78,2.91c0,0-18.43-38.31-26.67-47,0,0-6.54.53-8,4.41,0,0,15.76,21.29,17.21,29l-21.57-25.52s-6.07,4.18-6.07,9.52l21.82,30H591l.48,11.18H622s13.09,5.33,0,9.7H591.92l-.49,7.27H605v4.37H591.92l-.49,8.73h99.14l-1.36-7.28-28.91.49-.48-3.88,13.58-1.46-.49-8.73H658.36v-7.76L681.08,709Z"/><path class="cls-37" d="M601.06,738.15s73.59-.1,81.07-1.78"/><ellipse class="cls-47" cx="611.93" cy="754.85" rx="23.54" ry="21.92"/><path class="cls-48" d="M607.71,733.87s19.22-5.55,25.63,10.25-4.8,26.89-4.8,26.89S638.46,742,607.71,733.87Z"/><path class="cls-49" d="M583.36,783.68s2.13-12.81,0-25.2l-3.5,3.57a24,24,0,0,0-6.93,15.18C572.58,782.8,574.34,787.74,583.36,783.68Z"/><path class="cls-47" d="M600.43,924.93l-23.35-.62L577,928s18.56,1,24.07,0Z"/><path class="cls-47" d="M631.87,938.53V934l21.1,1-.22,4.76S633.86,936.61,631.87,938.53Z"/><path class="cls-31" d="M1116,897.44l-2.26,1.35a20.94,20.94,0,0,0-6.79,5.77,38.5,38.5,0,0,1-3.25,4,6,6,0,0,0-1.57,4.68,12.39,12.39,0,0,1-.64,3l-.68-.06a28.25,28.25,0,0,1-.41-12l-.46-.08q-2,4-4,8.06c-1.36-7.38-1-14.69-.64-22.08-1.78,5.86-3.57,11.73-5.31,17.47l-6.39-31.48-.64.07c1.76,14,3.57,27.94,2.48,42a71.37,71.37,0,0,1-1.4-9.24c-.44-4.89-1.16-9.73-3.45-14.31-.69-1.39-1.58-2.72-2.38-4.09l-.51.15c2.45,7.53,5.32,15,2.62,23-2.11-10.19-7.93-18.85-15.83-26.68,3.79,6.6,8.16,13,10.08,20.25l-3.87-6.68-.47.15,1.83,8.71-.46.13a28,28,0,0,0-13.46-15.34c2.81,3.54,5.42,6.64,7.8,9.86s4.46,6.49,5.22,10.69l-5.92-5.75-.47.29c1.26,3.1,3.53,6,3.47,9.41-1.55-2-2.71-4.13-5.4-5.4l2.27,7.11-.35.11-1.29-1.54-.88,1.7c-4-3.83-2.76-8.44-3.53-12.61l-.47,0v10.23l-.35.1L1056,915.8l-.31.11c.26,1,.52,1.93.82,3.06-.64-.11-1-.13-1.35-.22l-3-.92,10.43,22.75H1116Z"/><path class="cls-34" d="M1044.6,1018.18l.85,4.93s27.75-2.55,31.15-5.61l-18.55-9.7S1046.3,1014.6,1044.6,1018.18Z"/><path class="cls-34" d="M943.64,991.31l35.06,19.4s43.24-5.1,66.73-19.4c0,0-4.43-6.47-8.86-6.47,0,0-48.68.5-55.49-5.19C981.08,979.65,958.28,975.31,943.64,991.31Z"/><path class="cls-50" d="M1031.17,597.66l-.17.07a4.17,4.17,0,0,0-.43,7.55l43.1,23.27,4.36-8.08-26.18-14.14-3.47-1.87-5.39-2.91s12.78-1.56,14.06-4.84c0,0-6.64-7.06-10.79-5.82l-.76-6.88s-9.69-3.24-10.37-.13l3.07,8.12Z"/><path class="cls-50" d="M1013.68,606s-8.35,1.72-1.07,8.92l24.61,16.2,3.31-5s12.26.86,3.32-5C1043.85,621,1017.7,602.56,1013.68,606Z"/><polygon class="cls-50" points="1003.72 634.95 1015.73 645.95 1024.24 645.95 1043.3 655.14 1053.2 654.5 1088.83 666.31 1105.6 675.22 1130.79 686.8 1146.87 690.2 1163.94 691.26 1138.28 671.82 1125.01 664.67 1107.3 653.52 1104.58 659.22 1055.22 651.39 1047.11 633.01 1028.37 634.71 1003.72 634.95"/><rect class="cls-51" x="650.2" y="211.3" width="22.85"/><polygon class="cls-51" points="547.17 345.05 547.17 211.3 437.62 211.3 455.07 232.61 525.87 232.61 525.87 252.75 471.56 252.75 489.01 274.05 525.87 274.05 525.87 319.05 547.17 345.05"/><polygon class="cls-51" points="682.73 345.05 682.73 211.3 792.28 211.3 762.06 246.41 734.53 246.41 747.3 232.6 704.03 232.6 704.03 285.43 719.69 267.71 747.23 267.71 682.73 345.05"/><rect class="cls-51" x="556.86" y="211.3" width="22.85"/><polygon class="cls-51" points="579.71 244.76 579.71 299.85 556.86 321.31 556.86 211.3 673.05 211.3 673.05 234.38 650.2 255.83 650.2 244.76 614.96 276.06 579.71 244.76"/><polygon class="cls-51" points="556.86 375.91 556.86 332.93 579.71 311.47 579.71 322.55 614.95 291.24 650.2 322.55 650.2 267.45 673.05 246 673.05 375.91 614.95 321.37 556.86 375.91"/><path class="cls-51" d="M888.71,355.68l-9.46-24.86H881l8.66,23,6.07-16-2.59-7h1.74l8.48,22.89,8.67-22.89h1.75l-9.46,24.86h-1.79l-6-15.69-6,15.69Z"/><path class="cls-51" d="M930.26,355.68V330.82h1.62v11.1h17v-11.1h1.65v24.86h-1.65V343.39h-17v12.29Z"/><path class="cls-51" d="M970.32,355.68V330.82h13.19v1.46H972v9.64h10.79v1.47H972v10.82h11.55v1.47Z"/><path class="cls-51" d="M1001.12,355.68V330.82h7.1c4.76,0,7.71,2,7.71,6.73,0,4.12-2.81,6.1-6,6.62l9.71,11.51h-2.13l-9.45-11.3h-5.31v11.3Zm1.64-12.75h5.45c3.34,0,6.1-1.68,6.1-5.38s-2.25-5.27-6.1-5.27h-5.45Z"/><path class="cls-51" d="M1035.87,355.68V330.82h13.19v1.46h-11.54v9.64h10.78v1.47h-10.78v10.82h11.54v1.47Z"/><path class="cls-51" d="M1084.6,355.68l3.2-24.86h1.73l9.58,22.22,9.61-22.22h1.73l3.2,24.86H1112l-2.81-22.18-9.55,22.18h-1.06L1089,333.5l-2.81,22.18Z"/><path class="cls-51" d="M1128.62,355.68l10.26-24.86h1.8L1151,355.68h-1.8l-2.94-7.13h-12.85l-2.92,7.13Zm5.22-8.51h11.9l-6-14.44Z"/><path class="cls-51" d="M1165.13,343.25c0-7.61,5.27-13,12.54-13a12,12,0,0,1,11.21,6.86l-1.54.51a10.42,10.42,0,0,0-9.67-5.87c-6.32,0-10.88,4.74-10.88,11.5s4.56,11.47,10.88,11.47c6,0,10.36-3.85,10.41-9.56H1177.7v-1.37h12.1c0,7.89-4.87,12.45-12.13,12.45S1165.13,350.85,1165.13,343.25Z"/><path class="cls-51" d="M1207.47,355.68V330.82h1.65v24.86Z"/><path class="cls-51" d="M1227.34,343.25c0-7.61,5.27-13,12.54-13a12,12,0,0,1,11.19,6.86l-1.52.66a10.38,10.38,0,0,0-9.67-6c-6.29,0-10.87,4.74-10.87,11.5s4.58,11.47,10.87,11.47a10.39,10.39,0,0,0,9.72-6.12l1.53.66a12,12,0,0,1-11.25,7C1232.61,356.24,1227.34,350.85,1227.34,343.25Z"/><path class="cls-51" d="M1288,355.68V330.82h1.63v11.1h17v-11.1h1.64v24.86h-1.64V343.39h-17v12.29Z"/><path class="cls-51" d="M1324.85,355.68l10.25-24.86h1.81l10.27,24.86h-1.81l-2.93-7.13h-12.85l-2.92,7.13Zm5.21-8.51H1342l-6-14.44Z"/><path class="cls-51" d="M1363.73,355.68V330.82h7.12c4.74,0,7.69,2.05,7.69,6.73s-3.59,6.83-7.69,6.83h-5.48v11.3Zm1.64-12.75h5.46c3.33,0,6.09-1.68,6.09-5.38s-2.23-5.28-6.09-5.28h-5.46Z"/><path class="cls-51" d="M1396,355.68V330.82h7.12c4.74,0,7.69,2.05,7.69,6.73s-3.59,6.83-7.69,6.83h-5.48v11.3Zm1.64-12.75h5.46c3.33,0,6.09-1.68,6.09-5.38s-2.23-5.28-6.09-5.28h-5.46Z"/><path class="cls-51" d="M1428.33,355.68V330.82h13.19v1.46H1430v9.64h10.79v1.47H1430v10.82h11.55v1.47Z"/><path class="cls-51" d="M1459.12,355.68V330.82h1.63l18,22.24V330.82h1.64v24.86h-1.64l-18-22.26v22.26Z"/><path class="cls-51" d="M1498.11,349.74l1.5-.3a6.08,6.08,0,0,0,6.35,5.18c3.71,0,5.78-2.36,5.78-5.17,0-2.1-.92-3.75-3.59-5l-4.56-2.26c-2.76-1.34-4.51-2.85-4.51-5.8s2.48-5.89,6.77-5.89c3.79,0,6.35,2.32,6.79,5.59l-1.48.3a5.11,5.11,0,0,0-5.31-4.47c-3.27,0-5.13,2.1-5.13,4.44,0,2,1.1,3.16,3.54,4.38l4.46,2.21c3.09,1.54,4.66,3.31,4.66,6.53,0,3.76-2.75,6.59-7.42,6.59S1498.85,353.55,1498.11,349.74Z"/><path class="cls-51" d="M893.3,245.91V259.7h23.6v13.71H893.3v27.45H879.55V232.2H920.8v13.71Z"/><path class="cls-51" d="M1004.45,266.62c0-19.31,16.26-35.65,35.52-35.65,8.92.12,16.81,3.65,24,10.56L1056,252.36c-4.67-4.59-10.27-7.39-16.17-7.39-11,0-21.48,9.76-21.48,21.73,0,12.18,10.87,21.6,21.43,21.6,6.29,0,11.72-3.35,16.26-7.81l7.89,11.12c-6,6-13.37,10.49-23.72,10.49C1020.49,302.1,1004.45,285.84,1004.45,266.62Z"/><path class="cls-51" d="M1192.93,245.91v13.36h23.59V273h-23.59v14.13h27.5v13.67h-41.25V232.37h41.25v13.54Z"/><path class="cls-51" d="M1244.28,245.91v13.36h23.59V273h-23.59v14.13h27.5v13.67h-41.25V232.37h41.25v13.54Z"/><path class="cls-51" d="M1316.38,300.78l-20.79-30v30h-13.71V232.37h13.71V262l19.22-29.58h15.87l-21.94,33.48,24.36,34.93Z"/><path class="cls-51" d="M1353.39,245.91v13.36H1377V273h-23.59v14.13h27.5v13.67h-41.25V232.37h41.25v13.54Z"/><path class="cls-51" d="M1446,232.2v69.85h-.64l-40.61-39.51v38.32H1391V231.09h.68l40.53,39.43V232.2Z"/><path class="cls-51" d="M1513.38,266.66c0,21.22-13.49,34.12-35.6,34.12h-19.91V232.41l19.91,0C1499.89,232.33,1513.38,245.31,1513.38,266.66Zm-13.87,0c0-12.82-8.24-20.63-21.77-20.63h-6.16v41.08h6.28C1491.32,287.07,1499.51,279.35,1499.51,266.62Z"/><polygon class="cls-51" points="1168.46 300.44 1136.75 271.35 1105.03 300.78 1105.02 232.37 1119.03 232.37 1118.94 270.66 1136.75 254.88 1154.27 271.02 1154.63 232.37 1168.46 232.37 1168.46 300.44"/><polygon class="cls-51" points="930.32 232.91 962.03 261.99 993.74 232.56 993.75 300.97 979.75 300.97 979.84 262.68 962.03 278.46 944.5 262.32 944.14 300.97 930.32 300.97 930.32 232.91"/><path class="cls-29" d="M1468.88,810.25c-.8-2.93-9.28-5.65-1.77-8.79,29.17-3.32,58.53-1.56,90-.47-7.42,1.78-15.29,2.5-19.41,5.6,13.83-.3,26.12,1.67,39.24,1l62.17,1.12c3.72.44,9-.33,10.67,1.71l-24.89.17h-2.79l-107.77.29C1499.33,809.27,1484.05,810.23,1468.88,810.25Z"/><path class="cls-30" d="M424.16,827.36c12.61-2.62,25.55-3.24,38.29-4.13,26.44-1.82,53.16-1.85,79.92-1.73,6.65,0,10.77.82,10.67,3.46s-1.6,4.85-10.51,4.76q-56.25-.54-112.5-1.29C428.44,828.41,426.89,827.88,424.16,827.36Z"/><path class="cls-30" d="M1343.66,867.58c-.8-2.92-9.28-5.65-1.77-8.78,29.17-3.32,58.53-1.56,90-.47-7.42,1.78-15.29,2.5-19.41,5.6,13.82-.3,26.12,1.67,39.24,1l62.16,1.12c3.73.44,9-.33,10.68,1.71l-24.89.17h-2.79l-107.77.29C1374.11,866.61,1358.83,867.57,1343.66,867.58Z"/><path class="cls-23" d="M1731.36,741.16s24,9.51,17.34,49.88l-20.65-2.27S1726.21,743.34,1731.36,741.16Z"/><path class="cls-52" d="M1694.18,787.08q1-6.47,2-12.94l2.91-7.15c2.26-13.18,11.4-20.12,22.7-25.11,3.45-1.52,7.23-2.84,10.57-.72,4.13,2.62,1.65,6.72.89,10.06-2.8,12.37-5.7,24.71-4.2,37.55-11.47,1.24-22.8-3.69-34.31-.72Z"/><path class="cls-30" d="M1694.74,788.05c11.51-3,22.84,2,34.31.72,8.22.49,16.49,1.56,24.46-1.65,1.64,1,5.56,3.74,2.92,3.73C1735.86,790.82,1714.88,797,1694.74,788.05Z"/><path class="cls-29" d="M1659.46,798.69c-5.75-2.26-5.09-3.72,1.93-4.89,8.45-1.41,16.83-.57,25.26-.29,5.21.91,11.95.39,14.42,3.86-4,1.49-8.31,1.12-12.56.3-3.85-.74-7.62-1.35-11.18.31-4.36-1.51-8-.34-11.64.78Z"/><path class="cls-30" d="M1787.82,798.48c-10.37.45-20.73,2.93-33.46-1.06C1767.46,792,1777.69,796.32,1787.82,798.48Z"/></g></g><g id="Layer_4" data-name="Layer 4"><g class="cls-53"><g class="cls-5"><path class="cls-54" d="M2036.1,215.08c0-.87-4.74-1.6-11.13-1.81a1.72,1.72,0,0,0,.29-.92c0-2.55-6.43-4.61-14.37-4.61h-.64c0-.06,0-.12,0-.18,0-5.18-9.54-9.38-21.32-9.38-9.2,0-17,2.57-20,6.16-1-.08-2-.13-3-.13-5.89,0-11,1.49-13.34,3.64a23.93,23.93,0,0,0-4.18-.36c-.52,0-1,0-1.54.05a87.31,87.31,0,0,0-17.71-1.6c-13,0-23.71,4.29-25,7.34-1.31,0-2.7-.08-4.15-.08-8.16,0-12.42,1.87-14.78,1.87-8,0-6.12,1.88-4,1.88H2036.1C2044.26,217,2036.1,216.12,2036.1,215.08Z"/></g></g></g></g></svg>